<mxfile host="65bd71144e">
    <diagram id="zOsBUlOQxNhnEtaMxW5K" name="ページ1">
        <mxGraphModel dx="1157" dy="1153" grid="1" gridSize="10" guides="1" tooltips="1" connect="1" arrows="1" fold="1" page="1" pageScale="1" pageWidth="827" pageHeight="1169" math="0" shadow="0">
            <root>
                <mxCell id="0"/>
                <mxCell id="1" parent="0"/>
                <mxCell id="2" value="" style="shape=image;verticalLabelPosition=bottom;labelBackgroundColor=#ffffff;verticalAlign=top;aspect=fixed;imageAspect=0;image=data:image/png,iVBORw0KGgoAAAANSUhEUgAAAlgAAAGQCAYAAAByNR6YAAAAOXRFWHRTb2Z0d2FyZQBNYXRwbG90bGliIHZlcnNpb24zLjMuNCwgaHR0cHM6Ly9tYXRwbG90bGliLm9yZy8QVMy6AAAACXBIWXMAAA9hAAAPYQGoP6dpAADSdElEQVR4nOzdeZicVZnw/+95ltqr13Rn31eWsC9BHMCAg7iBDDOKqPgyr4OKM46O7yv6m2F0dERnVFRw1xkUFcXXEfdoECEKgsi+hCVkT3d679rrWc45vz+e6ko63Uk6SXenO5zPdXHRtT116ulO1V33Oee+hdZaYxiGYRiGYYwb62gPwDAMwzAM41hjAizDMAzDMIxxZgIswzAMwzCMcWYCLMMwDMMwjHFmAizDMAzDMIxxZgIswzAMwzCMcWYCLMMwDMMwjHFmAizDMAzDMIxxZgIswzAMwzCMcWYCLMMwDMMwjHFmAizDMAzDMIxxZgIswzAMwzCMcWYCLMMwDMMwjHFmAizDMAzDMIxxZgIswzAMwzCMcWYCLMMwDMMwjHFmAizDMAzDMIxxZgIswzAMwzDGVWdnJ6tXr+bhhx8+2kOpW7t2Lddff3398oYNGzj11FPp7++fkOczAZZhGIZhGOPqi1/8IieffDKnn356/brNmzfziU98gje96U2sXr2alStXsnPnzsM6/qZNm7j55psP+/EA5513HgsWLOCrX/3qYR/jQEyAZRiGYRjGuOnv7+fOO+/kTW9607DrH3vsMW677TZKpRJLly49oufYtGkTt9xyC7t27Tqi47zxjW/kBz/4AcVi8YiOMxoTYBmGYRiGMW5++tOfYts2r3jFK4Zdv3btWh566CF+9rOf8brXve4ojW64iy++GN/3Wbdu3bgf2wRYhmEYhnGU3HzzzaxcuZItW7bwgQ98gNNPP501a9bwuc99Dq01nZ2dvOtd7+K0007j3HPP5b/+679GHMP3fb7whS/wyle+khNPPJHzzz+f//iP/8D3/WH3+9GPfsTb3vY2zjnnHE488URe/epX873vfW/E8dauXcu1117Ln//8Z6644gpWr17NhRdeyJ133jmm13TXXXdx0kknkU6nh13f1NREJpMZ0zF+8YtfcPnll3Pqqady2mmn8brXvY5vfetbAPzP//wP733vewF429vexsqVK1m5ciUPPvggAFprvvSlL3Heeedx8skn89a3vpUXXnhh1OdpbW1l5cqV/Pa3vx3TuA6FM+5HNAzDMAzjkLzvfe9j6dKl/NM//RP33nsvX/7yl2lqauL73/8+a9as4QMf+AA/+9nP+NSnPsXq1as588wzAVBK8a53vYuHH36Yv/mbv2Hp0qU8//zzfOtb32Lr1q186Utfqj/H7bffzvLly1m7di2O4/C73/2Oj370o2itueqqq4aNZ9u2bbz3ve/liiuu4A1veAM/+tGPuP766znhhBNYvnz5fl9HEAQ8+eSTXHnllYd9Lu677z7e//73c8455/CBD3wAiNZvPfLII1x99dWceeaZvPWtb+W2227jne98J0uWLAGoTzt+/vOf58tf/jLnn38+559/Pk8//TTXXHMNQRCM+nwnnHACd91112GPd7+0YRiGYRhHxRe+8AW9YsUK/S//8i/168Iw1Oedd55euXKl/upXv1q/PpfL6ZNOOkl/8IMfrF9355136lWrVumHHnpo2HFvv/12vWLFCv3www/Xr6tUKiOe/5prrtEXXnjhsOte8YpX6BUrVgw7Zl9fnz7xxBP1Jz/5yQO+nm3btukVK1bo22677YD3+8Y3vqFXrFihd+zYMeK2j3/84/q0007TYRju9/G/+tWv9IoVK/QDDzww7Pq+vj59wgkn6L/7u7/TSqn69Z/97Gf1ihUrhp27IV/5ylf0ihUrdG9v7wHHfKjMFKFhGIZhHGVXXHFF/WfbtjnxxBPRWg+7vqGhgcWLF7Njx476devWrWPp0qUsWbKE/v7++n9r1qwBqE+bASQSifrPhUKB/v5+zjrrLHbs2EGhUBg2nmXLlnHGGWfUL7e0tIx47tEMDg7Wx3q4GhoaqFQq3HfffYf82Pvvv58gCHjLW96CEKJ+/dVXX33A5wMYGBg49MEegJkiNAzDMIyjbM6cOcMuZ7NZ4vE4LS0tI64fCmIgmsp78cUXOeecc0Y9bl9fX/3nhx9+mJtvvpnHHnuMSqUy7H6FQoFsNlu/PHv27BHHamxsJJfLjen1aK3HdL/RvPnNb+ZXv/oV73jHO5g5cybnnnsul1xyCeedd95BH9vR0QHAokWLhl3f0tJCY2PjAce6d0A2HkyAZRiGYRhHmWWNnFCybXvU++4dvCilWLFiBR/60IdGve+sWbMA2L59O29/+9tZsmQJ119/PbNnz8Z1Xe69915uvfVWlFJjeu6DaWpqAiCfzx/W4yFaeH7nnXfyhz/8gQ0bNrBhwwb+53/+h8suu4xPfepTh33c/Rkaa3Nz87ge1wRYhmEYhjFNLViwgGeffZZzzjnngBmYu+++G9/3+fKXvzwsW7b3FOJ4mD17NolE4ogKgALEYjHWrl3L2rVrUUrxkY98hB/84Ae8+93vZuHChft9rUOvbevWrcyfP79+fX9//36zbzt37qS5uXlEtvBImTVYhmEYhjFNXXLJJXR1dXHHHXeMuK1arVIul4E9Gam9s1+FQoEf/ehH4zoe13U58cQTeeqppw77GPuuhbIsi5UrVwLUS08kk0mAEWvHXvayl+G6Lt/5zneGvdahEg+jefrppznllFMOe7z7YzJYhmEYhjFNXXrppfzqV7/iX//1X3nwwQc57bTTkFKyefNm1q1bxze+8Q1Wr17Nueeei+u6vPOd7+RNb3oTpVKJH/7wh7S2ttLT0zOuY7rwwgu56aabKBaLw+peFQoFbrvtNgAeeeQRAL773e+SzWZpaGjgLW95CwD//M//TC6XY82aNcycOZOOjg6+853vcNxxx9VLMRx33HHYts3Xv/51CoUCsViMNWvW0NrayjXXXMNXv/pVrr32Ws4//3yeeeYZNmzYMOoUYF9fH8899xxvfvObx/UcgAmwDMMwDGPasiyLL37xi9x666385Cc/Yf369SSTSebNm8db3/pWFi9eDMCSJUv4whe+wOc+9zk+9alPMWPGDK688kpaWlr48Ic/PK5juvTSS/nMZz7Db3/7Wy699NL69blcjs9//vPD7jtUOHXu3Ln1AOv1r389d9xxB9/73vfI5/O0tbVxySWX8Pd///f1tWptbW189KMf5atf/Sr/3//3/yGl5Nvf/jatra384z/+I7FYjO9///s8+OCDnHTSSfzXf/0X11577Yix/uY3vyEWi3HJJZeM6zkAEPpIlvobhmEYhmHs48Mf/jBbt24dtVL8VHLZZZdx1llnjXuQCWYNlmEYhmEY4+w973kPTz75JA8//PDRHsp+bdiwgW3bto2a2RoPJoNlGIZhGIYxzkwGyzAMwzAMY5yZAMswDMMwDGOcmQDLMAzDMAxjnJkAyzAMwzAMY5yZOliH6dFHH0Vrjeu6R3sohmEYhmGMgyAIEEJw6qmnHvGxTAbrMGmtj6hb+P6O6fv+uB/XGJ0535PLnO/JY8715DLne3JN5Pkez892k8E6TEOZq9WrV4/bMcvlMhs3bmTZsmWkUqlxO64xOnO+J5c535PHnOvJZc735JrI8/3kk0+O27FMBsswDMMwDGOcmQDLMAzDMAxjnJkAyzAMwzAMY5yZAMswDMMwDGOcmQDLMAzDMAxjnJldhJNASkkQBAe9n+d59f9blol9J9rBzrfruti2PdnDMgzDMI4BJsCaQFprdu/ezeDg4Jjur5TCcRw6OjpMgDUJxnK+m5qamDVrFkKISR6dYRiGMZ2ZAGsCDQVX7e3tpFKpg35ISynxPI94PG4yJ5PgQOdba025XKa7uxuA2bNnH40hGoZhGNOUCbAmiJSyHly1traO+TEAiUTCBFiT4GDnO5lMAtDd3U17e7v5nRiGYRhjZuahJsjQmitT1Xd6G/r9jWUNnWEYhmEMMQHWBDNrd6Y38/szDMMwDocJsAzDMAzDmJK0DFGhP/w6rRGVHFqGR2lUY2MCLOOg7rrrLr773e+O6zHXrl3Lv/3bvx3y41auXMk3v/nNcR2LYRiGMTXJ0iBBf+c+VwZYXhEdeEdnUGNkFrkbB3XXXXfx1FNPcdVVV43bMW+55RYaGhoO+XE/+MEPmDNnzriNwzAMw5i6tAxRXnn4dYEHUzx7BSbAMsaJ1pogCIjFYmO6//HHH39Yz3PKKacc1uMMwzCM6UeFPjoM0UoirGgntw4DhJZHeWQHZ6YIjQO6/vrr+fGPf8wLL7zAypUrWblyJddffz3XX389r33ta7n33nt5/etfz+rVq7n77rspl8v827/9GxdffDEnn3wya9eu5YYbbqBQKAw77r5ThEPHe/DBB7nssss45ZRTuOKKK3jqqaeGPW7fKcK3vvWtXHvttaxbt46LL76YU089lbe97W1s37592ON2797Ntddey8knn8z555/Prbfeyo033shrXvOaCThrhmEYxnjQgQcqHLbeSgVVk8Eypr93v/vd9Pf3s3nzZj796U8D0NLSwpe+9CW6u7v5+Mc/zrve9S5mz57NnDlzqFarSCl53/veR0tLC52dnXzlK1/h3e9+N7fddtsBn6unp4ePf/zj/N3f/R3ZbJbPfOYzvOc972H9+vW4rrvfx23cuJH+/n4+8IEPIKXkk5/8JP/n//wffvCDHwBRdu3d7343vb29fPSjHyWbzfLNb36TXbt2mV2ChmEYU5gOA1Ay+m/oun2mDKcqE2BNMq01nj96alMqSdWXYIXYlh73547H7EMOKBYsWEBLSwsdHR0jpudyuRxf//rXOfnkk4dd/9GPfrT+cxiGzJs3jze/+c1s2bKFxYsX7/e5crkc3/nOd1i+fDkQFfp829vexuOPP84ZZ5yx38cVCgXuvPNOWlpaACiXy3zoQx9i9+7dzJo1iw0bNvD000/z3e9+t36cNWvWcP7555PJZA7pfBiGYRiTQyu5579axkrLcMovbh9iAqxJpLXmg7f8gY1b+4/K8x+3qIVPvefl45a1aWpqGhFcAdx5553ceuutbNu2jXJ5zzeNrVu3HjDAam9vrwdXAMuWLQOgq6vrgONYtWpVPbja+3FDAdaTTz5JQ0PDsCAtnU6zZs2aEVOQhmEYxtSglQQp0UrtCbBCHy2nR+FnE2AZh23GjBkjrlu/fj0f/OAHeeMb38j73vc+mpqa6Onp4brrrsPzDvytY99dhUPTgkf6uO7u7mEB2JDRrjMMwzCmCCVBK7RWaBUFWCrwIDQBlrEPIQSfes/LDzxFWPVIJOLY1vj3vTucKcIDGe1Y69at47jjjhu2gP1Pf/rTuD3n4Whvb6e/f2TWcLTrDMMwjKlBS1nfPajDvTJYR3lcY2UCrEkmhCARH/20SylAhSRizpRqLOy67kGzSEOq1eqIBek/+9nPJmJYY7Z69Wry+TwPPfQQZ555JgClUokHHnjArMEyDMOYqmoZLGG7aL8aXVUt1cs1THWmTINxUEuXLmXXrl38/Oc/58knn2Tnzp37ve/LXvYynnjiCb74xS9y//33c+ONN/LHP/5xEkc70nnnnccJJ5zAP/3TP3HnnXdy99138453vIN0Oo1lmX8ChmEYU4UKPLyencMWtgvbjuphKYmslhDO/neVTyXT6tNl27Zt3HDDDVx66aUcf/zxvPa1rz3kY9x6662sXLmSa6+9dgJGeGy64ooreNWrXsXHPvYxrrjiCm655Zb93vdNb3oT11xzDd/5znd4z3veQ2dnJ5/5zGcmcbQjCSH40pe+xKpVq7jhhhu44YYbuOCCC1izZo3JYBmGYUwRWiuCvg5kvgftV9FaoiGaIpQBqlpCB1WEEz/aQx2TaTVF+MILL3Dvvfdy8skno5RC60Obie3p6eGLX/wira2tEzTCY1Mmk+Gzn/3smO5r2zYf/OAH+eAHPzjs+ueee27Y5bvvvnvY5U9+8pMjjtXQ0DDicfteHq221nHHHTfifrNmzeJrX/ta/bLv+7z61a82leENwzCmCFkYIMz3oJVCBVEFd4EAy4bAQ1YKIBW402OKcFoFWGvXruWiiy4Cosrfh7rF/j//8z9Zu3YtHR0dEzE8Ywr7wQ9+gFKKxYsXk8/nuf322+no6ODGG2882kMzDMN4ydNK4g90ImwXtI8KqujQB8uKMlhaoSpFmELrkw9mWgVYR7Je5s9//jN33XUX69at45/+6Z/GcVTGdBCPx/na177Grl27gKh21pe//OXD7oloGIZhjB8deBB4WIkMSmtUtQgahGWBZaOlRAUelhuHqd+GEJhmAdbhklLysY99jHe+8520t7cf7eEYR8Fll13GZZddNuw6KSXVavXoDMgwDMOoU4GHkgG27SAcF+VVEZYAEZUX0mjwq1iZJpCmkvuU8b3vfY9KpcLb3/72cT2u1npYpfK9eZ6HUgopJVKOLdweWlOmtR7zY4zDN5bzLaVEKUWlUkEpNZnDO+ZUKpVh/zcmjjnXk8uc70MTNWuWWIl0/bqwkCP0fGS1ipYK5ZWi6UIhsESV0Iu+DDuxNJ4fBVjVagVrP5/Bh0trPW71Io/5AKuvr48vfOELfOpTnyIWi43rsYMgYOPGjfu93XGcMdeP2tvhPMY4fAc6357nEYYhmzdvnsQRHdu2bt16tIfwkmHO9eQy53sMVIid241QIWHTXLCjkgtWfjdWtYCO5wEQlTw4LtpyovuEHiCgtxDVxgK2b9+O7uwZ9yGOV6xwzAdYn//851m5ciVnnHEG+Xz0iwvDkDAMyefzpFIpHOfwToPruvW+d/vyPI+Ojg7i8TiJRGJMx9Na43ke8Xh8XCuuG6Mb6/l2HIcFCxYQj0+PrcFTVaVSYevWrSxatIhkMnm0h3NMM+d6cpnzPTZaK8KeHYSxWjaqqQlnxnxA4+/UoNrqWS1Z6APbwYqnEfbwz+hqtcLuLS+wYMECUk0jW7YdiU2bNo3bsY75AGvLli3DKnjv7cwzz+TrX/8655133mEdWwhBKpUa9TbLsrAsC9u2x1yVfWiaSggxpSq5H6vGcr5t28ayLJLJ5JgDZePAksnkfv/dGOPLnOvJZc73gYXFQfAKxFtmotGoSp648rESKYRjI9w0lhtlj6RMowIfJ5VCiOEb3HRtuUYiMf7nezyTG8d8gPXhD3+4nrka8olPfIJEIsH73/9+Vq5ceZRGZhiGYRgvHapaBEA4LgLQlk0wsBu3ZRY6DLCSewo/i1gSIeWI4Go6mVYBVqVS4d577wVg165dFItF1q1bB8BZZ51FS0sLV199NR0dHaxfvx6Iik7uq6GhgVQqxdlnnz15gzcMwzCMlyitFbKcR7h7llpYySxhoT8qvaD1sGDKcuPR9dPYtAqw+vr6eO973zvsuqHL3/72tzn77LPrO/cMwzAMw5gatF9F+1Ws+J4pPWHZWG4c6ZXgGOwLO60CrHnz5o1ogbKv0VqnHM59jD3uuusuurq6uOqqq8b1uPl8nm9961tccskl+90sYBiGYUx/yqugwgA7PbxRs5XMEA72DCvZcKw49kJGY9zddddd3H777eN+3Hw+zy233DKuuzYMwzCMqUN5ZbSSyGoxqsq+DyEsnKZ27L3WXx0rplUGyzAMwzCM6UGW83hdW7FiCVTgDVt/tbdjtSyRCbCMA7r++uv58Y9/DFDfcfmGN7yBT37ykzz66KPcdNNNPPHEE9i2zQUXXMCHP/xhWltb64//2te+xg9/+EN2795NOp1m1apVfOxjH0MIwYUXXggwbF3db3/7W+bNmzeJr9AwDMMYbyr08Xt3oQMPGXhoGeA0jG/NqqnOBFiTTGsdNbUchZISHXgoC8QE1MES7qEXMH33u99Nf38/mzdv5tOf/jQALS0tPProo7z1rW/l/PPP56abbqJSqfC5z32Od7/73fzgBz8A4M477+Tzn/88//AP/8App5xCoVDg4YcfplQqsWTJEm655Rbe85738P73v7++o9P0ijQMw5jetJIE/Z3Icg6noXVal1o4EibAmkRaazq+/f/h7TzwQv2JEp+3ijlv+/ghBVkLFiygpaWFjo4OTjnllPr1H/7whznxxBO55ZZb6sdbsWIFr33ta7n33ns5//zzeeKJJ1i5ciXXXntt/XEXXXRR/eehEhoLFy4cdmzDMAxjetJaEfR3EvR34qSbXrLBFZhF7kfB9J9rrlQqPPLII7zqVa9CSllvPbRo0SJmz57Nk08+CcDxxx/PM888w4033sif//xngiA4yiM3DMMwDpWqTfGNRTDQhd+3CzvVgHDcgz/gGGYyWJNICMGct318v1OEUsp6b7yJaJVzOFOEo8nn80gpufHGG7nxxhtH3N7Z2QnA5ZdfTqlU4o477uDWW28lm81y2WWX8YEPfMC0nTEMw5gmgoHdWLEEbtPMA95PlnKE/R3YifS0LxI6HkyANcmEEIjY6MGFlhKhwIolsKZwL8JsNosQgmuvvXbYlN+Q5uZmIOrHePXVV3P11VfT1dXFL37xCz7zmc/Q3NzMddddN9nDNgzDMA6DqpbRMsRtmhmtrxrsxkk3YcX3NLZWgYfXuxOtwY6ZhtdgAixjDFzXxfP2ZN1SqRSnnHIKmzdvZvXq1WM6xsyZM7nmmmv4+c9/zubNm+vHBYYd2zAMwzh6tNbDZjq0kmgZRv8pifKrhP2dyOIA8faF9QKhYaEfVSm85HYKHogJsIyDWrp0KT/60Y/4+c9/zsKFC2lubub//t//y9VXX80//uM/8prXvIaGhgZ2797N/fffz+WXX87ZZ5/NDTfcQENDA6eccgoNDQ088sgjPPvss1x55ZUAtLW10dDQwC9+8QvmzZtHLBZj5cqVxGKxo/yKDcMwXnqUX8Hv7yTevhBhRbMoWoagQtAKHXhov4KWProS4nVvIzF3OVg2sjiAFUscszWtDocJsIyDuuKKK3jiiSf42Mc+xuDgYL0O1ve+9z1uvvlmPvShDxEEAbNmzWLNmjUsXLgQgFNPPZU77riDH/7wh1QqFebPn8+HPvQh/vqv/xqIphBvvPFGPvvZz/L2t78d3/dNHSzDMIyjRAc+2vfQMqwHWMgQrUJ0GKJ8D1kpgrCxM02EhX5kuYBw42ivjJXMHt0XMMWYAMs4qEwmw2c/+9kR169evZqvfe1r+33cG97wBt7whjcc8NgXXXTRqOu4DMMwjMmlZRhlqWQItUXqUQZLIYSFrJaQlUItU2UhLJuw2I+dbIjWENsmpNibORuGYRiGYdQyVT7IcM91tZ+F66KqBXRQxUo1AmAl0qhSHh0GL/mSDKMxdbAMwzAMw0AFPloG9aAKiC4DwomhAx+kqk8fWk4MFQZor4KY7J2DWk3u8x0GE2AZhmEYhoEOqrVdg3uKiqrQj6YDnRjKr8A+JYTsRAoVeFju5G1OKvz+dtJP/3K/NSWnCjNFaBiGYRgvcVprdBiA1qjQ33O97yFsG2HZCNvFSqSGPc6Kp7DiqX0PN2GUVyHY9RwWROOdwkyAZRiGYRgvdbV6V8Jx0X6UGdJao0IPrChUcDJNR3GAEb93BwAqlsZKZo7yaA7MTBFOMK310R6CcQTM788wjJeCaLegRDhxVOhF730yBCn3lGyYZH7vDjpu+xeKz9y/57rubQDIdOtRGdOhMAHWBBmqUl4ul4/ySIwjMfT7G/p9GoZhHIuGqrVbbgykjOpfDQVdRynAKr/4GDrwqGx5vH6d37MdAJluOSpjOhRminCC2LZNU1MT3d3dQNRe5mAVboeaPQ893phYBzrfWmvK5TLd3d00NTWZ34dhGMc0LUO0VtFuwWpxT3scGY5Y2D5Zgp5oOjDM9URj1Bq/2wRYBjBr1iyAepB1MEopwjDEcRwsyyQXJ9pYzndTU1P992gYhnHMUhKhActCy736D6IRYvI/j7SS+H07o6FViyivjKyW0H4FbAeVaJr0MR0qE2BNICEEs2fPpr29nSA4+G6HSqXC5s2bWbBgAcmk6UY+0Q52vl3XNZkrwzCOqqgVTQyrVll9vISFfoQTw64tFNcyAAFCWGh0LcDy4SgtQw0Gdg8reBrkepC5XgCc5tkwDZIQJsCaBLZtj+mDWqmocFo8HieRSEz0sF7yzPk2DGOqC/O92MkMVmPbiNt0beff4QRfwWA3diJdD7BU6MNemSrlVwgL/eMe2I15fLXpwSFhrqd+ndM6PfrVTv0Q0DAMwzBeolSt+OdowkIf/j6ByJiOGfrowEOW8+haRfShelcAAoGqltDVIlYyffiDPwJ7Xle0djkc7MbbvRkAZ8b0CLBMBsswDMMwpiCto6k6NUpBTa01sjiI8j30Ie7004EX9RxUEu1XIZYcVu9K2DaqkkfEU5O6/koFPr3rvoawbGQpB0B8zjK8jhfwOl4gHOwCIXDaF8PWzZM2rsNlMliGYRiGMRUpCVpHwdA+dFBFVUsgg1FvPxAd+KAlKgxQXqXW4HlPkCbcBFrKSa3QDlB69n6Cnu34XVuQxX4AUktPAyDo2wVArG3BpI/rcE2rDNa2bdv45je/yeOPP84LL7zAkiVL+PnPf37Ax3R3d3Prrbdy3333sX37drLZLGeeeSbvf//7mTt37iSN3DAMwzAOjdYqyjIFIwMoVS1HfQIR6DCEg7QCHJoWtJPZqKcgFsISyGoxus2vYDVExTutWAIrNrnrUlXgU3zyXgBELIn2K9jpJmKzlwy7X3zuikkd15GYVgHWCy+8wL333svJJ5+MUmpMVbaffvpp1q9fz1/91V9x8sknMzAwwJe//GX++q//mp///Oe0tEz9WhqGYRjGS9BQBkuFI6YBZTkXXVbyoBksrTVB7y6kVyIxdwWyUkQ4Llg2spwHKbES6aNSjmFI6dn7UdUSdraVttdeR+Hx3xKfsxw73Yiw3XoD6sS8lYy+Im3qmVYB1tq1a7nooosAuP7663nqqacO+pjTTz+dX/3qVzjOnpd62mmnccEFF3DnnXdyzTXXTNh4DcMwDOOwKYXWEiGtYQGWCn1kuYAVS0SL0eWBywDJ4gBhvgetFDLfiw48hOMibBdZyqG1xk3NmIxXNCqtJMWnNgCQPeVC7GSGpjWX1m93GtsI+juw4inc1nnIavVoDfWQTKs1WIdTfLOhoWFYcAVRAdCWlpYxFwA1DMMwjMmmlQKlQauofc3Q9X41CpLcOFgOqrr/lmwq9PH7OxG2g+XGCQsD6NBHODGE7SAcByfdOBkvZ7+83ZtRlSJWPEVq6akjbndqJSric1cgpkH9qyHTZ6TjaMuWLfT19bF06dKjPRTDMAzDGJ1WaK2ieldqT9FNHQaAQggLYTtRKYf9LJkJC/3oSgErmcVKpFHVIlqpejbMTjVG04WTKMh1R8FjTWVz1GswsfDEUXdDpledjds6h8yJ503aGMfDtJoiHA9aaz7+8Y/T3t7Oa17zmiM+1ng2c65UKsP+b0wsc74nlznfk8ec68k1UedblooEfrS+SpWK2DoKPsJigdALCKtVVBiivSqqkB8RKGkZ4nfvAi2wvNpxpI5KPBylabbqpocp/eknuHNWkD3vSgAq26LlPva846iONq7meTRc/E4UUK1W8fyoh2y1WsEax89giD7XD9Y3eKxecgHWzTffzAMPPMA3vvENUqkj2+oZBAEbN24cp5HtsXXr1nE/prF/5nxPLnO+J48515NrvM+3qOSx852gQRYUOpEFwMp3YVXz6Hgu6iEYVAhzIbiJkY/PdUaPEz37HL1vXMc6JqFP5tFfYwFBx/Psvvt2wub5pLwyykmwqwxs2XLw42iFALZv347u3Pd1HblY7CBbMsfoJRVg3XHHHXzxi1/k3//93znnnHOO+Hiu67Js2bJxGFmkUqmwdetWFi1aZHoRTgJzvieXOd+Tx5zryTVR5zvMdRP2RFkrp21hfS2St8uCoBWr1uZGFvpwZy/B3mstlVYSv2MTtCSxktlxG9ORKD9+F5Wwikhk0NUSse7niXU/D0By0Wraloxt2U61WmH3lhdYsGABqabxXZy/adOmcTvWSybAWr9+PR/5yEf4h3/4B6644opxOaYQ4oizYKNJJpMTclxjdOZ8Ty5zviePOdeTa7zPt1+JEcSjrJQbc4mlUmgZgmMj3DRW7bbAixGP2bh7PXdYGADtYze2HFKV94kS5vuoPHs/AM3nXo7yyuT+9POokrywaDhuDbEx9oQdWr+VSIz/3/d4TQ/CSyTAevDBB3n/+9/PX//1X3Pdddcd7eEYhmEYxkFpFYIQIAQ6jNYdaRmADBF7VTMXlo2qlKCWwNJaE+Z7wbKPWnCltaL4xD2ExQHSq85h4N7vgQyJzVpCYsEJUYJi+ZlRNXqoN50+lkyrAKtSqXDvvVGl1127dlEsFlm3bh0AZ511Fi0tLVx99dV0dHSwfv16AF588UWuu+46Fi1axKWXXspjjz1WP15LSwsLFiyY9NdhGIZhGAcVhlFZAmHVq7nrMIyyWPaewMlKpJClQZRXwYonUZUisjyInTg6U4NaSQbv+xHlF/4MQPm5B6NxphppueDKepZICHFMBlZDplWA1dfXx3vf+95h1w1d/va3v83ZZ5+NUgq5V72Qxx9/nEKhQKFQ4Morrxz22De84Q188pOfnPiBG4ZhGMZ+KL86amsaLQMQFlg2SgZR8+fQB/SwquuWmyAoFwhLOdxYgrDYD1pPevmFIbkHfhoFV8LCnTGPoGc7wnFpvehq7NTRrbk1maZVgDVv3jyee+65A97ntttuG3b58ssv5/LLL5/IYRmGYRjGYVFeBb93J7H2BVhufNhtWkkQFsKy0FJGbXFkwGgVr6xYkjDfi1YB4cBurGTD5LyAfchKkdLzfwKg5RVXkVh4YhRgxZO4je1HZUxHy7QKsAzDMAzjWKL8CsqvRNN+ewVYUXFRGU0RWjaEAVpJlF8ddV2VFU8RFvtQXgk7mcFyx6fUwKEqb3oYlMSdMY/kotUAxNoXHpWxHG0vyUruhmEYhjEVKK+M9isgw+E3aAVK1TJYtabOMqwFWCNzI8KysJNZnFQjlju23XiHI/fQL+n/3XejgHAfWmvKtexVesVZEzaG6cJksAzDMAzjKNBaI8t5tJQjAhatVBRkidoidxnid29DyxBhj/7RPZGBFURrxYpP3gNEfQHTK84cdrvftYUw14NwYiSXnjKhY5kOTAbLMAzDMI4CHVSjxs21foPDKBUtVLesaLddthUdVFHV0lFbvB4M7K7/XHzid8P6CcpygcH7fwxAcskpEx7sTQcmwDIMwzCMo0B5VZQMsJxYbXfgHkNrsBgqaWBZ2KlG3Kb2/WawJoJWkjAXtaMJBzrr14f5Xqq1HoKyUqD3l18mHOzCSmbJnrx20sY3lZkAyzAMwzCOAuWXEQiw7HqdqzodZbAQR/djOv/wr+n60X9S2fIEQX+UwRK1khKFJ36H1prCY78lzPdip5toe827cLItR3PIU4YJsAzDMAxjEshKEVmrXK61RpbyCCeGsG1U4A27r1YSjR7X1i2HSmtN+cVHAChvfoygP8pgNZz6lwjHJejbRXXb05Q3RfdpevkVOA3j2xtwOjMBlmEYhmFMgjDfiywORBdUiA59hOMiLButwuHrsJSKsltHUdDfiSrnAfA6NhHUpgjjc5aRWnE2AAMbvo8OqtjZVuJzlh21sU5FJsAyDMMwjAmmtUZ55XqmSssQlIxKMFg2yOEBltYSrUcrKTp5vB0b6z/roIoOPLBsnMY2MieeF01t1taOpVedPay6vGECLMMwDMOYcFoG6MCv7RrUw3oKCsuO1lztXapBKY7i7CAA1Z3PAiCcPUVL3aZ2hGXjZJpILT01utKySS0742gMcUozAZZhGIZhTDAd+FGQJcNoelCGtTVWFtRa4ehaH92h+liTuVtwX7Jawu/ZDkDmpFfUr3eaZ9d/zp5yEU5jG9mTLjimmzYfLhNgGYZhGMYE06FfnxbUMkSroH6bEBYajVZRBkt7ZVSliBVPT974lCL/8Lp6H0Fv53OgNU7z7GEFRd2WPQGWk21h5l/9HxpOu3jSxjmdmEruhmEYhjHBdOiDEFFwJUN0GAxbxC6gPkUYlguo0MdON07a+Krbn6bw+N0gBPHZy+qBVnLh8dipBtwZ8wl6d7xk+woeDhNgGYZhGMYEU9Uywnaj3YJhraegvXfTZlEvLiqL/Vixya2EXnzq99EPWjN4/4/xd28GYdV3C7asfQvhYDfxmYsmdVzTmQmwDMMwDGOcqdBH2C5CCLRWSL+McFy0F00PRjvy9voItiyUX0WWC6hqaVKzV37PDvzurfXL3q7nAEgsPAEn0wSAk2nGyTRP2piOBWYNlmEYhmGMI+WV8XY9j9fxAmG+NwqmwqAecCmvGjVttvZksIRlo/xqtLBcWMNuG2+lZx+g8/v/jrd7CwDFp6PsVXLpaThNM+v3yxz3sgkbw0uBCbAMwzAMYxzJSiHKRFUKeJ0v4vd1RGuubCeq2u6XoxpYe+8StGxUeRBkUM8aTQStNYUn70GVcwz84YdUdz1PZfPjAGROeDmZ1ecD0W7B2KwlEzaOIyKDKPtnT1wQOh7MFKFhGIZxTNBDhTuP8hjCfB9WLImdyqJCnzDXgyBq2IzlgIx2ErLXWK14Cm07WG583MdU2f40xad+T2r5GcRa5yIL/QDIfC99v/kvQEe3zZiH2zoXy4nhts0/qm16DkQHHtqJIZzxP1fjyQRYhmEYxrSnZYjXvY1Y69xJXyC+N1UtR2uoUg0AWE4MkW2JGjdDrS2ORGsVBVw1QgjEOAdXWkkG7rmdytYnAAh6d5Jadno0rmQWVSmAVtgNM2hcc2l9HMnFJ43rOA6HVhLlV7ETI0tV6DBAx9NTNgAcYqYIDcMwjGlPh8GeWlNHQ1BFVYuE5UG0UsOm/4Rl1y8L2wEZTkqXwer2jVFwJSysZBYd+pSe/SMADWdcQmLhiYhYgpYL3jwhmbMjoSoFdOghK8Vh12ulonIXUzx7BSaDZRiGYRwDhmpLsXfD5Ml6bq2wCz34uxQinsCKJ/d/Z8uuBYFHFmJpJSk9+wCJuStwGttGvU9508MAZE78C+KzltK3/r+iG4RFcsHxUTZLq6M+rToaHQY4TTMJcz0oN4ZVa9ejAw/hxtHTIHoxGSzDMAxj2tMygNCPMhyTICwO4vd1RM8deAjpY8XTWMkMVjy138cJy0LJYNj6q8NRfv4hcg/8hIHf/3DU22WlSLXWrDm17HTi81biti0AID57KVY8FU1LTtHgSjguTmMbTvNMZDlfv00FVaxE+ojP32QwAZZhGIYx7WkZosIgapo8CWRpMCrBIAO0X42m/dx4tObqIGuD7GR21LVF+yo9/xBd//MZwnzfiNsqW6J1VX73thHTaACVzY+BVritc3GbZyGEoOlllxObvZTsKReN7UUeJSqoImJJrEQKJ9MStRIaykxKiZXMHt0BjpEJsAzDMIxpTwVeVCV9EqYItQyQ5TzaLyMrJVS1BIew4NpOpBGOe9D7lZ//E+FgV32qb4islvB2bx4aTdQ3cO/xaUX5hT8DkFp+Rv36WOsc2i65lvisxWMe69GgfA873YQQFlY8EU0JBn4ts+UgDpAhnEpMgGUYhmFMe9qvglKHtAZLa43yyof8XMqroP0qWgtkORftxrMPHjAdqqHMld+zfdj11e3PDMvUDU0FDik+cQ9BfwfYDsklp4z7uCZSVGpD1DN8wnaxExlUUI3aC8VSiKO4S/RQTINlYoZhGIaxf1prVOgBoA5hF6HyygR9O4m1LzqkXXSyWkJrjZ1IIUt5dOihxznAUrVdiRAFWForhIhyIpVtTwIQn78Kb8ezVHc9j7d7C9UdzwBQfGoDAE3nXDamqcipRHmV2vTgnnFbqQzkelBSEmueiRbTIzc0PUZZs23bNm644QYuvfRSjj/+eF772teO6XFaa772ta9xwQUXcNJJJ/HGN76Rxx57bGIHaxiGYUwOGYKUCNuFMBjzw7RfRZULh5TF0lojSzksN4ZwE2i/gg7DcV90LfP9w8YZDvYAoPwK3q4XAGg849VYiTQ6qNL7yy9TfPJeik/eC1qTWnEm6RVnjeuYJoPyqzjZ1mFlLqxYEiwLYVnYicxRHN2hmVYB1gsvvMC9997LwoULWbp06Zgf9/Wvf50vfOELvP3tb+erX/0qbW1tXHPNNezYsWMCR2sYhmFMBi0DUCHCjR1SHSzplZFeeUwBltYaWSkiC/1or4yIJWqV2e0xrac6VGFh+ML2oWnC4jP3gZI4zbNwm2eRmH9c/T6JRaujwOqEl9O05rJxH9NEU6GP5bg4+zS6tmJJhJtAxBJYiemx/gqm2RTh2rVrueiiaPfD9ddfz1NPPXXQx3iex1e/+lWuueYa3v72twNw+umn86pXvYpvfvObfOQjH5nAERuGYRgTTcswap7sJtBqbAGW1hpVKSCEFU3ztcwZsfsvGNiNncxGWSKvjNf5YrTDDYFdq8vkZJoIq1Vg5E6/I7HvzkG/exvJhSdQfDKa/suevBaAzEkXoMOA1LLThgVb05GqlnAyzSMWsQvbwU5la1msqV+eYci0CrAs69ATbo888gjFYpFLLrmkfl0sFuOVr3wl69evH8/hGYZhGEeBrk0LCsva04bmIOt0dOChAy+qcO5X0LXSAEOUXyEY6AIhsBJpVOChgipuw4wJfS1DhjJYTvNswoFO/O5tFJ64Bx1UcZpn1dvZuI3ttLziqkkZ00RSXtQA2860jFrmwm2ZfRRGdWSm1RTh4di8OdrKumTJ8K7gS5cupaOjg2q1ejSGZRiGYYwTLQM0gLDGvJNQBx469LESKVToo7zKsNtluYCqFJGlqMil8sqISWlwU3v+WgYrtfRUAMLBLopP3gNAw2kXHzSAnC601rV6YhK3bQF2umHU+1lufMq18zmYaZXBOhz5fJ5YLEY8PvwX09DQgNaaXC5HInF4Wz611pTLh77Fd38qlcqw/xsTy5zvyWXO9+R5qZ3roJBD+gGW5aN8D10sHrRxcpgfIPQ87JiP9EPkYB+uHX0WaKXwe3ahg4AgP4DM5vAHekCq2nTgcJ7nDfv/uLymfG/0Q9Ns7MY2ZK4HLJvEsjOhfcm0Tg5orUDXqtpXiyAs3JZ5hPEUYfXg53Ai/7611uPWRPqYD7AmUhAEbNy48eB3PERbt24d92Ma+2fO9+Qy53vyvFTOtT24CxFU0U4cEVQJiwoO0gzYGuzE8kvoeD567O5uZEsOhED4ZeyBnWg3iQg6kf1l7GIP2nLA7t3vMTs6Og5t4EqS2vgbsGzKq165p1ipkmRLOQSwa6AIi8/DLvcTNs4m78RhuvxetQYZgO1E2cUaUS2CltHvKPSQjbPRpW2HfPiJ+vuOxWLjcpxjPsBqaGjA9308zxuWxcrn8wghaGxsPMCjD8x1XZYtWzYewwSiaHzr1q0sWrSIZPIAzUKNcWHO9+Qy53vyvJTOtVYSf6eKAiMnjioPEpu7fFgdpRGPkSH+rugxViyJlgHKKxObswgrniLo24XMgJ1pISz04TS0IfM2VqZp1Kk5z/Po6Ohgzpw5I2ZLDqSy8Q+U87sBmN+cwmmeBYDM9zKIBifGwhXHj1tGZTKpagntVyCWAL9a2wGYQSuJKuWwG9uRxX6sRAZ35qJDWrw+kX/fmzZtGrdjHfMB1tDaqy1btrBq1ar69Zs3b2bOnDmHPT0IIIQglRr/LaPJZHJCjmuMzpzvyWXO9+R5KZxr5ZURjoWVyCBshzCskIjHsA/wumUpB5aO2rFYFpAgCD0StsCOx0BWcTON2IkEYZjCdi3CWAw3eeBzGY/Hx/yZIqsl+p/esOeKvu0kZi8CoNoTFRh1si3TMkDWSiH9IrEFK7HTTchKnqB3F+gQkIimGSTmLYt+d7YT1bk6DBPx9z2eweyxsUruAE477TQymQy/+tWv6tcFQcBvfvMbzjvvvKM4MsMwDONIqcBDSVkvTKnR0RqfA4gqsVMLriLCspCVQj3zYtXasQgnhqqWEfb4lgcoPHZX1N6ntnDe63yxflt9B2G2dVyfc7wcrN+jDj2Em8DJtmLFEriN7cTa5qMDDxX4uI0zEJYdlcA4zOBqOphWGaxKpcK9994LwK5duygWi6xbtw6As846i5aWFq6++mo6OjrqJRji8TjXXnstN998My0tLaxYsYLbb7+dwcFB/vZv//aovRbDMAzjyOnQj9b61AhNtJNwf/fXClkaxHKHr7MRbhxZKYBlRQuda1NWlhsnyHXjpJvGb8xaU970CAANp/0l+Ud+jbd7SxS4CIvK1qgVjtPUPm7POV60DAkGu3GyzfsNjnTgYaUahhVgtbMtONUSslLASo2+U/BYM60CrL6+Pt773vcOu27o8re//W3OPvtslFJIOTy6fsc73oHWmv/6r/+iv7+f4447jm9+85vMnz9/0sZuGIZhjD9VKQ1rq6LFgTMs2qtEGar48DVaViyBLOWQQmC5e6b5hO3gZGcccbV2FXh4HS+QmLsSWc5H65Msm8yJ51F4agParxD07SIs9OPv3gy2Q3rl2Uf0nBNByxA7kUb51f0GWCoMcfcJooSwiLXOiR43zcotHK5pFWDNmzeP55577oD3ue2220ZcJ4Tg2muv5dprr52ooRmGYRiTTGuF9ErDgh+BgANMEUqvhA4DRHp4wCQsG5RCexXsfVu1uEe2q0xWS/T9+usEfR1kT30lTmOUmXJbZiMcl/isJVS3P0150yNUtz8NQPakV+BkW47oeSdCVDE/hqqURr9dKURt88C+hO1iJ8e/rdBUdcyvwTIMwzCOTTrwQIbDs0tCoPbT8FlWCoT5/v1mo4TrglZH3I5FeWVUENVzkuUCvb/8CkFfVMKhuuNZgr5dALitcwGIz45665Y23o8s5bAzLWRXX3BEY5gwKgTbxXJjqMAfcXO0/ip+TK+tGqtplcEyDMMwjCE68NFhgJXM7rlSWLBPw2dVLRHke5H5XrRU2JnRy/PYqcMv21N/Lq9M1/98Bh14NJxxCcVn7kPme7ESGVS1SNC3s37fWC3ASsw/jtyffwlKEZ+7gsYzLpmQBtLjQUuJk8yiiM4r+2T3Rlt/9VJlAizDMAxjWlKhN6LytrCsem9CrRVB/27CwS5U4GOnstgTvP6n9PxDqEoBgNwDPwHAzjQz41V/R99vvkmY7yXo3QGAO2MeAE5DK7Ou+CBYNnYyM6HjOxRaSdB62Bo30FiOi8g0ExYHGMr1aa1QlUK0Rit95IHqscBMERqGYRhThgo89D4ZqH1pGRLmewkHe0aWTxAWWoVoGeD37MDv3YGwXdzGGRO+uForRWnjHwGIz1kOQuA0zGDGq9+F09AaXTfEsnFrhUUB7HTjlAquAGRpkLA4gN5rV6aGaIownsJy3Po0oSwOIJw48dnLpmx5iclmMliGYRjGlBH07cJKpHGbZu7/PoNd+D07sNzYiGk9YVloJanu2oQq53DSTZM2XRV0voAs9iNiSVouuhrte1jxZD0DFJ+zjNKzUQDmNs/cJzM0tQztxLRTDchyDifTjFYSYVlRBiuewm6YQdDfCYk0wnaJzVyEfYAK+i81JoNlGIZhTAlaSWSlhKwU938fGRAW+rHiKexU47BioQDYDqqcR3ll7Gzr5K0FCj0qT90DQHrFmVhODDuVHRZERYvZo+lMt3Xe5IzrMCmvgoilalk2jQr8aAeh5YDjIoTAbWrHiiWR5TxOU7sJrvZhAizDMAxjStB+FaQfVVOvTROqcPhONVkuorzyfnepWU4Mp2kmTqZpZPA1QcL+DjJP/JSwbxfCdkkf97LRxxZP4c6IFrbHZkzxAMuv4mSbsTPNOI3tyEo++p04bj1otGJJ3JbZ2NlW3MapVxT1aJu6+UnDMAzjJUUFPioMEFqh/CrCdvB7tuG2zK2vT5LFAYSwDhg8TXRzZFktUXh0PYl5K3GaZpL/3bexvDJWppnWtW85YP2qpnPeQGXrE6SWnT6hYzwUWuto91+tPVCUqbKwkw0IIXCyLYS5brRfxc42D2t47TS24WSbEbbZNbgvE2BNQUppqn5IImZ+PYZhvHQovxIFR0qiAw/tVwjz/ViJDHYyg/IqyHIO6yhPRRUeXU9p4/2UNt6PlcigvTIy3Urzq64l1tB0wMfG2uYTa5vcLiL77rTc9zZZHAQd7Ri04smo2no8hZWIGilbiTR2qpGgvxM3NmfY44UQYIKrUZkpwimoVA3Y1pnHCw7cUNMwDONYoqqlKBMibGS1SJDvA60I8/3oMCDI96AC76i2WlFBlfKmh/cacxGRzFJeeWE9AzSVKL9KmOshyPeivMqw27RSyMIAIhbHyjSjw6g4qg487HRjveCqEFatcXMScYRV7V9KTIpkCtIa8vkSPbrIrNYMdqZpWErWMAzjWKNlEGWwnBgoGdVU8qvY2RZkOU8w0Ek42DUuxUAPh6wUQQgqW55ABx5OYxsNZ7ya8ouPED/u5eQGq0dlXAejvHK0I9N1Cfs6EbaDcFyUV0ZWS9jpRmIz5qO8El5xAEtrNHpEr0Y73RAFXSZbNWYmwJqCnniuAwY6iadCUsUG0jNmRVt6YwnQGh34CDc2ajuHoa21R9rqwTAMYzKpwEeHHlaqMZoi9CooKXGdGMqyCYuDgDjivoBjpbUGoikw5ZXp/vFnonVhTvT86eNeRnLhCSQXnkC1WoXBLZMyrkOhtUZrFdXYyrZAGBLkuuvNmmPti3AbZ0SL1pVECIEOfSzbxYoPz8YJ2yXWtsBksA6BCbCmmP5CyM0/e4GGOLznlW0MBjHs/t3Rws5YIgqgwgARS+A0tCJsF2HZCNtBBT7BYBdaBtjJLHYyg3BiKL+KqhRwW+dOyRS2YRgvPVpJVKUYtVURAu1X0bLWB1BYSH8AOxW1wLGTWWQ5j51umrTx5R78KeXnH6Lttdfh9+6M2sIAupZlSy07bdLGcrh06GE5MaxEOiqr0DwTWRpEVorE2hcSa9lT6FTEEgg7hqoUsJJZhDvys8KKm/6Ch8IEWFNMQ8qmOeMyUAx4ZneAbVv4Kk5WC7yBQWzHJpFMEpcVZHlrbeGiBssCpcGyEY5LmOshHOgCEXWWH/o2Fpu5CB0GaCVNzRLDMCbU3lmgfalKEa9nO7HWedjJDEGup779fygYGCJs54A788ZbmO+jtPF+0JrCk/fWg6vk0iioSsxbOSWbGSu/ApaNVcuyab+KlWyof7G24imc5tno0Bt2fgEsN46IJZDlPG7r3AnfiflSYAKsKcaxBZecOYvv/W4Hv3umwJplWUrVkEJZY1kOytNQLBNzbBLxGK5tYdsWjq1xbAvHslESAmXh2BaJmA1CEIYhaqALDahy1Ccr1r4QJ9t8wB0mhmEYhyvo70AHXpQ932dhugo8ZCmHr8FOZVClQewp0mKl+PTvo8WwQGXL4/Wfs6esnbL1nrTW9QKtola9XofhiMbWe2et9mWnGpClwRHrr4zDYwKsKeichl3sSG/muUorP3s4wSWnNpOKWWgNliXQWuOHiko1pKR1bZ5dowGBiHpFEf2Di8dstAapNAkBmcIO0o2NuJbG27kJN92IpX2cdFNUsVcIdOAh3LhZx2UYU5jWmqC/E6dxRj1jMd7HV9UiViJzWF/AwuJgFGBJifIqI9qoqGoRK5ZA+2UCr1TbtTZ5m3mCwS4G//AjrFSWlgveXH+/k5Ui5ecfAsBKZFDVKGhxmmdP2eAKiNZOuXHsdBPBYBcgsGIJ7MTY+xta8SR2MmuWkowTE2BNMVZ5APX7W7kiDsRh4+7ZfOb/ncugTmELWDUnyYnzUyxuj9OWdUa88Wmto+7nIgq0/EAhLIEtBF4g6PZtrF4fx7HQXgWbPJl0kkRvP+5gjrilsZWPiKdwG9tqu0bMn4lhTDVaBshKPirAOREBll/F791JrHUudqrhkB6rAg+/bxdCWNgNzchCP+HAbqxZixEi6hUoqyWEE4vW9Sg1qe8zle1PM3DP7ehalfj8I7+h8YxLACg+8Tu0DHBnzCNz/LkMbPgBAMnFJ03a+A6HDjxELBnV2LIdLDeGlchgxVNjPoadzKAb26INVcYRm/RPTq01DzzwAL7vc/rpp5PJTK3u4UebSjSSOO01lF74M6LYy3FuJ/+34Sd0qUZ87eAPOvgDDltxeF47SOFALEU8naEtLWi1C6T7n8cJigy0n45ccAaNlR1YyTSptqWkEgIpNaFS2JksYSjpq0q01Nj9HTgxh1QmjSN7sTt3k25uITtjr29tloWwozdF4bijlo+Q5QKgD/lN2TCONlkuYCUPL2Mz6aREB0G9pcx4U4GHKucI3ThWMoss5aKdZweYYqoPrZRDVwrYDTMQQmCnGggL/TgNM7DTjejAhzDAiqei9xD7yDJXWmsGNvwAVS3SetHbDxiseZ0v0v/b20ArnOZZhAO7KT7xO2Iz5iPcWDQ9CGRPuYjE3BXkH16HrBRJTfEASwU+seZZCNshfpiFTIXt4jZN3SzddDOhAdZNN93EI488wm233QZE/wiuueYaHnjgAbTWzJkzh1tvvZUFCxZM5DCmF8ui4azXELYupae/RNMLvyCV381iq/fAjyvX/tvLjK4HoevB+uUXxSK2z3oFJyyfyYxsVMvEsR0ScQeIo3SKIFAUqgqlYyhlEdvZR7yzJ5pudG0yqRiOI1DCJZGM4yRTOOnm6EPJcZHFHH73VrBdEvNWHPLUhfKrUQkKU/fLmGQq8AgGdhOz5yGmwW4prUIIvcMKsLSS9X5++wtGdOihpUQWBwiTGYK+zmhdT/PMYQGoHqq6LmU9OJWlQYQTq99vqOFykOvGSmVRQRUlA+xxasRc3bGRyouPAOB3b6s1VR4pzPfSd3cUXCUXnUTzBVeSe+AnlJ59gP67vw21acL0qnNILjgegBmveTfar+I0to3LWCeC1ioKZA8hW2VMvAkNsH79619z4YUX1i+vW7eOP/7xj7zvfe9j1apV3HDDDdx8883853/+50QOY1rKpmIMqBSVM95GorwbggrIoP6fCgIC30MGPn65hCwXKIY2A0GcnfZcYrbFy8P7yYgKnWEjbXaBpWxlaed/070zy2/8JTykjmdlu83xMy1mzZtDc8YhHrOJx4bWXsXwgwReKEFAKVQMlAQWoMIqSbdKS7qEI7pxEwncmAthAAJ0tUiY7yPWMnvMr1lWCnjd23Ab2823KGPyKYmWQRS4TANahigZoANvTPePvrzEo7pOlSLe7s1gO7hNM0f996YqJYQbR8uQcLAbVS1FLWpqDX8hCq68zhdRlQIIi/jspVFpmGppxDSTnWpAFgeQhYERDZyPhNaawiO/qV/2Ol8cNcBSoU/fb7+N9sq4M+bTfN4bEZZN41mvQ2tN+YU/g5I4zbNoPOu19cc5meZxG+uR0lpHZSJiyeFB7tC62WnwxeClZEIDrK6uLhYuXFi/vH79epYtW8a1114LwJVXXsntt98+kUOYtmKuRXM2QVd/iUpsJlbCwhKCmGMRj9lYwNCenKHvLK3AQuCUoYOos1F+hSY7RXfnTjIv/IZstZN2u8Crko/zSv0EdknDZnj02YV8Rf0FZyxvZs3yLA1Juz6OmLsnmyTl0GJ6l7IXsj0nsS0LJ18mm7DJZBJkshksu0o40IWwbZTvYcdTo67n8gd2o6slrFSWYKAbVc4RaI2daZqQhbuGsT9ayigbpNTRHsrYKAlSocYQYGkZ4PfswG2ZhZ3MomWIDj2EVgSDXVFNvb02tWitkH45ykI5LqpSxMm2oKpFdOjXM1KyXECWBrGTDchynrDQj51qQAUeTjI7bAxRBfE4fs92RCyJNU4Vwavbnibo76hf9nZvHvV+uQd+Gq0DS2Zoveht9dcgHJfmc/+KhlMvorp9I4kFJ9Rvm2pkaRCUwgJEPIWsFKPSDEriNM8075lTzIQGWI7j4PvRNxWtNX/84x+57LLL6re3trYyMDAwkUOY1mY0JUjEbIJQ4QWSQNZ2Duaj+li2JbAE2MLCcaPLw1g2JDLEgVkLFsCC/40OKvidL2C/eB9OuReFAA2nxraxSPaweVM7Dz6fxY4l0G1LOPH4xcxs3PNmY9t7niObctHaQSkIpUN/NaS/6hHPSWKOTVjoI9UzQHNDEscW2MkssfaF9Z1EYb6XoGcHADrfi0DgNLUj832E+f4xrfXYl1YS5VdNjS/jkGklQQb1bghTnZbhnum5g5RaUV4FVS2hwyg7p1WIJvo3KUs5VLVcL+oJ1NdIiVgiKlRZq0GllESFQb2JrSwOgBYIx8VKppHFAbSSUfHjUcZjJzOExQF0OX9Ii68PdA7yD68DILnoJCpbn8Dv2Y4Og6geYHGA4hP3EAx24e/eDAiaz79y1HY7dqqR9Ko1RzymiSIrRYRlY6WbkMUBrHgK5VeIzZgXnf8pWJfrpW5CA6zly5fz05/+lNe97nWsX7+ewcFBzj///PrtHR0dNDdPnfTrlCGsqN9TtURjZvi3QM+XFKsBVS8kCBShUkilqJZDlKZWFyt6Y1NKEyqN61gkXBvLEuAmcRecBPNXo0r9kGyAfBf6kf9Hc7XA6fbW+nOFfQ9zx7o1PKGWMCMesGpxG2tPaCQR25PREkJg22Db0dSiUhovkFT8ECvRSI8vKZdcGtMO8cFBHC8kOWsBVlgl7OtAOLFoF9TeLz+eIsx142Sahm0XVl4FBAd8I5GFfoJcD/E5y8y3OePQ1IKHqTxFqPwqCIHlxlGhH+0WlmGUzTrAwm7lV1BeCa2C6HLgI4SFsOyo4W+1uE+A5aHDAGufLBQatIy+NCuvEtVMSkaBkuUmCMoFqBQPuM3fTjeNOoV4OAqP302Y68ZKZmg693K8rs2oShG/dwdWLEnvb76JKufr98+eehGJOcuP+Hkn21AbofisJSAswnxv9PtxXOxMs/lCOUVNaIB13XXX8c53vpM1a6JvBaeddlr9Z4B7772X1atXT+QQpiURTxGbuQi/dydhvhc701xP3w9fIxUJpaLqhVT9kEI5IAgkwisQj8fJZjOUKgH5slerlSdwbYt43MZJt0TfMpvnoc9/F7pvGxS6CUt5/IFuMqUdvDlzP2/Sf8QSmi3bZ/Ct509nq55JKmbzytWNnLUsg7XXN1XLEiTje/6sEnGHSjVkd18FgYXTsxvR0UfcCsk0NJBqSBFXelj2zYqnouxWfwex9oXowCfIdSML/Yh4isTc5aMugtdaEeT7om/k5QJWQytaK0BMj11hxlGlVYiWwZSeIgz6OxBugljrnNq6m1ht7Vh4wJ1zspSLMl5BbUYhqCLs6H3EcuPI4mBt8Xr070qFXn3h9N6EZaH8aEoyLOfQgT9st7CdSBOWcgdcQymEGPGl6nAEg10UnvgdAI1nX4oVTxGftYTKlicoPPE7/K5t6KCK0zST7OoLcJrbic04vN11R5PWClXO4bTOwc621utdhaVB7HSTaV8zhU1ogHXuuefy4x//mPvuu4+GhgZe/epX12/L5XKcccYZwxbBGxEhBE62BSuWwO/bRZjvq73x1dpOxJLoMIC9vmknECQsQUtrkrBSxEq2g1/BitnIpjjVUhmFRYBFoRxS9SQlqdCA61jEXBe3fTli5gocwNEa/fy9iE2/xxLR8y52enlX5td0hE085C/hd3+azz0bWzljSYaTFqRGrctlCUE66QIuSml0cgahV6FMmlxeYRfzxB2LVNIlFXdJxG0SMRsn00ww2A3CRpYGUX4lSomX86hKcdQSEKpSQlUKCMsmyPVgpxvxe3agZYjT2IadbjC7E4390lKCUqgwONpDGZUOg6iMRCKawtSBj3Di0cL8A+wkVIEXZYycGKo2nagCD6zo7d+KJaLslldB1DIhqloetdCwsB20V47qWBX6EftUZ7fiKdxYYsL/nYXFQfrW3wpKEp+/ql6jKjZrKZUtT+DtfK52eQmtF1591IOQaDo3xBqlv9+o91cKWc5H2VSlsGuFoIUQCDeOlcoi+6N1ceY9beqa8DpYy5YtY9myZSOub2xs5MMf/vBEP/20NvSNzEo1ggyw3ATSK0eLSlMN2JlGhKi9CWoV3VYYwMk0EW9fSFjOEfTuQGhIxWOgNTqs0NScJLTT+KHC80KKlYCqJymG0dqpVNLBEgK98gL0ojNqcZ1Gv/B7rB2PMccZ5FLnES5NPUJVu8gtgr4XszzALFKt7Sxf1E5q9pIRUxaWJcAS2E66vkBfSo0XSgbyHr26gmPZNGVizGhKYsXTVHt34iYzuLUt0qFfJSwOjBpghaVB0NGbkSzn8Xt3EOS6EcJClgeJtS3EbWpHyyBaB2KP/U1Xa13/5rjf+8gAv393VItmii6SNfZPh17t/+O3w208Ka+MDjyUZaFCP1rrZDtRtmmfAGuoB2D0uEr0txtPof1qtAtQyj19/xwXXQqQ5TwinkKHfj0g29dQU3lVKaKqpVH/HU7UB34wsJu+9f8dLbr3oxpddraF5nP/qv7FLj5nz+7B9HEvo/Gs106JQsmylIt+X43x/WbTlVdBVotA1F/WTjfhZJrQMowyVXv9PpxUI6pSMlODU9yE/uUVi0UKhQKzZ+/Zqt/V1cX3v/99fN/n4osv5qSTDq1424svvsjHP/5xHn30UdLpNJdeein/+I//SCx24PU2AwMD3HTTTWzYsIHBwUHmzZvHVVddxZVXXnlYr22yCMsmtle63aEV3Tpn1G+XDqCaZyGsaA2XG0tguYloYWQ8gdaasNBP0LMDV0titkM6IWmyQ8K0jWel6c1VGCx4xF2bRNzBju9J5YvVr0avegW64xnE7mehbysJorIMaauPBfRB7ml4HLoen8FDLa9h8fxWls9M4Lijt92xbUHKdupbIoNQ0ZevUKj4CAGCOM3CosGWxFwLK5GOqkKnGtAyQFVLKK8STV14UZZL2A5oRTjYHbV9cOPIaomgvzNqKpvvJRzoQjXMHHVMo5GlQcLBbuKzl0Tr40ahqmVkrofAcYk1H/oCfePo0mEYtYqaohks6ZXRMkCEDtqLdo7huggYls0O832EA731/nnKixoVC9uJSjsEVVByWPbJSqTxe3agZBD9HVcKozZXFraL9sqExX70BFRfr+7YSPHpP9C45vW4TXv+feowoP93340W1dfYmRZmXHLtsAXrbmM7zee9CRFL1OtYHW1aRWVuLDfKNo4WuA6tg3Nb52G5LlqD29Cy3/caK9WAK0OEqXs1pU1ogHXDDTewc+dO7rjjDiAKuN74xjeye/duLMvi29/+Nt/4xjc4++yzx3S8XC7H1VdfzaJFi7j55pvp6urik5/8JNVqlRtuuOGAj33ve9/L5s2bef/738/s2bPZsGEDH/nIR7Btm7/5m7854tc6mQ7UI3DvDIsQAifTtOcy4DbNxLJsgsEutNIIJ4abbcUq9OMGRdIzG8lXQgbyVQrl6Jt83LWjRtK2QLhJWHg6euHpEProagG0JBzYTX7XFvL9g8xUu5lp9XJR33ex+xQSm43N5zD/tHPJJA/wJxd4uNU8TZkZ+EG0DkZqTUdvid5cFdexcBwLCr0k+otkEhaJRDx609d7pk8B7EwzWsn6tz47kSbI9eL37oy2OiMIc10gx7ZjTBYHCIsDOOUiTnb0jRmyWkJWS5DriaZ4zSL7aSPKUHrR35IKp1wDdK01spTDikfLA6IF6yGWbQNi2LSmLOeQxT5EqNChT1joR9S+aOnAQ/mVKONl73kfseIpsGyC3g6EbeFkW0fvC2jbUZBWLY17vzqtJIP3/xhZGmTgnttpe/3fIywbWSmS//OvCAe7osXs57wBWRokufikUXcDppadNq7jOhxaq9oXvmT0BTCejloEBV69rZFWirDQh+VE7192qpFYy8z9BlV7s9w41iHUGDSOjgkNsB5++GHe+MY31i//5Cc/obu7m+9///ssW7aMt7/97Xz5y18ec4D1/e9/n1KpxC233EJTUxMAUko++tGPcu211zJz5ugZiZ6eHh588EFuvPFGLr/8cgDOOeccnnzySX7xi19MuwDrSAghovVIDTNAq2jHohDIbEv0DbbUT3OygQbHplwJKco4pWqI50sKoSQdd4nHa2/MTgwyrdGP2XZaFpxEs9b0dvUgnvp/pLw+AFwUJwxu4PlfP899zhoaGhtYKbayRG4hWe6EtiXo9hWI536H8EuoVRcSX/qy+piTMZtAaoJQEgQKYWfJl0MGghhJ3yaVsEglHFIJd0/laMseEYg66UbCXE/UnyuRRvXswqpUa1NC+/8mGO2WykXTsMX+UQMsrVWtHlAGVS0hi4NYpljq9KFVlJFx3CjoPsiuvGEPlcGYPhQPa1i1qWmUjApMuklUEKC8KigNwgLLQgfV2lhCZKUYraeq+IT5XpxqKfr3jo7WAvlVNHrEVJ7lxhGNMw4YWA6tBVVeBTs9Mrg51NdW2fwYhcd/S3LRSVGJltIgEC3mH/j9D5HFfvyurfXHNP/FG0nMW3lEzzsZVKUUvV8UBtBaE2tfAFoR9O6E2s5MVS1iJ7NgWeBXcVtmT9jfkXF0TGiANTAwMCzoufvuuzn99NM55ZRTALjsssu45ZZbxny8DRs2cM4559SDK4BLLrmEf/3Xf+W+++6rB0/7Cmu1X7LZ4VuOM5kM5XJ5tIcc84QQIPYEIHYiTWL2UvyBTmSuF8txyWTSpP0KYkYzYajIFT36clXKhQA0uK5NOjF8YbsQgrZZ7dD2d6hcJ8pN0fH8s8zefS8r3N2s4E5UDoaV7Op6HtH1fP2i9exvUcKCJWvqx4w5UZHViEsa6uUg8mUPy7JIxm0SroPrWji2RSJmk0rsecMSjovTtKfNh53MYu3chb/reZzqzL06yQ9fmxWWcqjAq6/tUtVStM3ddupb27VfRfvVKBMgLIK+juj2TPOUyoQYoxsqdSBstxZsyTFNf0VTzx3E2xdNyLo7Vc7jdW+LpsBDHyeZRVhRs+QoSBIIy6nv7FNeBR14WOlGrO7NyFwvscxQb0WBRkdToHr05xvb36qIMnwHyKQPew2BR5jvxW2ZUz++VpL+e75HdeuTABQeu6s+3RVrX4TfvbXe+gbAaZ5N5oRzp0VwpZVCBVVibfOj7GEY7bTUoY+mtj5OK1Tok2ibj51pjtoWJUxf3mPNhAZYDQ0N9PZGPfSq1SoPP/ww73znO+u327ZNtVod8/E2b97MX/3VX414jra2NjZvHr16L8Ds2bN5+ctfzle+8hUWL17MrFmz2LBhA/fddx+f/vSnD/FVHbuE4xKbMR/dMCPaceRX8DpeRBf7sbSmJWaTmZ0llJpQKvpzFQYKHumEO6J0BLYDLfOxgHmnnwul4/A2/o541zNYAnrsmTxYms9mv5VXJJ7mOLeDDd5xxOMu54rHsDauRwkBi/ef3Yy7NnHXBlyk1FT9kKrnIbWu906cMyNDQzqGHyoEYFuCoc8Q4cbRiSwIQTjYHS0mzTQTn72kPr2nAg9Z6MOKJbDcOEE5j9+3E1nMIeJJEnOWYcWS0QJk6SOcRmzHRZbzeJ0v4s6YS6xlzoT8voxxpBRohXBj0ULwMRYbVdUSqpRDeWVs58gyOqMeP6hG03HxFHY8HQVUjjtsnZiw7VqLH4nyy2ilsOIZhJKgwhFfGI50+tPea9nBgWilKD37AIXH1qOqJdLHv5zGs1+HEILK5sei4Mqyic9ZjrfzWbRXRtguLRddTf7hdVR3bCS17Awyx51zxNmyyaSqBexUA27TTOxklrCcizYY2A6WE4s2EXgV7GRDvQSPvW+9MeOYMKEB1qmnnsr3vvc9lixZwu9//3s8zxtWlmHr1q37ndYbTT6fp6Fh5K6VxsZGcrncAR9788038773vY/XvOY1QBTc/fM//zMXX3zxmJ9/X1rrcc2AVSqVYf8/qqQP2MhsO7LYj5XIRFWaiz246SZitoXbHGcgr+kvVhgsalzbwrUtYqMtaHcysPp1VJafDwgyiSx/EWqad1b47Zb5fLOnisaCsqaYlFycfBLrmd/Q2dFFdvYCYoSIsIpsX4lOjv5m61jgBEVwk2DZlKo+m3f1kYg5+EH0genYFi3ZOA3pGFXPI1QQYEcLUG2F19+Fr4jqzfgVwsGu6M0w04SoVlHY+H09WMkMKj+ArzbjNM9E5rqRgSQc+sJgxVChxOvcRkzbIws2HmNUOQ+WHfWq248p9fe9D1Ut4lfKWMJFVcqoUhFrDDGW39+FzA8QpPpwxfhnsIKBXqTU2MKJsk7VKiqU0drH0EdWq+gwRHllZF8XstCHkorQ81DxDKGbGvYlVvoBYbmICsI9f6uHP7oD3lp+bD2VZ35fv1x65g8oBMmTLyL/xD0AJFdfQPL48+DBO/E2P0p82ekE2CRPfw3J019Tf5bgiMc6cXTg4dU6llQrZWRYwZ3ZTsXzAQdSrVQqFbTW+FqgencjEincxkYq1bH1kTSGm8j3kvFcfzmhAdYHPvABrrnmGv7+7/8egP/1v/4Xy5dHVXSllKxbt46/+Iu/mMghANEJ+9CHPsTWrVv5zGc+Q1tbG/fffz+f+MQnaGxsrAddhyoIAjZu3DjOo40Cz6nHg9DDzvdiBTtQdjxagyUEOtB41ZCiBD/QhEqRjNl7r6EdRVRdeVYcXrcKguVQ9hWPdQh+2XEKFppXJp9i9uDjMPh4/VF60/1snHEeLWkLR1appGeha+sWGvqeY8buhwhiDXQuvJAwlsYPNFJpHEcggFBqtkpNMmYjlUYp6CtsIxW3SMUtbC0RO3dF6yKUAsdFOwnoy+8z/sFoSmnHjqiekArRsRTYw1s/iWoBvbsH2TA7OuZkUQoRlNGxNBzhm4Wo5qNzsL9F+1phD+xEx9Ko2pq8A5mKf9/CK2IP7kIncohqHlnQ6PhBtsDLAGdgByL0Uf1FZHN/dK61xir0AAodz6LdRNS2am+19Y8jaI3wy+ha1snp2x7N5rn9e+6jFMIrRmuv4tEXS+GXYVfUj08Lu/5vs6OjY9jhhVeK/g416Fg/BzRU6uFAfz9aYRf7sKp5VCKLzEbrDq3yIOmNf0AA1YVnoIVNcuuDVJ75PYVdm3FyXWjLoSs2E7ZuhfaTsVNzyKdbYcuWA49rKlES4ZeicxXPsnvri+h4Cul1gtU14u6ikkNIHxUkoNIJdE7+mI8hE/VecrCqBGM1oQHWwoULWbduHS+++CKZTIZ58+bVb6tUKvzLv/wLq1atGvPxGhoaKBQKI67P5XI0Nu4/hXzPPfewbt06fvrTn7JyZTSHf/bZZ9PX18cnP/nJww6wXNcdtcbX4apUKmzdupVFixaRTE7N6rw68AiL/ch8b7TmyI3X1nQosB18K0F/UZIv+yiliTl7mkbbYwgwjlsC5/b5vNh1HvcPtpMqbicr8/jaodEqM8cZ5OSe9dBTG4/loloWgLCxe6J1XDE/z/ztd6GTjVjlQWTrIuTck1GNc0GIqLWQL1EypH+gj0y2CSwHkXBozMRJuuA6AttxD/pNRisZvbnup/eaVhJVyuG2z6wtNB7fb0j7O5YsDhAOduHOXITlJlC1ooV2ZuTW+wMeXyn8juexs604tVpkI56rnCOIVbEyzcRmLdnvsaby37cs9uN3CpyGVmShH3fW4oOeK1nKESSCKJvpV4jNWRR1IRjsJuwtRwGU1oiYwEqkcJpnIdw4Mt+LLOVwZy6q7+xDWFF9p2qRoGc7TstchBvDT4ZY8eSIxc/hYDdWIj0sYyhLg+gwwG5oxfcDOjo6mDNnDvH4np3FqlqKKsDHkwdsOaWVJPfrr4EKyV7wVux008j7hAH53/43Yd/O6ArLpul178VKNUbXa407dxWt574egEpLC+VHfoWT2wVAcvkZzFi+9/v//v92pipZ6MPKLMOrVunaspH2WXPJLDr+mM9YH20T+V6yadOmcTvWhFdgc1131CAqk8lw0UUXHdKxlixZMmKtVaFQoKenhyVL9v+Pc9OmTdi2zYoVK4Zdf9xxx/HDH/6QSqVyWL8kIQSp1PjXIUkmkxNy3PGRgsZmVPs8wsJA9AaTasCOpwiL/cQL/TTMzFAJs+SKPtUgRGsoVwPiMYtkbPRAZG/L58RYPicDnIvWL2P3YMBz28u82FHgVep3LGcbJRWjomPMoIjd+2L9sd6CNcT6XsAq9YEXBeNO51M4nU+h063Qvgy0ItU4B2/GSgp5QVNDGjfmUqmG9OaDej9Hy1K0NCRozMTGFBzujxQaKoMkWtpAWPjd27FSWdzGNmQphyzncZvaEbEkqlpElgvIch4704S716L8ffmD3ejAI942vP2H1hpvYBeW9onbFk4qhVfoRvlVEm1zDym4U14ZYWksAhL7+Zv08l1gRbv+k8mDV/Gein/fgV9EJOK4iQSBFyMej+EeZIx+ZQArFsPJNBDm/GgaOyhBuR+3oTlad1NrxiyrOeySg9vYjlfqQwQeceVjJxuo9m3DcmJRe6z8bnRQJqZ9bCcBjoWTyoz4nemZ8xjRAioxq9bexkKIaEotHo+TSOzVz9OCsOjhJNNY7v6/pXudm5ADUXal8Nv/JnvKhchSjuTik6NivVoz+NBPCft2IpxYtGazWiTc/Ahuy2zC7q1gO7S87DKc2vMnTnkF8WwjAxvuACFoPOmC+m3TgdYK7VcRsWS087pSxM00kpi7mHK5gt6xlWTbXDKtY1/2YhyZiXgvGc9NSRMeYEkp+elPf8o999xTT1fPmTOHV7ziFbzuda/DPvA80jDnnXceX/nKV4atxVq3bh2WZXHuuefu93Fz585FSslzzz03LNh7+umnaW1tnXLfpqcDy40Ta5lV619W25WXbSGI7cLv3UkqkSaZ0WgFSikKqTi9xZCBgodjWwgElhX1KrSt/f9BCyGY3RxjdnMMTm4C/VaKuQHWb4LHt5fIFruZ7/SRtSpsC9vY9OQ81ixYxXntz9LS3oKVakZ0PA2dTyNKfbAlKh0hAHfWCYjmqBemBaTjFumkSxAqpFSEoWJnd4H+vEvSEcTiNg2ZZG1h/SGcq0SaMN9HMNAFShLme6HYhywOoir5qO1IOY+dzCAL/SglsWyHoJwHpXBbZo0IWrSSyFxP9OGdaR7W201VS6hyDi1VVPNIZZGVAsgQHfoj2pvsaygrF1Xt9lChD5USOgxG7JQbavhrJzMQBtF99nN85VeiKapxpmu9+A5UZf+gx5Ah0SRy7Q32IP0ItZLI4uCehsW2QzDQhQqirK5V2xEnLBsRT9UyV31Rq5owxHJjBAO7kX4ZWcwhLQGWjSz0YycyyFIu2qWnR3/D318Qe7DgVrhx7GQDwnHxe3fSf/dtpI8/l+yJ5w27X2XbM/WfZXGAwT/8PwC8XS/Q9tp3U970MOUX/gxC0HrR21GhR/9d36L03IP13ZfZky8cUaw0tfQ03JY5aKVGLWQ6lclSHiGihttWIhN9uZm1GCuewpIgG2fhmALDxl4mNMAqFAr87d/+LU8++STpdJr586Nv2vfffz+/+c1vuP322/nmN79JJjO27alvetObuO2227juuuu49tpr6erq4j/+4z9405veNGyx/NVXX01HRwfr168HosBszpw5/MM//APXXXcd7e3t/OEPf+DHP/5xfX2YcXj2LdHgtsze68Mnju3EAU1DvpdUa5KKtClVPJAhfqjIlySObZNKHDjQ2utJSDW1cOkZcOkZLXjBXLrzAR0DAU89VyDo9/n9Fs3vWUHTdpvzVmWZOeMiGmadz5zqC9il/qjq9faHcXY/zeKujejtzdEalqCCPvHVuAtPx62VhEhIG/niA+gXN1BsmEP/6W+kOZvCtgVx1yadjKYRtdYUHr8bVS2ROfEvcDLNew1ZYKcbop2KuvbBojWyUsBKZrGcGLJSIMz1YiWzuLXMgvKrBL07EU6U+dibLBei6R6tCHPRdNHQ70KWBlFSRj3mKgVUMhPtjNM6+r8bR4VRmYnRPpCDwW60XyU+azHKr9VXqhWotPcJsMLiACrwcLIt9YbC7CfQkcUBrMrAqLcdiNY6qisWT4w6rRXm+wiLAyTmLDto6QBZyhGWBom1zhk27aZDf88aObFP4c5KIdpGH0tG59mykcWBqI5RberMTmVRfhUn0zJqgU5h2VGZj2qxvgsvLPajg2pU6kNrwlwPaI2dbSQs9COrRSxnfN+ihxota60Z/OOdyOIA+Yd+SXzWEmIzoiUcWmuq26MAq3HNZVS3P41WIf7uLfjdW5GlQQqP3QVAw6l/SXzOMrRS2NkWZKEfDdgNrSOCtiHuNApCZKUY/T4tC1C4rfMJBrqQpQHcGfPr0/4A2k1MibY8xtQxoX8NN910E08//TT//M//zN/8zd/gutEbWhAE/PCHP+Tf//3fuemmm/iXf/mXMR2vsbGRb33rW3zsYx/juuuuI51Oc8UVV/C+971v2P2UUsi9KnRnMhluvfVWbrrpJj796U9TKBSYN28e119/PW95y1vG7wUbUWuftgWw1weY1ipKq/fvwkHRkIxabkipKBYrDARRoBV14ALXtkknRzaOHk3ctZjfGmd+a5yzlqZ5sdvj8W1lHttWYrAs+ekjg/X7xuw2ls6az1+szLJq5kqsx36C8ItRZmvI0+vQmRnQMBN2P4ez/c+4g1HmNTa4Db31T/Q0LiLesxF/zik0ts0kHrPxdjwDj/wagNKzfyR7yoU0nLJnCtxyYpBIISyn/ia89zd4O5mFfWIHK5ZAK0nQuwsrlopKCAQ+ViIVtQwRFk6qgTDfh5NtxU43ovwqYb4PO5GKAgWvgiwXQCm0iLb9WzKN17kZO91ErGX4h52WQZRhk7LWJLiI5cRRYRAFWHv1nlN+JWpHVAs6tFa1oq0jF4drrVDlPCL0D6kVjdaKYKCLoHcnTmMb8ZmL9rk9av8kS4PI4iB2pgm/dyfCieM2tQ0LuLSS+P2dyEIfyJBY24J6Rk6HQT0wEpY1rB9hONhNMNCFsB2chlachhn4fR0IN76nn59lH7QvnHDcYYG3HU9H1dj3qogu3Fhtis9Ce9VR26ocjqC/E1kaJDH/OAAqW54g6Nke3agVA7//Ie2v/3uE7RAO7EYW+8F2SC0/g8zxUdHfnp9/Eb97G4MP/qze6Dl94l/UXr9F5vhzyT34MwCa1lw27ftxqqAKMkBrB1Up4s6Yh9M0EyuWjIL0ltmmxp1xQBMaYK1fv54rr7ySq666atj1ruvy5je/mc2bN7Nu3boxB1gAS5cu5dZbbz3gfW677bYR1y1cuJDPfe5zY34e4/AJIWCv7IAQFm7L7CiI0NHUi3BjaKWIFfrI9HdR8mS0MzH0GShUGBiEZCpFzLGx7bG9iQkhWDYzwbKZCV5/ejMPvVjk8e1lyp6ivxhS9hUbd1XYuKsSNcnWb2BxqsBp7T6rlrQzo/uhaDrxT9+NdgfVjqttF2atQux6ktjmDcTYgNCKRPfTDJ58JSqWofHJX2MDJBuhkqPwyG8InDRNx6+pZ+YOtKh4f+xEmrAwgN+9LarCLX3sdBOqUsRKJKMPMSHw+3YRjyUIBnZHmZSGVtAaVR1AVQpg21hCRA197ViUbfIr2MnMsOlFWS7UetcJZCmH8qoIx8VCI0v5Yf3hglwvKvBwU7Vv8ToK0IaoIMpUWol0VIi11gNvtGbKUQBWQCsFQtSzOn5/B2F/J8JxkYV+ZGPbsEBGeWW0V0IIiyDXjQo8goHOaCx+Bbd1Tn3qUBYHkOUcTraVINcDQhBrX1gv+lgvvGvZ9SBQBV5tPVwjwnIIcr3IWv9Lp+HgOyYPxIon93vZiicJiwMjMpeHQ/lVen75FbRfoe3S9+I2zST/518BUUPkyubHCAc6KTx5Dw2nXFTPXsXnLBu2Tiu5aDV+97Z6cdDk4pOHtYNKrTiT6s7ncZtnTouCoKOJioDqaDNMuYDbOge3sR1VKWCnm2rZ6MZpVZfLOHomNMAaHBxk8eLF+7198eLFB61fZRwbxNCH5j7sRBo7mcXu3QlhgMhmSacS9A/mKRf7KdlZZG0aKxGzSYxhkTyAawtetiLLy1bU2lJoTddgwIMvFnlgUxEv0IBgc7mBzVvB2qZ42dKX8dpkD8lKNwA63YqeuxrmnwLxDARVRPcL0W1OHOEVaXz8dki3IqqDqFiG/lPfTmrXQ6S23U/loZ+SI0PjguVkRivGOkZ2uhFZzmO5MSw3iyzmQMt6NslONxLm+/C7tyNLAzjpxlqlfhEFLoGH5UZZElUtE6juqDhlGBL0d2DNWhI1AtaasNCHsKK3BVkcgNBDJLO1bFgZFfr1KU2Z6xkWnAnLQvlelCnq3oYs5UEI4rOXoAM/aqZcz3LtoZXE7+sgHOiMdkUisFINCMtCFvqxUo3RmqVcL2Ghb1iAJcsFVBjgZFsIiwNor4wdzyAcl2CwC+mVibXMjoLQgS4sJ1bPJAW5bkQ8hQ48dKWAPZRRFFZUuFMrVKW4p4K6iHYZqmoJJ9M0odkLK5bEbXQPOOWkta5Vn99zHxX4FJ/egD1nz1rT0sb70X5UL6i67Wlkvi+qbZfM0nDGq4m1L2Tg3tspPPZb4jMXUdr0ZwCSC04Y9nyJRavJ/enn9cup5WcMH7ObYMbFf3v4L3oSDP2NW05sWDZ2iCwNRl8CtK79DtqjIsPj3HfReGmY8DINd99994gM1pC7776bBQsWTOQQjGnAyUQ7rqJK2gkSaLJehWr/biq9u5FugqpyGCxWGSxGhfmElmRjAjsWH1ljaBRWbbH8ZWe08JpTmyl7Et8PePSF3WzJJXm20+MPmzz+LNaywO4l57QyI9XEaU6aE50kMSHQJ70ONv0e3bIAWhbAA7chir3gFaMnOW4tLc0N0LQWXe1DdD1H7KHv0t/1MroXvYx0JkY6GSPmWLU1Z2PbmSgsa1jT7n17IQph4aSbCPO9WLH4sKkZYbtRQFDLtqhSLsqCJaIeaGGhHxFLEJsxD1UuoMp57EQmKi/hlVFKYtsOWBay0kfQ34nb1I7fuxMtJXZ6r+kt20H7VVSlGI0lnkZVS4SD3SAEwrYRupbZqtEywO/rIBjYjZ1swHJjtUX/0bSmnW2pT/PZyQwy10vgJqLAznaiQKHWyNiKJaMaVLVMkNMwI2o10/E8UdgmsGvnTtgOVixF2N+JDn2sdGP9eaIAMh9lzGqLzes9LmtrmCbDwYKr3l99lXCwi5YLr65PnRYev5viE3djb34cVl2CDjwKT22oP66689no9wGklp2O5cZILjmFypYnqG5/mt5ffQ2INmYkFp447DmdTDPujPkEvTtwGtui7N80o/1K9GVjqHfoXuUndK1FUmzG/KjvYzJrAivjiExogHXllVfysY99jHe84x1cffXVLFq0CIAtW7Zw2223cf/99x/S9KBx7Bq+A0wgEmmSsxfjJFIEvTvIJh2aso345TJhpUC+osiXFVYuF1V2t2xAkEm6B51SdG1BY8rBsxXL2+D8k1rYOai4//kCuwZcXsjH0CF07azw9M4KcUdw0oIUZy7NsOz4i/f0Uzv3GnTXC1AZjKrHzz2pNnyBPuVSePyniN3Pktr2B0JZprD0IqrPbCDR9RS5oBJt429fhpx7Eu0LFxMTkuqOjfUdcYl5q8a8jkU4Lk7jjBGL1u1EGhU49eBBK1lvtwJgpxoJ+ztBaWSxP8ogOS5oB1kp7LWzLgrigv5OlB81v953iizadVglLA6AjtaQCcuOsmJuImpNZNnoahSQqsDD79mOzPfhpJvqYxKWPSygHGLFEsgwwN+9BeE4YDnRIvGhheb7rIEams4ZKl2wLzuRRpYL0cJ126X/7u+ggiqtr/xfCCeO37Mjet740dtlPLRxwEpmow0LQRW3ZQ5+9zb83VHJmr51X6flwrcRn72U8vMPRo8b7MLp30qltD3K6qWbkKVBgt6dBAO7AUgujv5ehRA0vewyunZvjqaN0020Xvy/R11Tlj7uHAZ/v4PM6vOn5fojWS0Ra1uAnUjj7d6M8ir136/2o0yv0zhj2NSnYRyuCQ2wrrrqKvr7+/na177GH/7wh/r1Wmtc1+W6667jzW9+80QOwZjGhLBqO44E4UAntlcmZdvY8xbRmmkhVw4p9+xADnRj2Q6+0gwUQzLpBDGrtpZi3yxAbX3FvpbOTLB0ZvRt1Q8VnQMBz+yq8OctJfqLIQ9tLvHQ5hJtDQ7nLM9y5pI0mUQc5p444lgAOHH0aVegdz6OeOJnODsfoTEsI3Y/u2coQQWKfVibH6Tr+VW4uZ314APASjWQPWkt6VVrRt2ZNtr5GnGd4w7b+eekm4ZVlLfcGKgUQd8urGQGpzZtUs/U7NUQXDgudqoBWczhZJpHPp/tgF+NdvwlUvXHICxUtYiIZdC2E+1IDDz87m2EhQGcvbJUBxNNM2fRYdR7TziZg+7cOlDpgqFpa79vF5WtT0Q/d20lPnspYWEALQOcAxSN1EpG2bmDlEcY+Rhr1ADF7+tA+2Xis5fh9+2i56c319ctDsme+krCfK3cSK23Xd9vv0V61Tmo6p4yGInNf6QSRtnChtMupvjMHwj6doEMsbMtuK1z9zoPjbRedDWVLU+QWX3BqAEuQHr5GSQXnVifch4v41l8d19RaQwfEFhuHCfbjBVLYmdbCAe66wGW8io4ze0muDLGzYTvKf37v/97rrrqKv74xz+ya1dUwXfu3Lmcc845tLRMrzooxuQTQhBrmYWTaapXvB76UJyRBN2cISy0owOfoJTH7eymf7CEpxWJuIsWVtRU1bHAr0TTebEUHKANSsyxWNgWZ2FbnFed3MjWHo+HNpd4ZEuJnnzITx8e4BePDnDyghSnLU7j2ILGpM2spn3emIWI1m+V+uHF++rBlVpxPsxaBcU+RMdTiN3P4nQ9iwZUohGyM7CKvahyjtwDd1Ld9hTN578RO7VnYa3WKto1t9fU1hBZLpB/9Dc4DTPIrj5/+JBGyYhZ8VS9btOw62NJZLWEP7g72hlKlGm0GkcvwyAsByVDtJI4yT3b1+10IzoMkVJFWScZEA52ERb6Dym42vd1CMZvl9rQwm2A6s7niM9eipNtrmW/Rv/gD/o66P3NN7Ezzcx41f+uBx1+3y6q258hveqcEdOJla1PMvCHH5KYt4rm868cdmyvayu9674GMqTtde+htPGPw4MrywYlKTz22/qXhNaL/zeFJ+7G2/Espaejvn+ZE/6C0vMPYQVRiY308eeSXHYaYaE3CrCIFqjv+7ris5YQP0Al/vowxjm4GiqDsfcGiv1RQRUdeMP+LRzw/l4Z5VeiulV+Fbuxrb7ZxE41Eg7sjjZWRPce83ENYyzGNcDat+/V3k499VROPfXU+uVqtTqs8KhhHIgVS8Ao6yGEZdd3WrnNIbPTDaR7++jTGcqexC504w10ozQk4nHcpllYpV4I9/lwDjzwS1HGZq83WSEEi9sTLG5PcOnpzTyytcT9zxfZ2e/zyNYyj2zd0+x7zbIMy2cleHRriZmNLn95UiMxx0KvOB/6tyMGdqAXnw3La/WBsu3o2ceh+3cgtjyIapqLP+80fGkR+B6ZnqdIvHgPXucmdn//38GJ4TbNJNa+AG/nc4T5XkQ8RXLhiWRWn4fTMIPKlifIPfCTeibDbZ6FDn1yf/oF2VPWkl5xFqVnH6C68zkaz3rtQXfC9d99G/7uzbSsfSvJRasPeN+ovEEQtXYZVh/NQrgxkNUoSJCSsDiIFUseVnA1ESrbnqr/XN35LI1nvhrYf/YrzPXQ++tvoKpFVKXAwO9/SPNf/DWljQ+Qf+TXoCSVzY8x41V/FwWYSlJ67kFyD/wEtKay+THis5eSXnk2ENUe67vrVpAhALk//QK/N5qibHvte3Ca2hFujIF7v09l82OgwW2dS3zmItwL3kzPz79EOLAbhEVm9fnodDPFh35B6oSX03jmqxFCkJh3XBScsWd6cCoYmpobrZDtsPuFQTRtLeyoMOxBMpeyUgQZEJu5CKdhRtQiaK/dzXYyjYil0EE1yobGUtjJg/SfNIxDMK4B1tq1aw8rzTsRDZONlx5hO8RnzGNGy2xasfBDCXIBlfwgg/0D5AOXPEkcEZDI9aCUwq7mEeUUJFOQaYdqHqoFSNRKSsho5xtOnLhrcc7yLOcsz7Kjz+P+54ts6fEQwO5cwAOboh2KAE/trPDkjjJ/vaaVZTMT6LPfgi72QMMoRRZb5qNb5iOAeO0/Ui5e8kwGGxaQefbnOMUuCH2C3h0EtQ9eAO2VKT//J8ov/DnabViMCnkKN4EOqgz8/g6UVwYlGbz/xyivQv6hXwKaoG8nM171d8N6DFa2P83APbfTcPqriM9dXl/nk394HYkFx+9Zy6U15U0P17Im0VqnxrNei9PUtt+gRAXVegPh8ShzUD8HRzi9FAx2RQu/LRu0IhzYTVgcqNesUl4ZLQOEHcOKJ6NgqBZcOY3thIU+qlufpHPbU/XXJ2yXMNdD90+/gDtjLmF/J7IU7Zh2W2YT9HeSe/Bn9YXiveu+jvbKOM2zCQd343dFDY/d1rm4bfPrr6/pnMvwdm9BlXOkjzsHiDJKra/8Xwzc8z3ic1dgpxpILDuDTtHMjKVL64912+aRXHZ69KWkZXK/1EZZIj0ioFZBNar95cRQQXVEIdu9Hy9Lg7gts1HVMsqrjLoreYgsF0ArYjMX1//OxD5lUoTtYmcaCXp2IhyX+Kx5I3o+GsaRGNcA6xOf+MS0XPhoHFuEZSOARMwBHBLJWTTPnIUfSIqVgGIpRbE3Q7lcpXfQwonNpiHbRDqbRVTS0Lc9mtZDgONGH5qhD8k927rnt8Z54zl7pspe7KpyxwN9+KHmpAUpHt1Wpjsf8sXfdLGkPc6c5hipeJK2bIkFM+K0Nxz8jTwet4nPnAPt70BJn7BUQPXvgMFdhKlW/PbjsPNdpDofwe3bFAVXboLsCS8nc8LL6f7J5/cKuOLowCP/0C+ig9sOspSj55dfoe01746aHJdyDGy4Ax36UUBVm06CKGNTfvFR0svPQJYG6b/3+/XgCyDo7wDboXXtW0d9LdVdzzPwm2+SaF+BtehNOInkQd8rVFAl6NlJddfzyHKOhlP/clhQprWi9PQfKDx+N8mlp9J49uuichWdL5Jcdtqoa2m0VtFC774OkotPwoqnqGyNslfxOcvRfgW/exvezudwVq2hvOlhBjb8oP74WPsiwlw3yivjNLYz49XvpLrtKQbv/5+oCnummezJa4nPXUHvr76KLPTj7Yimhq14iszq88mceD69v/oqftcWun98E8Jx0GGA0zyLGa96B7mHfkFl08MA0fq7vc6TFU/Rdsnf4XVtGVYmwck00/ba64a/2H3W7Qlh0XLeGw94zieC1gpZ6I2mh7VCWA52rQyHqpZxGloRbpygdyfsZ72b8kpYySyx1jkEuT787m1YOkOY78NynGG7AVXggQqJzVpy0HY8TqoRGe/HaZ6JnR2fgN8whoxrgHX55ZeP5+EMY1zFXJsW16alIYGe1UQuX8QLq8yZP5tiVdOTq5CMpbFSc3BtcBMJhBOHoAr928ArRWu3tIJK1EiaWrmDpTMTXP/6OdGHoQz4yxUWv9woefDFIpu7PTZ37ylNIIC/PKmRvzypEWssX0iEACeO0xiHxhnAqcSAFEBzE8Hc5VT6dyJLA+i2pWRntaJdl6Zzr6Dvrv8m1jaf5vPeRM/Pbo4qUrfMpuWit9O3/r8JB3bTu+5rNL38CgqP/bZeL0mHfv1DPj57GV7nJvIPr0OWcpSeuS9atO64ZE+5CDvdxMC9t1Pd9lRUVb04gN+7E7d5FrGZi7DcOIVH14PWxLqew9/2JMnj1gAgyzm8zhej3XxuDKd5Nn7ni5RffCRqHbOX6s7naHnFVSTmLCfM9zHw+zvqmZ7SM/cR5nvxOzejZUD5xUdpfeX/itoFeRWqOzdS3fEsXscL9enT8qaHaXnFWyg/F+28Sy46EVUuRMU0d2wkufQ0cg/9cs/vQGv87q0AuDPm0/qX12An0qRXrcFtm48VSw77QG+/7P14nZtQlQJWLEli/nH1KbCWC97MwB/+H96u59BhgNu2gBl/eQ1WPEXDyWupbHkcy42TXLJnWcUQp7FtWNZxqlPVEiKRJd6+AB0GBIPdhMV+RC3gstPN9TVle+/43DszqXyPWFt7lHVKZrBsG1mKNlNovxJN8Q1lV0MfEU+PqdehlcpG/QRTWZMcMMad0LqW0zYOyZNPRotiV68+8LqUQ1Eul9m4cSPHHXfcuHcIN0ba+3xbdozugQr5kofW4AcymmIEHMsiq4s4xU6QftTPJ9kYfSiUB8GJRwvnLQtkEE0xOlF2ayCM8/i2MmVPUvQUnYMBW3uiYKsxaaE0LGlP8FdntZBNHvl6pGI5QGlwHYFtCxpcSbqhgVTCxe/eRnHjH2k47S+j3oHlAj2//BIyv6dVkLBdGs56Dbk/3gmAlcwy86/+D9133lTPhgE4zbNpvfBt9YxS77qv43W8QGzWYvyubfXF2dHU4evo/9139gzSiUWZrv+/vT+Pj+uuD/3/19nP7DPaLdmyLDt27OzO4jgJJgQKCaEEEpZQAqG3paE3wE0C/bFcGspNSrmUL5QG2rRAb9K0F5oQSm5LSAlkg+xkIYmzeJHlTbs0mn07y++PI40tL7Eky7LlvJ+PRx6Ozpw5c+bjkfT25/P+vN+KwtiD/xL0RzwILZLAbFuOkxkKZjgIls2czNBEzo5JeMVaCq8+SfAXA0w0XdKiwW6x2njQZLv+HifqIE02vvZrFbRoipb3XI+bG2Ponr8BCN7LwDa0WAOtl38Wr1Kg2PM7vHKB2GlvmZNk71pmmNrQDuyuU6ZUTa+NDwWteWbZELlcLrNt2zaWLVuGbR+ZWk6+UwtmiybqR+F5aNHkfu2JnNwY9qLl9aDQdx3cwniwS9NzsduX43se5R0voxhmkI/lOkFB0IkNGG4hg734RLRwDN/3KO98Da+UxWrrppYdxa8U6rNYTj6NHm/ar63SkSQ/u+fXkRzvufzdLp0phQBsS6ezbaIEgO9TrroUyzVqjke2UGUs42OElxBWKhgqEGkMAqxQGvKjQe7WRJsXYq2gm5DeSSoU4sI1UytGP70lx11PjZEpBUHI73YU2TpU5rwTYrQmDJa3WiTCs/vWjIYNqjUPz/Oo1Tz6Sx5GIUcqbhOPtxNe/z4coFZxMO0oTRf/CaP/9YNgF1djO9GT34zdcQLl7Rup9G0mfMJZqKZN8+9/kuLW56js3oQWSZJY9+4pAUH0pAuo9G2mOrAnd8gtZnELmXpwZXadRnFsED07wOgvflB/rp5swWhox6sUqY31o8caiZy4DmvxifVaTL5TY/yJn1Lc/Ex9J5zZ1k3qTR9AjzVgNHeSe+5+IivPwVq8ktH/+kHQGod0/TXszpOwF58YbBLYvYnR+28LEp/NEI1v/29Bxe7GdqKnXEj+xYfq7yV+5sUomo4WThy0gfFsGYlmjAPMRhnJw2+RcyT5vodTGEcLRVH0oE+mVy7glQtT+1WWcmjhBNrezc81HT3eFCSeT8w8KRqodjRo5aRbOPlx9HjjRE01D8UK7yn9oahosRSqaaPFG0HVKPdtRp24lu+5R7V2mRCTJMASYh+KohCydEJW8O3RkgozFi8zOFYgV7ZxXY+Er2BqGkSbIJyCapBIjqKAFQN8KGWgMFovgko4Cb7H2YuqrLqsneFaCC87zL8/X6A/4/KLF/e0jepsNDj3hBhruyJYxvRrLAGYhgoEz4lgUKm6DI4VGMmoKCj4E3XN4xGd5lSM1is+u981Um/+EKVtLxBZeTYQNKOOnbzhoAGGtXgVeqIZJzOM3XkSDRddhVvM1pclAUKrz2dkZJyWTA+Vrc/guzXCK84kef4Vh65lpRukLng/8TMvprTtBRTDIrxibX05KXLCWUT2yklqufyzVAd7g9pdsdR+Pf3sJatJrL+M4mtPkjj3siklAuJnXYLvORQ2/gazZekxtePuWOGVi0G198Wr6onhTmaYcn8P6sTSnu+5+K6DmWo96N/v3rNdeiyFV8rhZIaDfKumJYBCLT2Itah1yrlGsgV8Pwi2Igm0UAyvUgz6ncKcNckW4nBIgCXEIaiqQlMyREPcplhxGE4XGRwroikKtqlj6GrQ/27fHI54W1Dh3bAhPxIsJ+JBuIF4ajFxzYBCmOsad/HU1iK7Mx67Mx470y47RmvsGB3jzifGUIBESOGEVotVHRFOWBQiPoPlRMvUMA0Vb6+SSh4+6VyFYsWhMW4Ti1hYxp5raqEo0TXnTfs1FEWl4aKPUOnfSmTlORPV2FM0vvVjjPziB9gdJ6Cn2mC8ROSsd5I86x242RGM5s4Z5b5ooRjRNedP47wooa6DFIGdEF19HtHV+79HRVFInPP7hLvPQE+2zqiI6PHIn1he3TvA8aolzJalU3bdqeE4qmkHbWascJB7Fp5+Y2Qt1ohthnAKGTQ7gmqFMZKt+E61HjhNUhSVyW7siqqhRYLdgL4ZQlFVKRYqjgkSYAkxTaoatOKJ2HHiEZN0tky+VKNccnFcN3jcNimUa9Rcl1Q0hJmaKDRphmB0exBspRbD5C+mSAOmbnJBLAueA9FGMlWNZ1/p49GXBhnNVvGB8ZLP071lnu4N8pVMDcKWximdYd58YoxkWEP1avXK6ftSFAVtr5hMQyEVCwLG3cMFrEyZRNQiEjLQFAVdU2fcnNpItU1U3t/DbOlk0R/cCIpKpbIn0V+zIwdsxXKsUBQFs3nJ0b6NI853naAMhVNDMawphVG9WhW3mEHRNPB8FNOeaL1UDiqi77VzD4IitHq8kerIrqBdlOtgJlunXetMUYIWWeZenws1HMdsWoJ6iP6PqhXGV6iX05AZLHEskABLiBlSFIXGRIjGRIia41FzXCo1l+F0iWyhSiJqYZka/SN5YiET29KDJPimLlD1PcHVJCsa/DchYcFbzunmwrOXUSjVcD2fgbEim7YNsWnHOLtHy1RdqBZdfv1qjl+/GuxoTIZUPnymyYrFiSCQg6DEhOfuaRnk+0Gifq0CmkHYtAmZGpWqy0i6yEgaQMHQVZIxG8vQ8HwPXVOxTR3TOHCLl9cdr31+wfpOFd/Rpt1nURw5bjGLakfRYg3U0gOoVjgoGOu5eMUMRmM7eqwRr1KgNrQDJ1vCB4xk6wHznPRYI24pFxQPjSTRIvH9X3QGJvtJHopqhlB1M1i6nGgELsTRJp9CIQ6DoasYukrYNkhELEoVp567pasKfSMFihWHkKlTqamAh6ZVidgGqvr6gYqiKETDwb/EE1GLVZ1BonC54pAf7mdodx8PbXXYPBRU/x4vedz6WIX3nJplWXOZ5sYYZjUTBFWTDbGL6SDAs6JB+YnCGIodw7YmAkGC7fHVmsfweBF88Cd25xmahmmqREMmyYkgcsZ8H7eYxXGrGImmQ59/HPI9N0jE3meWxfe8oKq4U5toQD29H8++5wZtkyZ28Pmei+/UpnkzLkayGS2SxCvl8coF1FAUN59GizVgNrQHCf52BEU1cMs5NCty0MBJtULYi08MZpIUZd4q9SuGhWKGcIvZoOq9lFwQxwAJsISYI6qqEAntmZXpaIkSi5j0Deep1FwSMRNVUShWHEazJRoToenVwdqHbenYi9po0kus6ShTTSyhqkW464HNvLBlhLufLwElVCVDe8rgrO4YFyzOoBkGGGFo7Axm1JxqkBuWHQzKKkzMeikEeVt7B1C+71NzfWpVh6HsCJnBGomohaNaeIaFpeuEbb0eEB6UGyxFqbqB51QPK1fGd2q45QJaJL4g8qR838MrZvFcJ9hsMLHkFjzm4+ZGUawIihWuBzjTCVD8WgVFN4LG2dEkbj6NV6ns1yQawHOqeMUcWjQZJImrOooZCnb2JZup9G8LylfYUcymJVOCPD2WQo+l9rvmvhRFmfclusmZLjc7IjsIxTFDAiwhjhBFUUhELaJhE8/zMfQgCChXHXp2ZxjLlIiGTHRdRddmGCBoBiTbg4rV4SQmcPU71/DLp3ewsWeUkfGg9tausRq7xsb4zasqhgrjZYXmVJGli+L83jmdxBJtQc5WdhAqRdC0ej88QvHgdVwHxXMxPQfTK+NHbIpqA4OOj5YfQyVPWo+iaRqNCZNkzJ6oon+AMXEqaJEkqq4Fy1NRc0qRyEm+UwsCMCt0wODJ94PWKYoVCQKGaSZSHw7fqeF7zsRMUwXfddAiCVTDmrgnP6gJ5br4bg1VN6csg3qlAugmdusyfM+hOrgdT1GC/CGngmJY2O0rUDSdylDvRJVyM6iv5oNiGAesveW7DsrEEpmTHcFItVHN51Cq/fvdv1vMolrhoNiqqoFhBX0+Ifh7scMoiorV2rXgAhXNCgczf5J/JY4REmAJcYRpqoK213Kgbep0LYqzfSBLpepSyNcmyiaYaJoy/eUNe2rir6oqvH3dUt6+bim+75POlni5N819T2xnJL9nyWjHYI4dgzmee22IyzYsZ/XSBiLNUahkoTbREqhagtxgsLyoGUHumKpBaglKJEVEM4gAlFIw3AMhg0rNZ2TXbjKGhmWHUMMRVFUnFjGJhvT6bjQtkkQ3DZzcKG4ph1cto6gqWmRyiWtP8OTkRlFUHdUK4TtOcK6mgeehhhPoicYgUKlVUQ0T3/fwnaARsLJXqxivVsGvVVFDwW5PJz8OvosWbQDfw82Po4ZjqLqJ79RwCmm0UDyo71TM4bk1VM0IxkBV60UznfQASqwRr5TFdx1Q1GDWR9NxC+No8UYURcX3PLxaGbt5xZ7iob5PZWAbimnjV8uooXg9qDGbO1ENG69WxnccUMAtZFATQTDke27wWhPJ5JodQY8kcEJRzIZ2qtow+K/gO1W8qo9XDRoaG6k2VMOiOtgLqhYsp00Et6puYrUsRdENVHNhBVcAimmj2lHZQSiOGRJgCXEUhG2DE5c24Lg+xXKN/tEC2XwV1/PwAVPXCFn6lNIJM6EoCg2JMBecFmbtqhZe6hklEjJIRS0G00Xuf3IH/aMF/vW/gj55S1pjnLOmlTNPXBzkkIU9sMJBgrwZBm1iJmXf2SQrFrQPqhaxFBUzlaQaaqSUHYbRYTwtRDprEw7pxPwsnmGj2FFU20SduL7V1l2v7K2aVhAIRZJYrUvxKqWgYGgxC5qB2bwEr1LAq5YxmzpQQzG8SgknPYhbCup7KbqBW6ygxxqD4KkwHpQTUDW8Ug5FN4JlLCuKm0vj+y6qHcGvFEE38aoltFA82F1XzAbNk1uWBrNpEzNKiqIGs2yVEs74UNBypXVZkAs0saxW6d+KW8iiR5N45TxaKDalZ54ebaBmDeFVSviOgx7d85hqWFN2MXrVEuWdr+LVqii6jpMZQbXC9crmqmGhheP1Ip9qJI5vRYP3oEXRokn0SBItmqrvGPSqJbR9gvS9i4QuNJNjNjkjJ8TRJgGWEEeJoigY+p5lxFLFwXU9ylWXdK5MoVgjWwhKGyiArmmEbB1Tn9lOvrBtcM6aPeUT2pujnNzdxC+f3s7zm4YZSpfYOZhj52COnz/Wy4VnLmbF4iRh28R1fUxHoSl5kB8VqgqRhqAEhaKgJBdjxVuwEo2QH4P8MG41T2ncoc9TGa3FacxWCNU0il6SeCJCONmIHmtAi4xRywyjqNrEL8pQvb/f5MyVohn4vl9fggMwGzvQI0l8z0NRgxmkyvBOnNwoKApGvAk92Yrv1ILegNUyZksnWiRJpb8HzbRQrTDV0d1oBEtpeqI5qC5fLaInmg84K6LoBmZTB1VVxWxs369Wk9HQTqVvM05mBF8Bu3lqTpOiG0FZg8HeoIr865StUAw7WNqrFMAzgoCwWgZi9WtNOV9RcWPNmO3LCcWTUx5XTC2orJ7zj7tg5Hh7P2JhkwBLiGOANlFjCyABtKRClCoOxbKD5/l4vs94vjIRdAUV401dJWTqmLOY5TJ0lUvWL+OS9cvIFao8u2mIx17oZyhd5N7Hevc7f3FLlHNPXsSZq1rquw3rrEjQGkhRguVFCJYU4y0QiqPlR4nWSvhagsyOQXr6cthWFc/XGXUcFKtCMmZhJFvQYw3BLrp98n/2/sW5bxK1oun75WBZLUupDAUzMkYqqMXk+z5GwyLcUh4j0YKiG9jty0HT6w2gA/5EYJcCXj+pWwvHsUPRA+aJaZEEVtuyIEdK06e0i5mkR5M446Eg0fx1luUURUGLJnHy4yhODS3agFMrT+SvqQfOO9KMiZyk/cth6NHURO6WBCRCHCkSYAlxDFIUhbBtELb3/HJsbQhTrrpB4FWqkS/VyBar+KUqIVPH94Mdhtohyj/sKxYxefMZi3nTaR08t2mIx17sJ5OvUKo4aKpKsVxj11CeHz+wmf/3yFZO6m5kZWcKU9coVRxO6EzSYseDoGrfJGzDhlQH+B5GpUo0NEJTwq43IB7PV9i6e5xk1CJsG5SrwSxeIhr0VbQM7ZDlLA5EtULYHSdMSZ5XFAWjsR3DdetBh2pNNIo1HFRND5oXKyrKROL6dBxsB6OiKOjx1y9FoVphtGgKxbQPOSs5WaMKQAvH8ErZifw1fcY1xbRIIshHm6cyCkK8EUmAJcQCsXePxIa4je/7ZAtVBkaLlKtBIvRophQUOp3FrJaqKpx5Yitnntg65Xi+VOO3rwzw+IsDDKWLPLdpmOc2De+5L2B1VwrL0FDULCcta+Sk7sapdbIOEoQkoxbFco2xTJmhdBFNVVGA4XQJ0whKRaRiFo3J0EF3Jh7MgYIHRVFBP0Cle8MK8q/KBRTdrO8MnA/TrRivWuFgpktV0WON1DLD9bpVyr7Fa6dBgishjiwJsIRYoCbLQMQjJp4PnufTN5JnYLRAtuBjaBqaGlRl329ZbwaiIYML1y7hzWcsZnt/lle2p9m6a5zJCZctuzK83Juun//sa0MYuspJyxo579RFnLDk9ZfZ9p2pg4m6W45HpeayfSDH8HiJpkSIZMwKSloozDjgej2KqqFaYWr5NHooNq9V5qfdSkbV0GOpIElfN9CsCG5uDDXRLIU1hTgGLagAa+vWrdx8880899xzRCIRLrvsMq677jpM89DbcgcHB/nmN7/Jww8/TLFYpKOjgz/90z/l3e9+9zzcuRBHjqIoaEqQx9XZGiMRsShXHfLFKpWaS7nqkitVMXWNas2tByeRkDGjQqeKotDVnqCrfWq+U99Inpd7xjAMlUKpxnObhhkZL/H85mGe3zzMeacs4l0XdDOTEEBRFExDwzQ0oiGDYsVh51CevpECmqqgKBCPWjQlQiSi5pwEGJodoYYypR/fscZoaK+/VzUUAVVdkCUVhHgjWDABViaT4eqrr6arq4tbbrmFwcFBvva1r1Eul7nxxhtf97lDQ0N88IMfZNmyZdx0001Eo1E2b95MtVqdp7sXYn4oikIyZgEWNAa70gqloAxEpeqwuDWG63qMZkqMjAfLiebEktlsg5T2pijtTXuCkkvWd7FrOM/jL/bz+Iv9PDbxXyJi0hRXWFsZpjEVJRExaWs8dMNnRVGI2AYR28BxPTzfx/N8RjMlRjNlWlMhUnEbx/UoVxyyhSrJmEVrQ2RG+VuKYaFZoWM6YNn770g17KC4piF1n4Q4Fi2YAOtHP/oRhUKB73znOySTSQBc1+UrX/kK11xzDa2trQd97l//9V/T1tbG97//fTQtmI5fv379fNy2EEddJGSwvCOYdZr8Bd2cCtE3UmBorETe8yb6DSpEbeOwlhMnX2NJS4wlb41x2gnN3P3AZobHS2QKVTIF2NrfUz93ZWeSS87tYumi+LQCvL0r3tumTrXm0jdSYHCsiOcD+Bi6xni+SqXm0d4UmfYuS9WwUezIjBLcj6ag/154VvlXQogjb8EEWI888gjr16+vB1cAl1xyCV/+8pd59NFHufzyyw/4vHw+z89//nO++tWv1oMrId5o9g1eDF2jszVGY9yu52+N58oMjZeouR6xsInn+/h+UH1hNj0TAVZ1pvjix86hWK7R25fm6Re3M17SqNQ8htJFNu0YZ9OO52ltCLOsPV6vaN/WFGHZojiJ6OsHO6ah0ZIK4/n+lHus1lz6hvNk8hWaEjaqqgazX56Hrqmk4vZ+eV+KaWMkWhZMixjFsNDjDXt2QgohjikLJsDq6enhiiuumHIsHo/T3NxMT0/PQZ4FGzdupFaroes6V111Fc899xzJZJL3vOc9XHfddRiG/OtPvDEpijKlOXMyFhQ87e3PMpQuoioKiqqAH9ThioXMWc9uhW2D7vY4SjXKsq5l2LbNWKbMfz25nedeG2JwrMjgWHG/5y1qirCqM8XqrgZWLEkeNNDb97hpaDQnQxTKDjsGc/VzFEXB9TwGRotEw8GyYzhkEAsbGLqGHm+c1fs7GhRFwUgefOZeCHF0LZgAK5vNEo/v38YhkUiQyWQO+ryRkREAvvSlL/GBD3yAT37yk7zwwgv87d/+Laqq8pnPfGbW9+T7PsXi/r8UZqtUKk35UxxZMt77C5vQ3mBSKDtEQjqGpuJ6Ppl8ldFskZFxl3g4SCr3PB/f96c0q67WXFRVOWDz6kqlMuXPsAXv3bCUS87t4OXeNOO5Kr7vM56v0jdSoH+kSP9Igf6RAg89u4umhM26NS0s74jT2hCeVn6VrkDM3vdeVCpVh9F0hQHXw/d9QpYe7LY0NOJRk1jYrDfnXojksz2/ZLzn15Ecb9/352xX7oIJsGbL8zwAzjvvPD7/+c8DcO6551IoFPinf/onrr322nrRw5mq1Wq88sorc3avk3p7e+f8muLgZLwPLLvP137VI19wGOgPvqcUguXDquNjGUHA5frBuZ7nE7Y0DH3/H1R9/X37HUuZkJqcPGpSWNsVpVwNs2u0yq6RKr2DFUYyZX72+A4AorbKWSdEWNFuz3r5sv6+fJ8Rx8f1wPV8XNfHNlWSEY14WEfXFm4JBPlszy8Z7/l1pMZ7OpUJpmPBBFjxeJxcLrff8UwmQyKROMAz9jwPgqBqb+vXr+fWW29l+/btrFq1alb3ZBgGK1asmNVzD6RUKtHb20tXVxeh0MLIA1nIZLxnzvd9ylU3KA2hKihAOl9h11AeXVNZ3BLF0FTSuQqDY0UMXSMWDpbhK5UKff19tC9qx7Kml0i+euLPSs3lmdeGeaU3zY7BPPmyx0Mv5nhyU5GOpgixiImmKoxmypSrLmtXNbFuTeusZqE836dYdoJK9mGDRU2ReimIas2lVHGxTA3bPHZzOuWzPb9kvOfXkRzvLVu2zNm1FkyA1d3dvV+uVS6XY3h4mO7u7oM+71AB0ORyxWwoikI4PPcJpqFQ6IhcVxyYjPfMRPaprBCPR2lIxlAVhchEP8XmRp+mhjLbB7KUaj6pWDBL7Ps+lmXNeNbYtuGisyJcdFYXVcfl18/v5ldP76RUcdiye9+5NvjZYzt45Pl+LjprCetPaZ9xZftwKAi0soUqO4fLpAsuqqJQqQWtiixTozkZpq0xgqGr1ByXStWdktN2LJDP9vyS8Z5fR2K857Jo74IJsDZs2MCtt946JRfrvvvuQ1VVzj///IM+r6Ojg5UrV/LYY49x1VVX1Y8/9thj2LY9pzNQQrxRxfYJLBRFoTERQtdUtvVlGBorUq1WyBZdRrNlkmiETH1WfQZNXeOtZ3Xy5jMW0z9SYPdwnkK5huN4NCZCVKouDzyzk7FsmXse6eHnj/fS3Z6ga1GcRU0RFjVGaEyEDvnaqqKQjFpUay6Vmovvg6GpNCZClCsOOwdzlKsOrQ0Rdg/nKJYc2psjM66/JYQ4Pi2YAOvKK6/kjjvu4Nprr+Waa65hcHCQr3/961x55ZVTamBdffXV9PX1cf/999ePXX/99fz3//7f+cu//EsuvPBCXnzxRf7pn/6JP/qjP5J/bQhxBCWiFt0dSdLZEio2VIZpTYWouDCWK+P7QQUu29CJhmdWWV7XVJa0xljSGtvvsXNPbuPpVwb55dM7GM2UeXV7mle372nnY+gqrQ1hFrfEuHDtYlobDv5zYLKi/N7CdtCIeni8RK5YpVJ1CVkG2/tzFEo1kjEbTVWouR7x8Ox3XwohFq4F812fSCS4/fbbuemmm7j22muJRCK8733v4/rrr59ynud5uK475dhFF13EN7/5Tf7u7/6OH/7wh7S0tPCpT32KP/mTP5nPtyDEG1I8YhKPmBSLRYZCGp1tMQzTpliu4bgejuszlC4ymgl2BOlqkDelqgq2qWMa6oyn7TVN5dyTF3HOSW0MjBTYvHOc3cN5+kcLDI4WqTkeu4by7BrK89TLA5yzppWO5iiRidpYi1tjNCdfP7dD01Qa48FsVlPCnGjvozKWrTA8HrwXz4dUzKK7PSFBlhBvMAvqO3758uXcdtttr3vOHXfcccDj73znO3nnO995BO5KCDFThq5OKSLaELfJFiqUqw6VqodCkNheKNfIFYNK84oSFCE19ennU6mKQntzlPbmPa18PM9nJFNiYLTAUy8PsrFnlCdeGpjyPEWBc9a0ccn6rtctdqqpe/LOIFi+bIjvuT/P9xkZL7F19ziGoVGbWGq0TY22xsgxl7MlhJg7CyrAEkIcnww9yG3am+/7VKouVccL+idmy4xly7helXjIxJrlLj5VVWhJhWlJhTl1RTObdqR5qWeUsWyZcsWh5njsGMzx5MYBXuoZ5aqLT+TEpQ2zey1FoSkRIlusUqq4aIoCCuRLNTL5Ki0NYZqSIUIyuyXEcUe+q4UQxyRFUbAtHXtiAikZs2hJhRkZD5o858tVkhELx/PxPR/T0FBVZcaFAld2pljZmZpyrLc/y48f2Mzu4Tz/+O8vkoxZhG0Dz/fRNZW2hjDdHQnWrmo5ZK9DVQ2S5fcWA0oVh11DOYbTReJRk2jIxDaDgqeFUo1soYJp6ERCOg1xe053NwkhjjwJsIQQC8LkEmE8YtKUDLF7KMd4voKuq6iKQr5cC4IrlPqSom3qRGx9xsFJ16I4/+ODZ/DvD23h8Zf6SecqpHN7SrrsHMzx9CuD/MdveljVmSJsGyxti3HK8qZp51qFLJ2QpVOqOKSzFYbTJRQUNE2l5roYmornlfGBpW0xWhoiFEo1FCVIstdkp6IQxzQJsIQQC048YhLuTFEsO5hGEGCVKg6e56NpKq7rUazUGBkvMzxeImIbU3KlpsPQVT7wtpW8/dyljOcqlMo1VE2lUnXZPZznmVcHGc2UeW7TMACPvgC6tokL1y7mHeu60KdZ5HQy0IJgWdR1fTTNrAeFpUrQT3EsWyFfqgEQsXUaEzaJqEXImnkAKYQ48iTAEkIsSLqmEo/sSRLfd6kuhU1zMsxopkT/aIHh8SJh2yBkTvzYU/ZvEn0gyai13xLfqSuaeMe6pbyyfYyRdIlsocpLPaMMpYv88umdPL9pGNPQ0DSVi85cwmknNE0rCFIUBX2f9kKTwVe56pAIm6BAqeywrS+LZWhEQgapuE08YkoulxDHEPluFEIct0xDY1FTlETUYmS8zFi2RDpXrj8+mVOVjFozngVSVYWTljXCsuDrd12wjBe3jnLXrzYxktnzGrff+zKLW6KcvbqV5R1JomGDWMScUc2vvWe5AGIRk1jEDHZalmqkcxVMQ6UxbtMyUdPLcX08z5/RexJCzB0JsIQQx72wbdDZZtDWGKZSc1EIalTVHJe+kQIjmTJR20BVFYqVGo7rE7F1wvb0lxUVReHUFU10dyTYtCNNyNTYPpDjwWd21mtuTYqGDE5YkgwS7JekaEjMruG8ZWj1NkDlikP/aJGxbBkVl96hCtGGHCcuC6FpM+/JKIQ4PBJgCSHeMA5WlX33UI58qUa15hOLmIQtg5FMkeHxEg1xe0YJ5dGQwdpVLQCsXtbI+ae28+ymIX63eZjh8RLFUo18qcZzm4br+VtnrW7l3W/qrrcccl0PVVVmNKsW7LjUKZZr5AsVNBWG0yWi0TytqTCe72OZuiTHCzFPJMASQryhhSydFUtSQVV5x8MyNRRFoSlps2soz8h4iUTEwphIpp+pWMTkzWcs5s1nLAbAcT22D2TZvGOcTTvT9PZl+e0rgzzz6iC6puJNJLo3J0O849ylnLGqZUavG7YNVFxGjSBHrW84z0i6FLQkMjUaEzapuI1tyo9/IY4k+Q4TQgiCpHl9r6W0sG2wrD2Brqmks2XyJQ/PB10Lgh3X9evlIFJRa9rLcLqmsrwjyfKOJBev72L7QFBza9dQnprj1c8bHi/xL/e9yn2P93LOSW2Yukap6rC8I0F3R3JaM1GmoREJm7gT5SvKlSA5fnCsSGtDuB5o+b6P5yOzW0LMIQmwhBDiIAxdpWtRnPamCFXHo1xxyBQqqIqCbQa7BHPFKsPpEg2xII9KVRXUGQQqS9vi3PChtWQLVVzXR1GCPodPbuznwWd2MZIpc+9jvVOeEwsbvH3dUtafvOiQgZ2mqUwuihq6STRsUJjYhTgwWiQcMqhUXXzfR1UUGhNBorwueVtCHBYJsIQQ4nWo6p6K8vGIWd+lN6kxYaMAo5kymqZSrbmkYjbGNOtgQZAgv2/Pw987ZykbzljMc68N8eLWEUw9qFT/6vYxcsUadz+4hfse7yUaNlnekeD339Q9rWU/RVGIhgwidlDkNFeoomsqihIsX/b2Z8nkKzROtPBRgicRsiR/S4iZkABLCCEOg6FrdLUnaGmIoGsKA6NFBkYLRGwjqCyvKuiaWt/tNxOWoXHuyYs49+RF9WOu6/HESwP8/IleCqUahbLD4FiRLbsyfOzSNSxqikzr2oqiELYNwvscD9sG2UKF8VwFVVNhovVQJKTTlAjRlApLoCXENEiAJYQQh2nvoqedbTEA8sUqqhokrZcrDrlilYaYPaPlwwPRNJXzT2vn7DWtDKaLjGXK/PtDWxhKF/n/fvgMbzurk2RUp3+gRNsiB3uGFSA0VSE1sdzpev5ESQufYtlh6+4MuVKNpkQI1/PqhU4VRcHz/MN+b0IcTyTAEkKIOaRrKsva4/h+sLzoej6lisPOgSwjmRK6qqKqCo7n4QMaCmFbn3YPw0mmobGkJcaSlhjdHQl+dP9rvLxtjP96cnv9nI27NnLNe06hObXvPNX0TM5UqQR9IMOWznC6yMh4Ed8Pgr1YyMD3wfF8mpOyQ1GISfJdIIQQc0xRFCYrK2hqkPO0YkmSdLZCqVKj5nhBTSpNoVJxGUwX8WHWrW5iYZM/fvfJPPfaMA8+uxNdVRhOFxjNlPn/fvgsXW1xFjVFaGsM092emHXApesqzclwsPSpKNScoOejigIKbOvL0j9aIBY2SUZtGhIzqyEmxPFEAiwhhJgHhq7tlyAPQYNny9TYMZitN3MGH8vQiYWNaRcbVRSFtSe2sPbEFsrlMhtf28LDG8vsHCrw2o40r+1I189d2ZniTae1s2ZZ46yW9SbvydBVEvqe5PzoxI7ETK7KyHiJxlyIRU0RYmET3w9m8gxdm9EGACEWKgmwhBDiKFIUhUVNEUxDw/N9DF2lXHEYGS8xminREA/hA77no2nTr+4etjQ+8Z6TGBqvMjBWpH+kwO7hPD19GTbtSLNpR5qGuM3KziStDWFaUmFaGsKkYrOfdVIUpV5R3nU9xrJlsoUqTQkbx/UYz1cxdZWmZIjWhrC08BHHNQmwhBDiKAsqx4f2HIhBImqxvT/I29K0oIq843qAj23qRCZ6J74eVVXoak/Q1Z6oHxvLlPnNC7t58qUBxrJlnnhpYOpzFGhvjnL5hStYttfzZkrTVJoSISpVl8GxIgoKkbBBrebS25/F9XwWt0Rn3GRbiIVCAiwhhDgGhW2D7sVJ8sUqlhHUwKrUXArFGul8hZFM0MJHUxU839+vx+LBNCRs3v2m5Vx8bhcvbxujfzTP4FiRobESQ+NFXNdn11CeW+56ntNWNNOYsOlsi7O6q2FWS3uWqWGZe4JHy9DQdZW+kTyWqRGeyDvTNRVz4n0KcTyQAEsIIY5RlqFhJfYEJ2HbIBWzaW2M0D9SYHCsCICPj15166UipsM0NE5f2czpNNePeb7PeK7Czx/v5bevDPL85uH6Y7ap8ZYzl/DWs5Yc9tKeberUah49uzIoEwGVripEIyYdzVFsU6NccbAtXSrKiwVLAiwhhFhgDF1lSWuUhriFqiqUKg49u7MUSjUiIWPW11UVhYa4zYffcSLrTmqjty9LOlfm5W1jjOeDwOvZ14ZwXY9sscpHLl7NycubqDkePj6mPv1iqrGISXiizpYP9ZytQrGKpqlUqi7RsMGixgjJmCVLiWLBkQBLCCEWIEVRiIaDGauwbeC6Pr0DWWo5D0v3D/v6KxYnWbE4CQQzW8+9NsTdD26pz5oB3H7vy1y4dgmPvdgHwOUXrmDtqpZpB0N7J9NrqkZzIkSp7ODhEw+b5EpVNu1M05oK09YUkfpaYkGRT6sQQhwHWhrCGLrKruE8o+kimYLL8HiZ5gb9sAMTVVE488RWli9O8tLWEVJxmyde7OelnlF++fSO+nn/ct+rPP3yIG85czErO1OzmnUK2XvuNRWzqdZc+kYL5IpVFrfGiEcssvkKKNQrzgtxLJIASwghjhOpuE04ZDAa01Arw7Q2hcmVXXLFKhHbQFNVUIIlRnUWwU8yanHBaR0ArFyS4v/850Z2DGR5+7qllKsuv3hye73m1uKWKO88bxknLp1doDXJNIKZrUyhyuad40Rtg2yxgqFpLF+skIialCoOlqFJ2QdxTJEASwghjiOWoZGMWkRsjSWtUTx0xrIVxrIlnJqDD+QKHr4CUduYdfV4Q1f5+GUnA3sKj65d1cIjz+/myY397BrK848/fZFkzOLEpSkSUYvGRIjTTmiaUa7W5PWTUYtyxaFYdkhGbfLFGtsHsoQsnVyhStjWaWuMEI9aUj1eHBMWXIC1detWbr75Zp577jkikQiXXXYZ1113HaY5/d0zt912G3/1V3/FhRdeyD/8wz8cwbsVQoijKxo2iYZNFjVF8H0fb6KieiZXYSxbrs9uhW0dRVHwfZ9qzcMwDj3Lte/MVFMyxOUXruDt53Tyq9/u5LEX+hjPVabU2rrnEYOLzlzCW85cPOOZrckipgDJmEU6V6ZSdYnYBvlSjdd2pElETJqSYUwjmM1yXA9NDZpxSwkIMZ8WVICVyWS4+uqr6erq4pZbbmFwcJCvfe1rlMtlbrzxxmldY3h4mO9+97s0NjYe4bsVQohjx941rGxTr5d7GMuWGE6XGMmUggf9YFkuW/JoituzWt6Lhk0u27CcS87rYvPOcbb3B22AXtueZixb5j9+08PweJH3X7SyHvRM9jecib1zsCxTw3E98sUa47k0igr4QcCoagqNcZu2xkh9Y4AQR9qCCrB+9KMfUSgU+M53vkMymQTAdV2+8pWvcM0119Da2nrIa/z1X/81F110EX19fUf4boUQ4tgWsnQ6mmM0JcMUSjVK5RqGoWEZGjsGc4xmyyQjFvoseweausZJyxo5aVnwD1rX83n8xT5+8tAWnnhpgFe3pzF0lWLZoVZzOf+0di49v3vWS3y6ppKM7emNuHdT6uFMmUy+yqKmCM2pEMYMlymFmKkFlRH4yCOPsH79+npwBXDJJZfgeR6PPvroIZ//29/+ll/+8pd85jOfOYJ3KYQQC4tlaDTEbTpaYrSkwiSiFssWxYmGDLKlKkPjRcbzFWqOd1ivo6kKF5zWwUcvWYOmKoznKgynSxRKNaqOx4PP7OKWO5/jn+99mR8/sJlcoXpYr7d3U+rmRAhT1+jtz/Jq7xiDY0Vc9/DejxCvZ0HNYPX09HDFFVdMORaPx2lubqanp+d1n+u6LjfddBOf+MQnaGlpOZK3KYQQC140bLJ6WSPlikOhXGMsWyaTr6ApajDrVKkRtoxZFTY9fWUzyzrijI6X8XyfsKUzMFrkzl9tYvtAju0DOQBe2jrChy8+keWLk7Pa9bivkK1jWRqFUo2e3ePkimE6W2PTbjMkxEwsqAArm80Sj8f3O55IJMhkMq/73P/7f/8vpVKJj33sY3N2P77vUywWD33iNJVKpSl/iiNLxnt+yXjPn7kcawWIWhBpsojbCv2jRcoVj3jIYHi8AL6FokCp7BCy9GknklsatDfuWc5riMX55BUn82LPKLqm8vQrQwyPl/m7u18gYuuc1N3Am09fREP88GtfGSooBuzsTzOeyQPB7FoyZhELm4Ttmf1qlM/2/DqS4z2bXMCDWVAB1myNjo7yt3/7t/zv//2/Z7Tb8FBqtRqvvPLKnF1vUm9v75xfUxycjPf8kvGeP0dirF3PBx8KZRgbqdLf5+F5PrquUq15xMLaYZVJ6GoI/mw5K8pjr0DPQJlC2eGpl4d4+pUhwqaKqsJpyyKs6Qy9/sUOwfN9hgd9UMD3fKqOj6mrNMZ14rN4H/LZnl9HarznKk5YUAFWPB4nl8vtdzyTyZBIJA76vG9/+9usWrWKs846i2w2C4DjODiOQzabJRwOo+szHwrDMFixYsWMn3cwpVKJ3t5eurq6CIUO7weHODQZ7/kl4z1/5musF+cqbN6VIWLrLG6JMjJeZmS8RHii7MPhWrUiKLPQ25/jkef72bwrQ6ES5E395uUcqhmlszWK5/k0Jmyak6EpuyVno1CqUa66YOtEwgamqaEqCmFbJzJRymJf8tmeX0dyvLds2TJn11pQAVZ3d/d+uVa5XI7h4WG6u7sP+rxt27bx9NNPc/bZZ+/32Nlnn833vvc9NmzYMOP7URSFcDg84+cdSigUOiLXFQcm4z2/ZLznz5Eea9sOgWqQiFpEQgbNDR5D6SL9IwWyJZdIKChkerj5UyevCHPyilZGxkuUqw4vbh3lF09u55Hn+6ecF4+YfPyyk1ncEjuM92Tjuh6lqku26OIWa+D7aFqNVMyiKRE6aDFT+WzPryMx3nPZVHxBBVgbNmzg1ltvnZKLdd9996GqKueff/5Bn/fFL36xPnM16atf/Sq2bXPDDTewatWqI3rfQghxPFJVhfbmaP1rTVNZ1BQlEbUYGS8zli2RzgaJ7KqqkIxYh9XOpikZzFYsbonRELf49fN96FrwC3EoXSJbqPJ3d7/ABae10z9SIBo26W6Pc/LyphlVrNc0lWhIhb0S+KuOSzpTYTRTIhULsaw9jmloeJ6P5x1+c21x/FlQAdaVV17JHXfcwbXXXss111zD4OAgX//617nyyiun1MC6+uqr6evr4/777wdg9erV+10rHo8TDodZt27dvN2/EEK8EYRtg842g7bGMJWaG9ShSpcYy5YxdZVY+PCrqq87aRHrTlpU/7pUcfjePS+yrS/L/U/taUD9xEv9hK2tXHB6Oy2pME3JEJ2tsRnPVJi6RkNCw3U9RrMlNFWhORWif7RAsVgiU3AOu4yFOL4sqAArkUhw++23c9NNN3HttdcSiUR43/vex/XXXz/lPM/zcF33KN2lEEIICCrCT5ZASEQt0tkyg2MFRjIlQpZONGTUAx3PC5LNZ7ucGLJ0rnnvqfz04S1Uqi5L2+JkChU29owylC7xiyf3BF2/d04nl6zvmtVykKapNMRshtJFMvkKNdfDc1z6xqpEt4+zZBE0JcOHnQsmFr4FFWABLF++nNtuu+11z7njjjsOeZ3pnCOEEGJuaKpCUzJEMmYxlinTN5JneLyEqir1rfGe55OMWTNuBj3JMjQ++LapKR/vOr+b5zcN87stwxRKNbbuznD/UzsoVRzednYniah1kKsdnD4RZDmeR8K0KJcV4mENz/fZ1pclW6ixpDWKoasoioJ+GMuiYuFacAGWEEKIhUvXVFoawsQiJpl8JaimrkA0ZJLOlukbKWCbOrqmYM9BgryqKqw9sYW1JwYFpn/9/G5+8tAWfvO7Ph79XR+rlqa44PQOVnWmZhQI6bqKvlczFEVRiIYMDNNiLFuiUA6q0Ju6Rld7gugsCrKKhU0CLCGEEPMuZOn7JZ5HwyaGrpEtVKjUXEYzJRrjocPO19rbm07vIBE1efCZXUHbnO1pXt2ennh9g9NPaOatZ3eSnMXMFkzM1CVClKsuigL5Uo1tfRnaGiJkC1UMXaWlIYRt7nnvlZqLJdXkjzsSYAkhhDgmaKpCR0uUDqKUKw7b+jKMZIKEcs/3MXSNkKljmYcXjJy6oplTVzQzMl7i0Rf6eGrjAMWKQ75Y4ze/6+OJl/pZf0o7F521hETEnHGulqIo9eDRMjRGs2W27EqjKSqO7zGeL9OcDBG2DdLZMplClc7WGKk5qFIvjh0SYAkhhDjm2JbOso4EoZECqqqiaZAr1igUa2SLFWJhc8os0Gw0JUNctmE5v/+mboplh11DOe5/agc9uzP8+vnd/Pr53agKtDVG+ODbVtLZtn+rtkNRlGBGazLPzPd98qUavf1ZVCUIHHVVpbc/iz6xw1IcHyTAEkIIcUyyTZ2u9qldOorlGsPjJYbGSpTKDomoVV9CdF1vVnW21In8qROXNrCqM8XmnePc90Qv2/qyeD70jRT42zufZ8MZHXS3J1i5NDXjRPzJWTBFUYiFTWJhE9fz6wVLxzJltu4ap7UhTDIWzGRpqlJPlBcLjwRYQgghFoywbbC0zSAZtdg1lGMsVwbfx0cBfEKWcVgJ5YqisLIzxcrOFJWqS6FU455fb+WFLSM8+MwuHnxmF4saI3zq/afj4/PajjQhQ6E6ixpYe1eDT8UtCqUa2/qyWEYBH1DVYIkxZBmYukoqbhORZPkFQwIsIYQQC04iahG2DYrlGqWKgzHRbLq3P4Ntavg+1ByXkHXg/oHTYZkalqnxsUvX8NymYV7pHeOVbaP0jxb4x3teJJ0rk8kHuwV1TeEP9AbOOHHRIa56YIqiEA2bhEMGjuuhoOB6HtWqR7FcouZ4DI0XWdwSoykxt4n/4siQAEsIIcSCZOgqiahVr2Xlej6FUpX+0QKmHgRHw5kS8Yl8Lc/3KZZqQRmIGRQCVRSFtataWLuqhZ1DOb5z1/P09gft15JRC9fzyBVr/OsvNhMO26zqTM36PamKUl9+NFCx90rJyher9OzKUKo4dDRHpb7WMU4CLCGEEMcFbaI3oqoqpOI2tqkzlC4yki6RK1bBh3DIYCxfpjkRmtXM1pKWGFe/cw13/nITq5c18p4Ny3GcKt+/53f0Dlb43j0vsuH0Ds5e3Ybn+zQm7MNOxp8UDZuYhsvuoTylikNjPEQ0bMyoz6KYP/K3IoQQ4rgRtg26O5L1r5e2xWlOhkhny0ET57DJtr4MmUKVRMTE95nxctuaZY38xcfX17/2PYW3nhbnic0OG7el67laAIamclJ3Iyd2NdC1KE5LanaB3STT0GiM22QLVcYyZSxTIxG1aEqESET3lJRwPZ9azcWW4OuokZEXQghxXAvbBmF7T3J4R3OUrbsyjGZL4IN9mInxEMyeffjtJ7BtoMh9T2xndLyEokCh7PD85mGe3zxcf+3zTlnE2WvaZt2vUNNUUhM7DctVh9HxEqPjJRqTIaIhg3LFIVeq4boeSxfF6+eK+SUBlhBCiDeUVMxiZWcSCKqo7xjIMZYpBw8qBMVMLW3GbXoURWHNskbWLGsEwPd9dg3l+d3mYXr7s2wfyLJ7OM9dD2zmF09uZ9XSBrYPZElETa5+55opQeB02aaObepUHZfR8RLD6SKaomKaGrWax67BHCFTl5mso0BGXAghxBuKoihTmjwbmspwpoSlqzgu5IoVRsarpGL2rGeZJl9nSWuMJa0xAArlGk+/PMjDz+1iPFfhqZcHABgcK/L3P3mBT1x+KpFZBFkQ9DxsTISmHPNtnZFMiZ1DOWJhE8vQiEfMWdUKEzMnAZYQQog3tFTcntKmplJz6R/O0z9aQFUUNFUlFjYOOzCJ2AYXrl3MBae28/Qrg4yMl2htCPMfv+lh11Ce//X9J+juSHBydxOnrWw+7GVLRVFIxWzSmQoj42UUgn6Li5oiNMRtPB9Gx0tEw8asZs/E65MASwghhNiLZWh0tsWJhExKVYdiucZopkxjIjSlOOhs6brK+lP21Mta0hbjB//vJUYz5Xrz6bsf2kwiYtGcCnHx+i6696loP+3X0lQaEkHw6Ho++VKVLbsyLGlxqdRc+obzJKIWy9oTUsR0jkmAJYQQQuxDVRWaU8GSW7XmoqAwmilNzGgpJGPWlN2Avu/P+rUWNUb44sfOYWC0wKu9aZ59bYjdw3nG8xXG8xW27HyedScv4oQlSdqbIjSnwrMK9DRVIRGxKJUdtg/k8H2f1MSOxK27x2ltiBCT2aw5IwGWEEII8TpMQ6OrPU7E1lEUSOcqpLMVElGTdK5MpVolV/TIFqrY9ux27KmKQntTlPamKBedtYRsoUo6V+bxF/t5cuMAT7zUzxMv9QOgaQpnndjK+95ywowKpk4K2XrQ41ANgsXGuE2uWKNndwZTV2lM2PUdiQcqKTHZuFq8PgmwhBBCiEOwDI3FE8nq8ajF5p1phjMlWlJhYnYYpzBIzfWoOd5hJcZPikdM4hGTpW1xzljVwu82DdM3kmdgtEil5vLkxgEy+QqXbViObeokY9ahL7qXvQMzRVGIR4KS8eWqw8BogeHxMqm4RWpips73fTwPCqUqhbLD4pbolI0CYn8SYAkhhBAzEAubLFuUoFiu0doYoVopEw9rhBM24/kyzcnwnL7eqs5Uvf2O5/u80jvGP//s5SBf647fArC6q4HLL1yBZWjkSlXyxRqtDeEZB0H1sg81l5GJsg9MNNJWUFAU8IEdA1mWtSfwfHBdj3jUmpP8tOOJBFhCCCHEDO2987BKsMTX2hCmNlJmKF3E0FRUVcHzfBzXwydoUG0Z2mG9rqoonLSskWsuP5Uf/2ozmXyFctXhld4x/vK2p6acq2kK17znFE5YMvPeiKah0bRP2YdJvu8zki2zeec41ZqLj09TIkRTMoxpBO9bU4Pdl2/kptQSYAkhhBBzIGzrnLAkRaFUI1es4vo+mqKSiJoUyjX6R/KUNA1L12ZVyHRv3e0J/n8fOQuAobEidz2wiS27MigE/RZ1VSFTqPKD/7eRP/z9k1jekZiz5tCKEuRtlSoOyaiFD4xkygyPl9A0FU0NZrp0VSVk63Q0R9+QifMSYAkhhBBzJBIyiIQMWhqmLhM2+jZhy2A0W6JccRgZrxKPmHPSCLqlIcy17zudYrmGZepoqkLN8fjHn77Ill3j3PqTF9BUhVVLU5x3SjurlzUcVnAHwUza3kVRmxIhfN/H9Xw8z8fzfVzXZzhdwnE8li9OYh7m7N1CIwGWEEIIcYQpSlD2oTkVolpzGRwrMjhWJFes4fs+sbBJ6DDb2ew9S2ToKn/0+ydx56828er2NKWKw8vbxnh52xhL22L83rqlbN01Tr5Y46zVrZywJHnYOwMVRUHXFNgrjgpZQTX5HYM5WhvCRGxjyrKh5/nsHs4Tj5jHXdK8BFhCCCHEPDINjSWtMVJxG8fxKJSr7BoqUKm56JqKoalY5uHP9tiWzkffuQbf9xkcK/LkxgEef6mf7QM5vn/PS/Xznn5lkHjEJBY2WdWZ4h3rl2LqczPbpKoKDTGbkfESo5ky0VCw4zERsYiGTcayZXYN5YhHTMK2jjFHr3sskABLCCGEOAomW+EkYxa2qdM/UsDzoVhxKFZqJCIWisKczCy1NUa4bMNy3rx2Mfc8vJXNO9N0dySJhQ1++8og2UKVbKHK7uE8L/eO8o5zu+hsiZGKW4f9+rqu0pQI4TgexYrDjoE8plGkrTHMyHgZU9fI5Kv0jxTpbIsd1msdSyTAEkIIIY6yxkSIxok8pmyhys7BHOlcGc/3MTRtSp2roCaVP6veiMmoxdWXrply7F0XdDOULjKcLvH/fr2VgdEit//sZQAits7ilhhLWqPBn4cRdOm6SlwP6m0VSjV2DOSAIH+rUnMZGC0QtnWakqH67suFnLe14AKsrVu3cvPNN/Pcc88RiUS47LLLuO666zBN86DPGRoa4rbbbuPRRx9lx44dxGIxzj77bG644QY6Ojrm8e6FEEKIg1MUhUTUImTplKsuNcelty9LoVQjZOkUyzWKFQcIgqW5CEBCls7StjhL2+KsWpri/qd20LM7Q/9ogULZ4bUdaV7bka6f35IK8aHfW8Xilhhb+zK0N0WIhQ/+O/hAIiED29RQFAVFUbBNnZrj0dufxXGDqviFUo2mZIh4xMTzfCxTW1C7ERdUgJXJZLj66qvp6urilltuYXBwkK997WuUy2VuvPHGgz5v48aN3H///VxxxRWcdtpppNNp/v7v/573v//9/Od//icNDQ3z+C6EEEKI12caWj14cl2fnr4MpWqNsGWwrD1OperSP1qgKRGa07Y1sbDJ5ReuAMBxPPpGC+wczLFrKMfOwTz9owWG0iVuuet5LFOnVHGIhU0+/p6TWdIys+W9fWfgYmGTbKFKT18GTQ2Crl1DORQUfIIAq70pSsScfd/H+bSgAqwf/ehHFAoFvvOd75BMJgFwXZevfOUrXHPNNbS2th7weWeeeSY///nP0fU9b3ft2rVceOGF/PSnP+W//bf/Nh+3L4QQQsxYcyoIogxdJRo20DWVctUhU6gyminj4aMqCsmINavehAej6yqdrTE6W/cETqWKw90PbuaZV4coVRxUVSFXrPKdu57nirecwJmrWnj2tSGGx0ucsbKFRU2RGb1mPGIS9fbsNIzYRr33YaEU9Eu0DZ9M0TmsBtvzYUEFWI888gjr16+vB1cAl1xyCV/+8pd59NFHufzyyw/4vHg8vt+xtrY2GhoaGBoaOlK3K4QQQhy2yRIPe7NNncUtUYbSRVIxm3ypxnC6RNDIJmhto6kq8bA5p0FXyNK56uLVnL2mDU1RaG+OcNvPXmbzznF++IvX+MlDW6hUXQDuf2oHJ3U38razltDVnpj2a+xb/X1yhi4SMrAtnZGxHIPjNUoVh8jM4rd5taACrJ6eHq644oopx+LxOM3NzfT09MzoWtu2bWN0dJTly5fP5S0KIYQQ82IyMR6CelKpmEXN8VCUoEVPoVRleLxELDw3BU33NtkbEeBP3nMKDz+7i/uf3kGl6hKxdTrb4rzaO8bGnlE29oyyqjPF5W9ZQUsqXJ+Rmg1NVYiFDTwPvGN7AmthBVjZbPaAs1GJRIJMJjPt6/i+z80330xLSwuXXnrprO/H932KxeKsn7+vUqk05U9xZMl4zy8Z7/kjYz2/jpXxDhkQMiYDF4WoZeC7NQbTBRzHQ9dVwpZ+RHbmnX9KC6cuT7GtL8uqziSWqTGULvHI8/08t3mE13ak+et/+S3RkEGh7HDmqiYuPW8pL24dY9dwgQvPWDTtRPlKpQJAuVSmWJzbpPfDCf72taACrLlyyy238MQTT/D973+fcHj2Xc9rtRqvvPLKHN5ZoLe3d86vKQ5Oxnt+yXjPHxnr+XUsjrfv+1DzcWsemZLHzqqL4/iYuoKhB02ZfcDzwPF8fN8nZKqzDjJiOvT1Zetfn7lM4YTWFL/ZmGfXaJXxfBWAJzYO8dymYSq1YBrq+U1DvO30OG2pQwdZ3kTu1Y6dOxgenLvlz0mvV5VgJhZUgBWPx8nlcvsdz2QyJBLTW9+98847+e53v8tf/uVfsn79+sO6H8MwWLFixWFdY2+lUone3l66uroIhQ7cxVzMHRnv+SXjPX9krOfXQhlv3/cpVRzyJYd0tky56uJ4PgpB3pM5kauVL9VoiNn75UIdjlNX++wcyuP7wfV//GAP5aqLoavEwgZj2Qr/+dQ4F67t4E2ntVGuuMSj5gF7JpZKZTZt20Xnkk6aGua2MOmWLVvm7FoLKsDq7u7eL9cql8sxPDxMd3f3IZ9///338xd/8Rd8+tOf5n3ve99h34+iKIc1A3YwoVDoiFxXHJiM9/yS8Z4/MtbzayGMdyQCTcDSdp+q4wU5W4CmKZi6RqXm0tuXIZ2roChB8GWbOuF9egjOxsqle4LPpYtS/G7LMGtXthC2De56YBPPvDrEA8/s5oFndgOwqCnCH7/7ZBJRi2y+QjJm1fPLAOyQPefjPZclLxZUgLVhwwZuvfXWKblY9913H6qqcv7557/uc5988kluuOEG3v/+93PttdfOx+0KIYQQxyRFUbAMDWuffKyQpbOsI0FzsYaiQLnqMDpeZiRTIhoy5qzQZ1MyxFvP6qx/fdXFqzlpWSN3P7iZQtlBAfpHCnzzh8+C71MoO7Q3RbjorCV0tx3DWwf3sqACrCuvvJI77riDa6+9lmuuuYbBwUG+/vWvc+WVV06pgXX11VfT19fH/fffDwTV36+99lq6urq47LLLeP755+vnNjQ00NnZue9LCSGEEG9ItqlP2XXYkoowMl6kf6TAyHiRiG1iW0EV9prj4XrenOxSPGNVC6euaKLqeJSrDt+/5yX6Rgr1x/tGCvzLfa+iqQqLGw0uOs877Nc8khZUgJVIJLj99tu56aabuPbaa4lEIrzvfe/j+uuvn3Ke53m4rlv/+ne/+x25XI5cLseHPvShKee+973v5Wtf+9q83L8QQgix0Bi6yqKmKImoxWimzMh4iZFMDR8fXVPxfXA9n8gczG5pmkpIUwlZOp/6wOk89fIgixrDLGqK8tgLfTz98gAjmTK7RquUK+6hL3gULagAC2D58uXcdtttr3vOHXfcMeXryy+//KBFSIUQQghxaGE7WCJsaQhTLNWoOh4RW6dQdti2V3sbgFLZwTBU9Fk0pJ5kmzobTt/TL/jt65by9nVL2dGfZlPPDiKhY7sv4YILsIQQQghx9OybuxUJGdRqLjsn+gZWHRfH9cmVqiQiFooKruPXlxUPV1PCpj8097W85poEWEIIIYSYNUVRaG+O4gO7hnJoqkrXZEPqkQKaqqCoUMjWSEYssoUqPj6pOS4FcayRAEsIIYQQh0VVFTqao6gKGIZWb4mTiFromoLnw/b+DOl8mVTcxvd8RrIlUlEbYw57JR5LJMASQgghxGFTVYWOlj2FPxVFIR7ZUxV9+eIkxbJDImrhuh47BrKMZSs4noeqKKgoWJZGyNSPi5ktCbCEEEIIccTtXf5BUzW6O5K0NdYolB0cx6XmeGQKVcayZVAgYhuErIUbpizcOxdCCCHEgqWqCtGwSXSvJs81xyNfqpLJVRhKl/B9n7Bt4Hk+PqAtoJktCbCEEEIIcUwwdJVUzCYVs7FMjd7+3ERLHxdVUfB9n2q1erRvc1okwBJCCCHEMae1IUKl6pIrVlnaFscyNYrlGuOZPNm0Vm9OfaySAEsIIYQQxxxVVVjSFsfzPAw9qHsVj5jEQwqFtIlpHNu1sCTAEkIIIcQxSVMVNPXYDqQO5tieXxNCCCGEWIAkwBJCCCGEmGMSYAkhhBBCzDEJsIQQQggh5pgEWEIIIYQQc0wCLCGEEEKIOSYBlhBCCCHEHJMASwghhBBijkmAJYQQQggxxxTf9/2jfRML0bPPPovv+5imeeiTp8n3fWq1GoZhoCgLp2P4QiXjPb9kvOePjPX8kvGeX0dyvKvVKoqisHbt2sO+lrTKmaUj8U2kKMqcBmzi9cl4zy8Z7/kjYz2/ZLzn15Ecb0VR5uz3u8xgCSGEEELMMcnBEkIIIYSYYxJgCSGEEELMMQmwhBBCCCHmmARYQgghhBBzTAIsIYQQQog5JgGWEEIIIcQckwBLCCGEEGKOSYAlhBBCCDHHJMASQgghhJhjEmAJIYQQQswxCbCEEEIIIeaYBFjHgK1bt/KHf/iHnH766Zx//vl8/etfp1qtHu3bWvB+8pOfsGrVqv3++8Y3vjHlvLvuuot3vOMdnHLKKbz73e/mwQcfPEp3vLBs376dG2+8kcsuu4w1a9bwrne964DnTWd8c7kcX/ziFznnnHM444wz+PSnP83Q0NCRfgsLynTG+yMf+cgBP/Nbt26dcp6M9+v7+c9/zp/+6Z+yYcMGTj/9dC677DJ+/OMfs2/rXvlsz43pjPdC/GzrR+VVRV0mk+Hqq6+mq6uLW265hcHBQb72ta9RLpe58cYbj/btHRe+//3vE4vF6l+3trbW//9nP/sZf/7nf84nPvEJzj33XO69914++clP8q//+q+cfvrpR+FuF47Nmzfz8MMPc9ppp+F53n6/fGD643vdddexZcsW/uIv/gLLsvibv/kbPv7xj3P33Xej6/JjCqY33gBr167lc5/73JRjixcvnvK1jPfru+222+jo6ODzn/88qVSKxx57jD//8z9nYGCAT37yk4B8tufSdMYbFuBn2xdH1a233uqffvrpfjqdrh/70Y9+5K9evdofGBg4ejd2HLj77rv9lStX+qOjowc95+1vf7t/ww03TDn2wQ9+0P/jP/7jI317C57ruvX//9znPudfeuml+50znfF99tln/ZUrV/q//vWv68e2bt3qr1q1yv/Zz352BO58YZrOeF911VX+n/zJn7zudWS8D+1APzO+9KUv+WvXrq3/Pchne+5MZ7wX4mdblgiPskceeYT169eTTCbrxy655BI8z+PRRx89ejf2BrBz5056e3u55JJLphx/5zvfyeOPPy7LtIegqq//42O64/vII48Qj8c5//zz6+d0d3ezevVqHnnkkbm/8QXqUOM9XTLeh9bQ0LDfsdWrV5PP5ykWi/LZnmOHGu/pOtbGWwKso6ynp4fu7u4px+LxOM3NzfT09Byluzq+vOtd72L16tW89a1v5R/+4R9wXRegPr7Lli2bcv7y5cup1Wrs3Llz3u/1eDLd8e3p6WHZsmUoijLlvO7ubvkemIWnnnqK008/nVNOOYWrrrqKp59+esrjMt6z88wzz9Da2ko0GpXP9jzYe7wnLbTPtiwAH2XZbJZ4PL7f8UQiQSaTOQp3dPxobm7mU5/6FKeddhqKovDAAw/wN3/zNwwODnLjjTfWx3ff8Z/8Wsb/8Ex3fLPZ7JQcuUmJRIKXXnrpCN/l8eXss8/msssuo6uri6GhIX7wgx/wh3/4h9xxxx2cccYZgIz3bPz2t7/l3nvvref/yGf7yNp3vGFhfrYlwBLHrTe96U286U1vqn99wQUXYFkWt99+O5/4xCeO4p0JcWR8+tOfnvL1hRdeyLve9S7+7u/+ju9973tH6a4WtoGBAa6//nrWrVvHRz/60aN9O8e9g433QvxsyxLhURaPx8nlcvsdz2QyJBKJo3BHx7dLLrkE13V55ZVX6uO77/hns1kAGf/DNN3xjcfj5PP5/Z4v3wOHLxwO8+Y3v5mNGzfWj8l4T182m+XjH/84yWSSW265pZ4HJ5/tI+Ng430gC+GzLQHWUXagteFcLsfw8PB+uVlibk2O777j39PTg2EYLFmy5Gjc1nFjuuPb3d3Ntm3b9is7sG3bNvkeOAJkvKenXC5zzTXXkMvl9iv1Ip/tufd64z1dx9p4S4B1lG3YsIHHHnus/i8fgPvuuw9VVafshBBz495770XTNNasWcOSJUvo6urivvvu2++c9evXY5rmUbrL48N0x3fDhg1kMhkef/zx+jnbtm3j5ZdfZsOGDfN6z8ebYrHIQw89xCmnnFI/JuN9aI7jcN1119HT08P3v//9KbXzQD7bc+1Q430gC+GzLTlYR9mVV17JHXfcwbXXXss111zD4OAgX//617nyyiun9SETB/dHf/RHrFu3jlWrVgHwq1/9ijvvvJOPfvSjNDc3A/CpT32Kz372s3R2drJu3TruvfdeXnjhBf7lX/7laN76glAqlXj44YcB2L17N/l8vv4L55xzzqGhoWFa43vGGWdwwQUX8MUvfpHPfe5zWJbFt771LVatWsXb3/72o/LejkWHGu/JX06/93u/R0dHB0NDQ/yf//N/GB4e5tvf/nb9OjLeh/aVr3yFBx98kM9//vPk83mef/75+mNr1qzBNE35bM+hQ433Cy+8sCA/24q/71yamHdbt27lpptu4rnnniMSiXDZZZdx/fXXywzKYbr55pv59a9/zcDAAJ7n0dXVxfvf/34+8pGPTNnGe9ddd/G9732Pvr4+li1bxg033MBb3vKWo3jnC8OuXbt461vfesDH/vmf/5l169YB0xvfXC7HX/3VX3H//ffjOA4XXHABX/rSl+QfGXs51Hi3tbXxv/7X/+K1115jfHycUCjEGWecwSc/+UlOPfXUKefLeL++iy66iN27dx/wsV/96lf16uHy2Z4bhxpv13UX5GdbAiwhhBBCiDkmOVhCCCGEEHNMAiwhhBBCiDkmAZYQQgghxByTAEsIIYQQYo5JgCWEEEIIMcckwBJCCCGEmGMSYAkhhBBCzDEJsIQQQggh5pgEWEIIcYTdcsstrFq1irGxsaN9K0KIeSIBlhBCCCHEHJMASwghhBBijkmAJYQQQggxxyTAEkIcNwYHB/nCF77Aeeedx8knn8yll17Kj3/84/rjTz75JKtWreLee+/lm9/8Jueffz6nn346n/jEJ+jv79/vej//+c+5/PLLOfXUU1m3bh2f/exnGRwc3O+8rVu38j/+x//g3HPP5dRTT+Ud73gH3/rWt/Y7L5fL8fnPf56zzjqLM888ky984QuUSqW5HQQhxDFBP9o3IIQQc2FkZIQPfOADKIrChz/8YRoaGnjkkUf4n//zf5LP5/nYxz5WP/fv//7vURSFj3/844yOjnL77bfzsY99jHvuuQfbtgH4yU9+whe+8AVOOeUUbrjhBkZHR/nnf/5nnn32WX76058Sj8cBePXVV/nwhz+Mrut88IMfpKOjgx07dvDAAw9w/fXXT7nH6667jsWLF3PDDTfw8ssvc9ddd9HQ0MCf/dmfzds4CSHmhwRYQojjwre+9S1c1+U//uM/SKVSAHzoQx/ihhtu4Dvf+Q5XXnll/dxMJsO9995LNBoFYM2aNVx33XXceeedfPSjH6VWq/GNb3yDlStX8q//+q9YlgXAmWeeyTXXXMNtt93Gpz/9aQBuvvlmfN/n3//932lvb6+/xmc/+9n97nH16tV89atfrX89Pj7Oj3/8YwmwhDgOyRKhEGLB832fX/ziF1x00UX4vs/Y2Fj9vwsuuIBcLsfGjRvr57/nPe+pB1cAF198Mc3NzTz88MMAvPTSS4yOjvKhD32oHlwBXHjhhXR3d/PQQw8BMDY2xtNPP80VV1wxJbgCUBRlv/vcO8gDOOussxgfHyefzx/2GAghji0ygyWEWPDGxsbIZrP827/9G//2b/920HMml/WWLl065TFFUVi6dCm7d+8GoK+vD4Bly5btd53u7m6eeeYZAHbu3AnAypUrp3Wf+wZhk/eTyWSmBHxCiIVPAiwhxILneR4A7373u3nve997wHNWrVrFli1b5vO29qOqB1408H1/nu9ECHGkSYAlhFjwGhoaiEQieJ7Heeedd9DzJgOs7du3Tznu+z7bt29n1apVwJ6Zpm3btrF+/fop527btq3++JIlSwDYtGnT3LwRIcRxQ3KwhBALnqZpvOMd7+C//uu/Dhjs7Nui5qc//emUvKf77ruP4eFhNmzYAMDJJ59MY2MjP/rRj6hWq/XzHn74YbZu3cqFF14IBIHd2Wefzd13311fVpwks1JCvLHJDJYQ4rjwmc98hieffJIPfOADvP/972fFihVkMhk2btzI448/zlNPPVU/N5FI8Ad/8Adcfvnl9TINS5cu5QMf+AAAhmHw2c9+li984QtcddVVXHrppfUyDR0dHVNKPnzpS1/iQx/6EO9973v54Ac/yOLFi9m9ezcPPfQQ99xzz3wPgxDiGCEBlhDiuNDU1MRdd93Fd7/7Xe6//35++MMfkkwmWbFixX4lEz7xiU/w2muv8Y//+I8UCgXWr1/Pl7/8ZUKhUP2cyy+/HNu2+d73vsc3vvENwuEwb3vb2/izP/uzenI6wIknnsidd97Jt7/9bX74wx9SqVRob2/nkksumbf3LoQ49ii+zGMLId4gnnzyST760Y/y7W9/m4svvvho344Q4jgmOVhCCCGEEHNMAiwhhBBCiDkmAZYQQgghxByTHCwhhBBCiDkmM1hCCCGEEHNMAiwhhBBCiDkmAZYQQgghxByTAEsIIYQQYo5JgCWEEEIIMcckwBJCCCGEmGMSYAkhhBBCzDEJsIQQQggh5pgEWEIIIYQQc0wCLCGEEEKIOSYBlhBCCCHEHJMASwghhBBijkmAJYQQQggxxyTAEkIIIYSYYxJgCSGEEELMMQmwhBBCCCHm2P8fNQ9yZQpdb3UAAAAASUVORK5CYII=;" vertex="1" parent="1">
                    <mxGeometry x="10" y="100" width="600" height="400" as="geometry"/>
                </mxCell>
                <mxCell id="3" value="" style="shape=image;verticalLabelPosition=bottom;labelBackgroundColor=#ffffff;verticalAlign=top;aspect=fixed;imageAspect=0;image=data:image/png,iVBORw0KGgoAAAANSUhEUgAAAlgAAAGQCAYAAAByNR6YAAAAOXRFWHRTb2Z0d2FyZQBNYXRwbG90bGliIHZlcnNpb24zLjMuNCwgaHR0cHM6Ly9tYXRwbG90bGliLm9yZy8QVMy6AAAACXBIWXMAAA9hAAAPYQGoP6dpAAEAAElEQVR4nOy9eZwcdZ3///p8qqrPuZPJfZGEhCshIGhiENaoy+Kty2oANej3p1HjhbJfgXXZZXEB2VVUUGE9vkE8EBdlATUuhxJJEAUP7iMJOSeZmczRd9fx+Xx+f3yqqqu6e2Z6enqS6eTzfDwgM9Vdn/7UZ6qr3vU+Xm8ihBBQKBQKhUKhUDQMerQnoFAoFAqFQnGsoQwshUKhUCgUigajDCyFQqFQKBSKBqMMLIVCoVAoFIoGowwshUKhUCgUigajDCyFQqFQKBSKBqMMLIVCoVAoFIoGowwshUKhUCgUigajDCyFQqFQKBSKBqMMLIVCoVAoFIoGowwshUKhUCgUigajDCyFQqFQKBSKBqMMLIVCoVAoFIoGowwshUKhUCgUigajDCyFQqFQKBSKBqMMLIVCoVAoFIoGowwshUKhUCgUigajDCyFQqFQKBQN5eDBg1ixYgWefPLJoz0Vn3Xr1uGKK67wf9+6dSvOOOMMDA4OTsrnKQNLoVAoFApFQ/nGN76B008/Ha961av8bbt27cJ1112H9evXY8WKFVi+fDn2799f1/g7duzAzTffXPf+AHDuuediwYIFuO222+oeYzSUgaVQKBQKhaJhDA4O4p577sH69etD2//yl7/gjjvuQC6Xw5IlSyb0GTt27MAtt9yCAwcOTGic9773vfjJT36CbDY7oXGqoQwshUKhUCgUDePee++Fpml4/etfH9q+bt06/PGPf8R9992Ht73tbUdpdmHOP/98WJaFLVu2NHxsZWApFAqFQnGUuPnmm7F8+XK88soruPzyy/GqV70Kq1evxle/+lUIIXDw4EF87GMfw5lnnom1a9fie9/7XsUYlmXh61//Ot70pjfhtNNOw3nnnYcbb7wRlmWF3nf33XfjAx/4ANasWYPTTjsNb37zm/GjH/2oYrx169Zh48aNeOKJJ3DhhRdixYoVeMMb3oB77rmnpmN68MEHsXLlSiSTydD2jo4OtLS01DTGL37xC7z73e/GGWecgTPPPBNve9vbcPvttwMAfvazn+HTn/40AOADH/gAli9fjuXLl+Pxxx8HAAgh8M1vfhPnnnsuTj/9dLz//e/Hyy+/XPVzpk2bhuXLl+Ohhx6qaV7jQW/4iAqFQqFQKMbFZZddhiVLluBzn/scHnnkEXzrW99CR0cH7rzzTqxevRqXX3457rvvPnzpS1/CihUrcPbZZwMAOOf42Mc+hieffBLvec97sGTJErz00ku4/fbbsXv3bnzzm9/0P+PHP/4xTjzxRKxbtw66ruM3v/kNrrnmGgghcMkll4Tms2fPHnz605/GhRdeiHe96124++67ccUVV+DUU0/FiSeeOOJx2LaNp59+GhdddFHda7Ft2zZ89rOfxZo1a3D55ZcDkPlbf/rTn7BhwwacffbZeP/734877rgDH/3oR7F48WIA8MOOX/va1/Ctb30L5513Hs477zw8++yz+NCHPgTbtqt+3qmnnooHH3yw7vmOiFAoFAqFQnFU+PrXvy6WLVsm/vmf/9nf5jiOOPfcc8Xy5cvFbbfd5m9PpVJi5cqV4vOf/7y/7Z577hEnnXSS+OMf/xga98c//rFYtmyZePLJJ/1thUKh4vM/9KEPiTe84Q2hba9//evFsmXLQmMODAyI0047Tdxwww2jHs+ePXvEsmXLxB133DHq+77zne+IZcuWiX379lW89sUvflGceeaZwnGcEff/1a9+JZYtWyZ+//vfh7YPDAyIU089VXzkIx8RnHN/+1e+8hWxbNmy0Np53HrrrWLZsmXi8OHDo855vKgQoUKhUCgUR5kLL7zQ/1nTNJx22mkQQoS2t7W14YQTTsC+ffv8bVu2bMGSJUuwePFiDA4O+v+tXr0aAPywGQDEYjH/50wmg8HBQbz61a/Gvn37kMlkQvNZunQpzjrrLP/3rq6uis+uxvDwsD/Xemlra0OhUMC2bdvGve/27dth2zbe9773gRDib9+wYcOonwcAQ0ND45/sKKgQoUKhUCgUR5k5c+aEfm9tbUU0GkVXV1fFds+IAWQob+fOnVizZk3VcQcGBvyfn3zySdx88834y1/+gkKhEHpfJpNBa2ur//vs2bMrxmpvb0cqlarpeIQQNb2vGhdffDF+9atf4cMf/jBmzpyJtWvX4oILLsC555475r49PT0AgEWLFoW2d3V1ob29fdS5Bg2yRqAMLIVCoVAojjKUVgaUNE2r+t6g8cI5x7Jly3DllVdWfe+sWbMAAHv37sWll16KxYsX44orrsDs2bNhGAYeeeQRbN68GZzzmj57LDo6OgAA6XS6rv0BmXh+zz334NFHH8XWrVuxdetW/OxnP8M73/lOfOlLX6p73JHw5trZ2dnQcZWBpVAoFApFk7JgwQK88MILWLNmzagemIcffhiWZeFb3/pWyFsWDCE2gtmzZyMWi01IABQAIpEI1q1bh3Xr1oFzjn/913/FT37yE3z84x/HwoULRzxW79h2796N+fPn+9sHBwdH9L7t378fnZ2dFd7CiaJysBQKhUKhaFIuuOAC9Pb24q677qp4rVgsIp/PAyh5pILer0wmg7vvvruh8zEMA6eddhqeeeaZuscoz4WilGL58uUA4EtPxONxAKjIHXvta18LwzDwgx/8IHSsnsRDNZ599lmsWrWq7vmOhPJgKRQKhULRpLzjHe/Ar371K/zLv/wLHn/8cZx55plgjGHXrl3YsmULvvOd72DFihVYu3YtDMPARz/6Uaxfvx65XA4//elPMW3aNPT39zd0Tm94wxtw0003IZvNhnSvMpkM7rjjDgDAn/70JwDAD3/4Q7S2tqKtrQ3ve9/7AABf+MIXkEqlsHr1asycORM9PT34wQ9+gJNPPtmXYjj55JOhaRq+/e1vI5PJIBKJYPXq1Zg2bRo+9KEP4bbbbsPGjRtx3nnn4bnnnsPWrVurhgAHBgbw4osv4uKLL27oGgDKwFIoFAqFommhlOIb3/gGNm/ejP/5n//BAw88gHg8jnnz5uH9738/TjjhBADA4sWL8fWvfx1f/epX8aUvfQnTp0/HRRddhK6uLlx11VUNndM73vEOfPnLX8ZDDz2Ed7zjHf72VCqFr33ta6H3esKpc+fO9Q2st7/97bjrrrvwox/9COl0Gt3d3bjgggvwyU9+0s9V6+7uxjXXXIPbbrsN//RP/wTGGL7//e9j2rRp+MxnPoNIJII777wTjz/+OFauXInvfe972LhxY8Vc//d//xeRSAQXXHBBQ9cAAIiYSKq/QqFQKBQKRRlXXXUVdu/eXVUpfirxzne+E69+9asbbmQCKgdLoVAoFApFg/nEJz6Bp59+Gk8++eTRnsqIbN26FXv27Knq2WoEyoOlUCgUCoVC0WCUB0uhUCgUCoWiwSgDS6FQKBQKhaLBKANLoVAoFAqFosEoA0uhUCgUCoWiwTSdDtbOnTvxxS9+EX/+85+RTCbxjne8w9e8GI2hoSHcdNNN2Lp1K4aHhzFv3jxccskluOiii+qax5///GcIIWAYRl37KxQKhUKhmFrYtg1CCM4444wJj9VUBlYqlcKGDRuwaNEi3Hzzzejt7cUNN9yAYrGIq6++etR9P/3pT2PXrl347Gc/i9mzZ2Pr1q3413/9V2iahve85z3jnosQYkLdwkca07ZtGIbR8K7eikrUeh9Z1HofOdRaH1nUeh9ZJnO9G3lfbyoD684770Qul8Mtt9zid+xmjOGaa67Bxo0bMXPmzKr79ff34/HHH8f111+Pd7/73QCANWvW4Omnn8YvfvGLugwsz3O1YsWK+g6mCvl8Hs8//zyWLl2KRCLRsHEV1VHrfWRR633kUGt9ZFHrfWSZzPV++umnGzZWU+Vgbd26FWvWrPGNK0A2uuScY9u2bSPu5zgOAKC1tTW0vaWlpeFeKIVCoVAoFIqmMrB27dqFxYsXh7a1tbWhu7sbu3btGnG/2bNn45xzzsGtt96KHTt2IJvN4pe//CW2bduGSy65ZLKnrVAoFAqF4jijqUKE6XQabW1tFdvb29uRSqVG3ffmm2/GZZddhre85S0AAE3T8IUvfAHnn39+3fMRQiCfz9e9fzmFQiH0r2JyUet9ZFHrfeRQa31kUet9ZJnM9RZCNCyvq6kMrHoRQuDKK6/E7t278eUvfxnd3d3Yvn07rrvuOrS3t/tG13ixbRvPP/98g2cL7N69u+FjKkZGrfeRRa33kUOt9ZFFrfeRZbLWeyxVglppKgOrra0NmUymYnsqlUJ7e/uI+/32t7/Fli1bcO+992L58uUAgNe85jUYGBjADTfcULeBZRgGli5dWte+1SgUCti9ezcWLVqEeDzesHEV1VHrfWRR633kUGt9ZFHrfWSZzPXesWNHw8ZqKgNr8eLFFblWmUwG/f39FblZQXbs2AFN07Bs2bLQ9pNPPhk//elPUSgU6vojEUImpWIkHo+rSpQjiFrvI4ta7yOHWuvJgTEG27b93yml/r/ez4rJo971NgwDmqaN+p5Gyj40lYF17rnn4tZbbw3lYm3ZsgWUUqxdu3bE/ebOnQvGGF588UWcdNJJ/vZnn30W06ZNU08cCoVCoRgTIQQOHTqE4eHh0HbOOXRdR09PjzKwjgATWe+Ojg7MmjXriOiVNZWBtX79etxxxx3YtGkTNm7ciN7eXtx4441Yv359SANrw4YN6OnpwQMPPABAGmZz5szBpz71KWzatAkzZszAo48+ip///Of45Cc/ebQOR6FQKBRNhGdczZgxA4lEwr9JM8Zgmiai0eiYHhLFxKlnvb2itL6+PgBSXWCyaSoDq729HbfffjuuvfZabNq0CclkEhdeeCEuu+yy0Ps452CM+b+3tLRg8+bNuOmmm/Cf//mfyGQymDdvHq644gq8733vO9KHoVAoFIomgzHmG1fTpk2reA0AYrGYMrCOAPWutxet6uvrw4wZMyb9b9VUBhYALFmyBJs3bx71PXfccUfFtoULF+KrX/3q5ExKoVAoFMc0Xs6Vymlrbry/n23bk25gqWCxQqFQKBQ1onoNNjdH8u+nDCyFQqFQKBQNQTAHgrOx33gcoAwshUKhUCiOIx588EH88Ic/bOiY69atw7/9279BcA7Bec37LV++HN/97ncbOpepQtPlYCkUCoVCoaifBx98EM8880xDe/HecsstrnySAFB7GO4nP/kJ5syZ07B5TCWUgaVQKBQKhSKEEAK2bdfcNuaUU04BAHDbHNfnrFq1arxTaxpUiFChUCgUiuOEK664Aj//+c/x8ssvY/ny5Vi+fDmuuOIKXHHFFXjrW9+KRx55BG9/+9uxYsUKPPzww8jn8/i3f/s3nH/++Tj99NOxbt06XH311RVt67wQYfBz3vrWt+Lxxx/HO9/5TqxatQoXXnghnnnmmdB+5SHC97///di4cSO2bNmC888/H2eccQY+8IEPYO/evaH9ent78bGPfQynn346zjvvPGzevBn//u//jnXr1k3CqtWH8mApFAqFQnGc8PGPfxyDg4PYtWsX/vM//xMA0NXVhW9+85vo6+vDF7/4RXzsYx/D7NmzMWfOHBSLRTDGcNlll6GrqwsHDx7Erbfeio9//ONVJZEghB8h7O/vxxe/+EV85CMfQWtrK7785S/jE5/4BB544AEYhjHiHJ9//nkMDg7i8ssvB2MMN9xwA/7xH/8RP/nJT9yPELjsssswNDSEa665Bq2trfjud7875ZT0lYGlUCgUCkWdCCFQtBwULQZQBxoVR/TzoxFtXNIDCxYsQFdXF3p6eirCc6lUCt/+9rdx+umnh7Zfc801/s+O42DevHm4+OKL8corr+CEE06o8inCH+8HP/gBTjzxRABS6PMDH/gA/vrXv+Kss84acY6ZTAb33HMPurq6AAD5fB5XXnklDh06hFmzZmHr1q144YUX8P3vfx+vec1rAACrV6/Geeed57fRmwooA0uhUCgUijoQQuDztzyK53cPHrU5nLyoC1/6xDkN0Xfq6OioMK4A4J577sHmzZuxZ88e5PN5f/vu3btHMLAkM2bM8I0rAFi6dCkAGd4bjZNOOsk3roL7eQbWM888g9bW1pCRlkwmsWbNGjz77LNjHOWRQxlYCoVCoVAoMH369IptDzzwAD7/+c/jve99Ly677DJ0dHSgv78fmzZtgmmOkNDuOvHKvUleWHDE/VDbfv39/ejs7KzYL2iUTQWUgaVQKBQKRR0QQvClT5yDfNFCsWgiFotCo0e2F+F4Q4SjUW2cLVu24OSTTw4lsP/hD38YZZTJD5F2d3djaGioYvvg4NHzJFZDGVgKhUKhUNQJIQSxiA5wB7GI3hTNng3DGNOL5FEsFisS0u+7776RdxifDFZdnHbaachkMnjiiSf8HKxcLofHHntsSuVgTZ10e4VCoVAoFJPOkiVLcODAAdx///14+umnsX///hHf+9rXvhZPPfUUvvGNb2D79u24/vrr8dhjj43xCeP3YgkhwG0LQoy977nnnouTTjoJ//iP/4h77rkHDz/8MD784Q8jmUxOqV6RyoOlUCgUCsVxxIUXXoinnnoK1157LYaHh/Gud71rxPeuX78e+/fvxw9+8AN897vfxTnnnIMvf/nLeM973tP4iYnaWuwQQnDTTTfh+uuvx9VXX422tjZ84AMfwCuvvILnn3++8fOqEyJqMRcVFTz99NMAgBUrVjRszHw+j+effx4nn3wyEolEw8ZVVEet95FFrfeRQ6114ykWi74sQSwWC73GGEOxWEQsFmuKEOFkwswCCKWgRnRc+wnBIWwLRDdAxshjq7belmXhLW95C8466yxcf/31I+472t8RaOy9XXmwFAqFQqFQTBjprxFHIs8dd999NzRNw5IlS5BOp/HjH/8YBw4cwFe+8pXJ//AaUQaWQqFQKBSKBlKHhSXc/9W4azQaxebNm9HT0wNAamfddtttDY0qTRRlYCkUCoVCoWgq3vrWt+LCCy+c0iFZVUWoUCgUCoXi6CP8/x0TKANLoVAoFAqFosEoA0uhUCgUCkUDmJj36djxXUmaLgdr586d+OIXv4g///nPSCaTeMc73oHPfOYziEQiI+7z+OOP4wMf+EDV10444QRs2bJlsqarUCgUCsXxgwBA6jGV3ArEY4imMrBSqRQ2bNiARYsW4eabb0Zvby9uuOEGFItFXH311SPud+qpp+InP/lJaFs2m8WHP/xhnHvuuZM9bYVCoVAoFMcZTWVg3XnnncjlcrjlllvQ0dEBQAqOXXPNNdi4cSNmzpxZdb+WlhasWrUqtO1nP/sZOOd461vfOsmzVigUCoXiOECU/Xuc01Q5WFu3bsWaNWt84woALrjgAnDOsW3btnGNdf/992PRokVYuXJlg2epUCgUCoVi3BxjhllTGVi7du3C4sWLQ9va2trQ3d2NXbt21TzO4cOH8fvf/155rxQKhUJx3PHggw/ihz/8YcPHTafTuOVbt2LHzp3j3/kYM66AJgsRptNptLW1VWxvb29HKpWqeZxf/vKXYIxN2MASQiCfz09ojCCFQiH0r2JyUet9ZFHrfeRQa914TNME5xyMMTDGQq95LX2FEBWvTUUeeOABPPPMM1i/fn1Dx02lUvjmrbdh6dIlWLL85PHtLDiE4OCcAxh9DSey3owxcM5RKBTcz6ocmxAyrjFHoqkMrEZx33334dRTT8UJJ5wwoXFs256Uzt27d+9u+JiKkVHrfWRR633kUGvdWHRdh2maI74+2mtTCcYYhBAoFosNHdc7fsd2xj+24CDMhnA4MEaz5/LPGw+macJxnFGjXqOpEoyHpjKw2trakMlkKranUim0t7fXNMbevXvx1FNP4corr5zwfAzDwNKlSyc8jkehUMDu3buxaNEixOPxho2rqI5a7yOLWu8jh1rrxmOaJnp6ehCNRhGLxUKvCSFgmiai0WjDvB+TxVVXXYX77rsPAHDmmWcCAN75znfiuuuuw1/+8hd87Wtfw1NPPQVN03DeeefhiiuuwLRp0/z9v/3tb+O///u/0dvbi2QyieXLl+Pf/u3fQAjBW9/2NgDA/73yKuDKqwBIb9ncuXPHnhhnEDZAjAhARzdNJrreuq5jwYIFiEajFa/t2LFj3OON+DkNG+kIsHjx4gqrM5PJoL+/vyI3ayTuu+8+UErx5je/ecLzIYQgkUhMeJxy4vH4pIyrqI5a7yOLWu8jh1rrxkEpBaUUmqaF+t8JIeAU8xC2CUEBeoR74xFjfEbGpk2bMDQ0hF27duE///M/AQBdXV146qmnsGHDBpx33nm46aabUCgU8NWvfhWf/OQnfZmje+65BzfffDM+9alPYdWqVchkMnjyySdRKBSwePFi3Pz1r+OTn/oUPvOpT2D1a88BIQSzZs2qqV+ggACnFJRQkDHe74UFCSHj7kWoaRoopYjH4xWGsjdmo2gqA+vcc8/FrbfeGsrF2rJlCyilWLt2bU1j/OIXv8CrX/1qzJgxYzKnqlAoFIpjHCEEer7/TzD3v3jU5hCddxLmfOCLNRsGCxYsQFdXF3p6ekLyRVdddRVOO+003HLLLf5Yy5Ytw1vf+lY88sgjOO+88/DUU09h+fLl2Lhxo7/fG9/4Rv/nk0+ReVcLFyzAqlWr6jBWhNQpHedeU5WmqiJcv349kskkNm3ahEcffRR33303brzxRqxfvz6kgbVhwwa86U1vqtj/ueeew86dO1X1oEKhUCgaRPObA4VCAX/605/wd3/3d2CMwXEcOI6DRYsWYfbs2Xj66acBAKeccgqee+45XH/99XjiiSdg23ZjJ3KMVRI2lQervb0dt99+O6699lps2rQJyWQSF154IS677LLQ+7xKj3Luu+8+RCIRnH/++UdqygqFQqE4RiGEYM4HvginmPdzgsYbsprwHMYZIqxGOp0GYwzXX389rr/++orXDx48CAB497vfjVwuh7vuugubN29Ga2sr3vnOd+Lyyy+vGm473mkqAwsAlixZgs2bN4/6njvuuKPq9s9//vP4/Oc/PwmzUigUCsXxCCEENBID4QCNxI54DlYjaG1tBSEEGzduDIX8PDo7OwHIPLQNGzZgw4YN6O3txS9+8Qt8+ctfRmdnJzZt2lS213iDfceY+wpNaGApFAqFQqGoH8MwQhIHiUQCq1atwq5du7BixYqaxpg5cyY+9KEP4f777/eLzwzdAACYpjX+SQn/f8cMysBSKBQKheI4YsmSJbj77rtx//33Y+HChejs7MT//b//Fxs2bMBnPvMZvOUtb0FbWxsOHTqE7du3493vfjde85rX4Oqrr0ZbWxtWrVqFtrY2/OlPf8ILL7yAiy66CADQPX062lpb8cstW7DghBMQiUSxfPnymnSlRJWfmh1lYCkUCoVCcRxx4YUX4qmnnsK1116L4eFhvOtd78INN9yAH/3oR7j55ptx5ZVXwrZtzJo1C6tXr8bChQsBAGeccQbuuusu/PSnP0WhUMD8+fNx5ZVX4h/+4R8AAJQSfPHf/gVfvfkbuPTSD8KyLDz00EOYN2/e0Tzco4YysBQKhUKhOI5oaWnBV77ylYrtK1aswH/913+NuN+73vUuvOtd7xp17De+/vV447o3yLw0WodQwbHjwGoumQaFQqFQKBTHKMeQcQUoA0uhUCgUCkVDqcdSOsasKygDS6FQKBQKxZTh2DG0lIGlUCgUCoXi6HLs2FU+ysBSKBQKhULRYI5Bi2mcKANLoVAoFIoaEUIZDpODCP0zaZ9yBP9+ysBSKBQKhWIMDEOqlOfz+aM8k6lMI4yXyTWAvL+f9/ecTJQOlkKhUCgUY6BpGjo6OtDX1wdAtpfxmiwzxvzWM0e62fNUQjg2uGMBhIBygNDa14JbFgSzQRwOykd/bz3rLYRAPp9HX18fOjo6jsjfSRlYCoVCoVDUwKxZswDAN7I8OOdwHAe6roPWI655jCA4g2AOAIDoBgipfS0EsyEYA9E0EG1079JE1rujo8P/O042ysBSKBQKhaIGCCGYPXs2ZsyYAdu2/e2FQgG7du3CggULEI/Hj+IMjy52egDW4X0ghCI6ez60WLLmfc2+3XCG+6C3dCM664RR31vvehuGcUQ9jMrAUigUCoViHGiaFrpRcy5jWtFoFLFY7GhN66ijFXUQSkAIEItEoI1nLSgFpYChkzHXsFnW+/j1ZSoUCoVCoWgcQgDE/2Wcu3IQEBxLRZrKwFIoFAqFQtEQiADqqgQUAiAEx5KFpQwshUKhUCgUjcHzYI3bUHINrGNIoFQZWAqFQqFQKCaM4BwAqc9EEtz1YI2h0dBEKANLoVAoFApFAyiZVuNRTBdCyPcTegz5r5SBpVAoFAqFohFw1wuF8Yb65HuJm4N1rLQjUgaWQqFQKBSKCSOCP43LvvLe7ydwNXBWR4+mMrB27tyJD37wg1i1ahXWrl2LG2+8EZZl1bRvb28vPv/5z2P16tVYuXIlLrjgAtx7772TPGOFQqFQKI4XvET18e4mSvsKHDOVhE0jNJpKpbBhwwYsWrQIN998M3p7e3HDDTegWCzi6quvHnXfvr4+vPe978UJJ5yAa6+9Fi0tLXj55ZdrNs4UCoVCoVCMgSsAKk2scYYIRZ3G2RSmaQysO++8E7lcDrfccgs6OjoAyIaP11xzDTZu3IiZM2eOuO9//Md/YNasWfjOd77jq++uWbPmSExboVAoFIrjBAE/zDceL5T7VuLJNBwjHqymCRFu3boVa9as8Y0rALjgggvAOce2bdtG3C+bzeJXv/oVLr744uO6y7lCoVAoFJMKF3VJWQmIgEyDGP8AU5SmMbB27dqFxYsXh7a1tbWhu7sbu3btGnG/Z599FrZtQ9d1vO9978Opp56KtWvX4j/+4z9CzToVCoVCoVDUj/A8WOO1snyPFfUGOiZomhBhOp1GW1tbxfb29nakUqkR9zt8+DAA4Atf+ALe85734BOf+ASeeuopfP3rXwelFJ/73OfqnpMQAvl8vu79yykUCqF/FZOLWu8ji1rvI4da6yOLWm+JVShAmCY4s8HzeWh6bfdHYZswi0UQSmVBYT4Pohsjvn8y11sI4YYqJ07TGFj14nXdfu1rX4srrrgCALB69Wrkcjl873vfw6ZNm+ruxm3bNp5//vmGzdVj986XQaw8RLy94WMrKtm9e/fRnsJxhVrvI4da6yPL8b7e2vABELsIwh04aQci3l/bjo4FfWgfQCgAAScLQBvbPJms9Y5EIg0Zp2kMrLa2NmQymYrtqVQK7e0jGyKe12v16tWh7WvWrMGtt96KPXv2YPny5XXNyTAMLF26tK59q1EoFLB7924smDMLRnEYRvdCECPasPEVYbz1XrRoEeLx+NGezjGPWu8jh1rrI4tab4l5UAfMAoRjwZixCFrb9Jr241YB1gGAaDoEY4jOXw6ij2zkTOZ679ixo2FjNY2BtXjx4opcq0wmg/7+/orcrCBjGUCmadY9J0IIEolE3fuPRDweBzWHEaGAPgnjK8LE4/FJ+TsqqqPW+8ih1vrIcryvN4lEISDAKUE0FoNR41pwDaARA8SIQTAbsXgctAbnwmSsd6PCg0ATJbmfe+652L59O9LptL9ty5YtoJRi7dq1I+43d+5cLFu2DNu3bw9t3759O2KxWEM9UI1CCAHHLIIVKz12CoVCoVBMSYSQKg11JLkLX2hUyTQccdavX49kMolNmzbh0Ucfxd13340bb7wR69evD2lgbdiwAW9605tC+1522WV4+OGH8e///u/Ytm0bbr31Vnzve9/DpZdeOiWfNvIFB4cGczDTQxDMOdrTUSgUCoWiBmQVIRmnlpXwdz22WuU0TYiwvb0dt99+O6699lps2rQJyWQSF154IS677LLQ+zjnYIyFtq1btw5f+cpX8M1vfhM//vGPMWPGDHzyk5/ERz7ykSN5CDXDIVC0HOQzGSTNArRE69GekkKhUCgUIYRjh6v9BHf/He9A7n6egRXYXwgOCAFCm0/HsmkMLABYsmQJNm/ePOp77rjjjqrb3/zmN+PNb37zJMxqcnBsgVSmiI58RhlYCoVCoZgyCMFhD/WB5YcRm3Oib/zIfs2k1LO55gEhjSgQV0urZGGxzBC4XURk2twGzf7I0TQhwuMNAYGcoyPTewCsoHKxFAqFQnH0EULAHuiB3b8bwiz6/QdFKHeKQLjbaxzV3a0yB0sIBuE0Z99gZWBNYZgRRyqVR/7Qbjipfph9e8DyythSKBQKxVGCOXDSAwA1AAgZwgPgGUl1VeF57XGI58EKwDmE05y5yE0VIjxeeGpXCsgJLJoewWCWg+3vx4xcBgaVirc0lmjKeLRCoVAomhuZE8Vl7hVzSt4mIUq9ngkp5VXVOm7gh5CJJUTTFnspD9YUYyBt45Z7d+IHT9ogBGhvjSGNBA4WozAj7WDZIbDsMIRjw8kOB54eFAqFQqGYZITnqaKh391f4CVgifFUEQZCi+VjCs4AwSp3agKUgTXFaEvqSMY0DBeBFw8WoVGC9pYoCibDvr48hvMM5uAhFA+8BOvQLrBceuxBFQqFQjElEYLDTvU1z8OylyNFXS+VXzkoSjpY9YwJyH1FOMldCA4hRPOsTwBlYE0xDGHh012/xbrYM3jsZZlvRQlBezICTSPoyQAH9x9CsVCA4AxOM30xFQqFQhFC2CZYLgVhN0sit5AhQqK5ho8obQcAkDpChLKCsOTBCrzEWdOKjyoDa4pBrQJmFl/BW+J/wSsHhpAulFyj8aiOtmQcQyKJQzkKW0+A5YaVF0uhUCiaFSFcY6Q5DAjfqKI0bPiURfnGZRD5YcdKoVHBeWCNmgtlYE0xeKIDpGsedMLxKuMV/Pa5dCiWrWkyZJjLWzgwUIRlC+XFUigUiiZFCFEyIpqBkChoyfARvnq754ka5/EEjz/4M5dhyPHkdE0VlIE1BdGXrgYArI6+jN88l8IPtw3AtEsGFCWukVWw0V+gsLIp8GL+aE1XoVAoFPUiuJQiaBYDwvVaEUIrqv38VjkEAB/P8QRzt8L7Ce5GccalqzU1UAbWFERbfCYE0TBHH8YifQBPvpLD17YcQl/a9t9DCEF7MorhPMPgUA5ObvjoTVihUCgU9eElcDdLFKJKEnoIP41qnM2eyyKNpdc4VA6WomGQSAJ25wkAgI/MfwHtcYKDwza+9sv9ePFgwX+fphG0xCMYKhBkB/qbVitEoVAojluEcMNgzWFACCHC6VZBHSyglKw+XpkGUva791mCQwjWPAZoACU0OgWJGhrYvJUQQ68gmdqFL8zXMXx4AB1iGN9+5A0wX7sCKxckAAARgyKvRzA0MIy2OWkYrV1HefYKhUKhqBXfe9UkBlY4Vyr4e8DLRLwXax4UYX0Hz2jzvFfj09WaKigP1hQkYmiIT5+D7ClvgwBB5PBLmIEBRAjD3ycexx1bD+HXTw2DuzHuZCKKTN7G8IE9sp1OLnWUj0ChUEwEwRmc9EBT3lQU40QIgLPmKVQS3PVSISzH4Lu1XA/WeHKwhAApN9zc7aH/mgxlYE1RWuIG7Okngq18O0SyC2LxGohIErO0FM6NPo8tf03hO7/pA+MChkbBY60YGs7BHjwE89AuONmhijGFY7uCds13oioUxxPCNuV3WIX9j32arYowmH+Fcs9SMHg4zuMhwX+C7XcEgCbKUQugDKwpSiyqIR7RUew+GeJvNkGc/EaIk94AAHhr8mmcGOnH8z1FPPiM9FYl4zFkWASm0QYAsHp3g+XD+ljczMun4ibtTK5QHDe4N5ZxJQormhPB3TBhc/ytRUgyIahPFQ4RjqtVDucohQhL+Vte+FQpuSsaikYp2pJRFCwHDnNP1HkrIaYtgiZsfLz1f7HS2IP/fSqFPYdN6BqBEAJDWRM03ip7FWYGQ2MKZkOYBQjbPApHpFAoakV4/2+Sm66ifoSX5D7JxrTgDNwqjP3GMQcq/Vie5C4g3BAhxnfuhoynKnpYvDm/C8rAmsJ0tMXQ3Z5AtmAiV7ABQiDOei/EjBNBBcOlrb/DNJLGndsHwIVAMmYgnbVRMB3QWAIslwIPGFPctsDNPLhdPIpHpVAoxsQv3W++m4pinLhVcpPtoWG5NKzBgxMfSPBAOjrxdaqE/z+5fTwGo6wiDLbJKQ8RKgNL0WAiOsXs6UnMn9EGEGA4a4JTA+Ks90B0L4EGjr9v+SMOpWw8s68AQ6fgnGE4Y4IYMXC7CF7I+uMJqyifYoq5o3hUCoVibAI3FsUxjcy/wuQbEIJD2ObEc3CDxhAhpfH8cevwYAU9X37DZ/jGJ0Dcf5sLZWBNcSgl6GiNYuGsNrTEDaRyFjgIxKnnQxCKk/UDONXYjweeTkEIgUQsglTWQsFiIFSHkxn0vwDcLoJoBlghW1LHVSgUUw/vhqvsq2MecaSaGQsuP4tPrHBCcBYysODfS9xjICi10amVgEp7uGOO+x0g49PVmiooA2sqQigI1SCcknJ7PKpjzvQWJOM6MnkLSE4DFsuWOm9PPIn9gyZePFhExKCwGcNwuggaTYAXMhBWQeZfOTZoNAE4dhN1blcojke85OHmu6koxglnANxKwklECA44zoQ/JxjKJISUjKNQeLBaheGogyJYRijKQoSEUGVgKRoDiSagtXaB5cN6VtGIhtnTkojoGoYyRViL1kBQHbO0FBZoA3jkeVk1mIgZSGUtmJyCOza4WZAq75yBRmLgzFZ5WArFVEYIt3Kq+W4qirHhxVzpAdo1UCY9qiCE9F5NVPqjzINVCt3JkDYhRBpe4whxC8H9IRHczXvIIGTSDdDJQBlYUxBCCPSOmSB6pKLqIxEzMH9mKzrbYsjZFHzGMgDAWdFdePFgEam8g6ihwWYc6ZwFQgiYmYNwHGlkaRoAgFvKwFIopjRHIi9HcVSwU32+jI5voExykrvg3P1vYoac4FwaUAAAGvBgTeBcFQGZhoAKvN+Wh5CmTGtpOgNr586d+OAHP4hVq1Zh7dq1uPHGG2FZY4e71q1bh+XLl1f8Z5pTU7JAiyWht3eDF7IQzIEQAiyfAbctxKM65nW3YHpnAtlpJwMAzo7tBhEcf9qdBwDEIxqGs0U4xADPZyAcCwLS1Up1A7yQOZqHp1AoRkHmnqgQ4bEKd6ySYeUZKJMdIuRM/scmaKgIHvZgBfOnQu9D7UaXl2eF6v0NZa5X84nuNlUvwlQqhQ0bNmDRokW4+eab0dvbixtuuAHFYhFXX331mPuff/75+NCHPhTaFolEJmu6E8bonAnhWHCG+yAA0FgSPJ8CaZ0GQimmtceRm7UU/OUkElYOJxs9eGJXFK8/pQ3RiIahjImcY8CgJngx65/9xIiCF3PgtglqRI/qMSoUiir47UEmOowy0KYaQgjAcQKhQe6G2iY5BMZlmggmWo3HOUK+GXe88LlGAIzjeIIerFDXZ+7mzDdniLCpDKw777wTuVwOt9xyCzo6OgAAjDFcc8012LhxI2bOnDnq/tOnT8eqVasmf6INgmgGIt3z/d/1jpmw+veC5VPQWzoR0Sm6p7XgcPdJiB14EmtiL+M7Q/PQM2RhTmcEEUPDcM5BK7FBbQuEyi8F0aNghSy4mVcGlkIxJRGB/+qD5obAUv1AMtmwWSkagKvc7utHCSaTuCfdg+V+7gRzsKRB6P7iyjQIP98qKLWAmjxYQggIZgPUM9qCFZWeV2Dy12cyaKoQ4datW7FmzRrfuAKACy64AJxzbNu27ehNbBIhmoHIzEWIzDwBWiyJSNccEEJ8AdGWRARk0asgAKww9mGuNojHXpbaV/GojrzJULA4hGODaNKeJoSAgCg9LIViqtKIBrfcAcsONmXuyjGN4ADnbuqHKyZLaUP/Trya3hWTchA8UJ1eeu94vE1SlwpwqwgF5DGFlEbHkeTOmZvX5ZkjJW0tIbjKwTpS7Nq1C4sXLw5ta2trQ3d3N3bt2jXm/vfddx9OO+00nHHGGfjwhz+MF198cbKm2lAIoX5SoZZsh9Y6zRcQ1ShBx+x5MLtlLtbfxf+Kx3dkkSkwaJRACMBkBMLK+wYWIMOELJdqyv5OCsVxQajnW537F3MhsWHF0cfLrxPMKZMhaMy1WAgB6/D+ir+77zEL9KId6b2jjR1SXSfENa7cCsJgeA+oyb6S2lwMoFrljkHx0iY0sJoqRJhOp9HW1laxvb29HalUqsoeJdatW4eVK1dizpw52LdvH2699VZcfPHFuOeeezB//vxR9x0JIQTy+Xxd+1ajUCiE/h0JrsdhWRbsXBZE02FQDnPhaxDtfwErI/sws3AYDz+TwN+tbAO4g8Gcg7jIQW+bDiJk9aDgAC+kwIYHpTbWcUit661oDGq9a4cV8rCLRbBCHhodf55ooVAABIeZSyM70AuDGJMwS4XHeM5tbhdhFYsgoGC5HMxiAXAckEIePJcLVOjVh2AO7FwGtp6AhpLRYhby4A6Dk82Au/ctwRxY2TRsLQatBnNAcA7LLAIgoNAgbAvcsSFyOfBiHrZpwikWIWxTbs/nQfTRzz1uFmAVC6CCgjAOZllw8gU48TycfB6OaYIIChDbX5/JvJYIISb8N/BoKgNrInzhC1/wfz7rrLOwdu1aXHDBBfjud7+Lf/3Xf61rTNu28fzzzzdohiV27949+huEgJYaBLEOQERlfkXKYmAtC9GV3Y03x/+CzS93YXlnBjoBLEfAbCeIpMIVk6SQAhsqQsTbG34MzcSY661oKGq9x4YUUtDSvWBpBhFrqWsMTXD0D6Qh0n+F0zkEaMfJ5Z45oIUh8OT0kqflCFHTue2Y0Af3QWgG2EAR+tBe14NjwMlg4nNmNvThHrDkMESsVW4TAvrgHhC7CGEMwUk58nMcC/rwAbDkUG33Ac6gD+6FIBTQIwCzQbgDJytA7AK04YMQ8VRgO8Y874hVgDa0DyLaAhACUsyAD2TB+1Kg2QHQ3ACEHgERAk5aBHK1Ju9a0qjit6b6xrW1tSGTqZQXSKVSaG8fn5EwY8YMvOpVr8Kzzz5b93wMw8DSpUvr3r+cQqGA3bt3Y9GiRYjH46O+l2VnwT70CmiyA4RS5IsO9mkaxF9ux6mRA5hVGEBPYTHWLktiOGti1swWtCcjZWMMQeuYCWPa3FE/q5EW/VRiPOutmDhqvWuHpQ/D7tVhzF4CraVz3PsXCgXs+/N+zJg7HxGNwJg9H1qyo/ETnQDCNuGk+qBPmxvIv5k4vJiDM3QIRveCMb0njWI85zYv5mAd4CCRKIyZi+XPAKDpiMxbDhIKlY0fbuZhHQSMaXOhtU4DIMNw1n4hw4OajujcE0F0Q86lh0Pvmgu9Y8aYYwvHhnlAgGoGiBGFcGxwq4DIvGUQxRysXg166zQIxwK3TETnLwfRRzdWWC4F+yD358pyw9DapsOYPh/2wH6w4QRINA4wJtdH0yf1WrJjx46GjdVUBtbixYsrcq0ymQz6+/srcrOOBIQQJBKND6/F4/ExxxXRCIpmBryYg57ohBERGOyeA2fWaTAOPo0L4n/Blv1zsG5FJ2K2AOMUsVgsNAZjCVCNIDbKZ7FcCk4uheiMBQ05tqlILeutaBxqvcfGtmIgUQOxWAx6vWslOKKxOCJUIBqN1j/OJMEKDDYFIhGjodXMDAxW1EA0HjviVdK1nNsMDCQSATEiiEYjoNGon38Uj8dAtIkZhQwOiKEhEo3CcOciHBskEgEiBsA5YrEoaCQGJmxA1xCJ6IiUzVuqq4cNX+5Y7tyjoEYUgunghCMWi4ODgUaj0GMxcIdCUCAWj4/5N3Ccgr+f/D0KPRpFNJGAmYnAicVAo3EI20IsHgMNGGyTcS1ppDOhqZLczz33XGzfvh3pdNrftmXLFlBKsXbt2nGN1dvbiyeffBIrVqxo9DSPCETTEXGf/LhZgEYJWhMRZOevhiAEp0R6IIZ60J+2ETE0ZAs2WHmZK9VCCY/V4I4p+xk2OMFQODZYXomdKhTVEQCvX6ZBCAHiJSOHqrumEEKAM3vCsgGV48oqvclWRq8bV6ZBJrozqfVEqd8eacLDM+Ym0AcbKMvPI5oOIVgp4d1toSZYuLKQ5dOw+vZWGTwg/On9K0pr7b/sJbvXItPAWdnZWWoULTiTBo/XPLrJdN2aysBav349kskkNm3ahEcffRR33303brzxRqxfvz6kgbVhwwa86U1v8n+///778bnPfQ733nsvfv/73+OnP/0p3ve+90HTNHzwgx88GofSELREG/Su2WDFLITgiMd0iFgnxCxZUXhaZB/+vDuHiKGhaDFkcuEvEaGaLBUexXgSjgNhmxB2YxXvWSELO9XX0DEVimOGico0eErwhLj21RS8MQkBOPbEe+NVDCvkNW0qHjNcHSnvb8sdtyqPomEGBHcAxsLXda9akerScHfXXHB5/RdO+G8gHBu8mAUvfwB3KwaD1YJeO5sK47DGYxHMCY1HCNyHC/jnMPFkH6aq0TwCTRUibG9vx+23345rr70WmzZtQjKZxIUXXojLLrss9D7OOVigHcC8efPQ19eH6667DplMBq2trVi9ejU+9alP1V1BOFXQ26ZJpXeriHgkBsOgcDoWInLwOSzW+3DXKzm8aUU7DJ3icKqAloQBXXPtaqoBtnyCHCnuLxwT3LHAbaux1YaCQzC74fldQgiAs5AkhULRjAhwiHo9T36bHfndmoqK7p7oZbn3pAEDS52pKXjMAALeHlaSanA9WPUaEE6qH5wzRDpnuS1xeKWB5TVNhvBf47YlPWdlfwPBGbhVgDALMpm9yjgAXA+W8K/nldfyGjxYjhVKXJd7uR4sxgDQkqesycRGm+4utGTJEmzevHnU99xxxx2h31etWlWx7ViB6hFoLR1whnphtCWQjOvItMxFBMAi/TAGhkz0DNmY3WlgOGNiOFPE9A5pKBFNAzfd7uojxMm5ZUI4NoTTWA+WEMwVvuMAmVhSZxBeyMJOH0Zs1gkNG1OhOOJ4bXLqtRFc46J0w5uCxoYQEMyRN/mGjstDYasph9fLj5cMHUKoNCrq/DMxq+ine0ghUbcdj/eRXljSCxl7IUK7KMOGbp9C/0GbM3CrCG4XoaE9MI4ojePO2/O8CcssaVn5Ib0aloPZfpcRd+eS98v7LEIDivHNQ1OFCBXV0RLyCyA4R1siCifWCRFJwCAM8/UBPHegAEoI4lEdA+kiLMe98BAqv+Qs/EV0ssP+F1IwW3aVMhun9wVAPmFy1vAnEsEcwPWMKRTNivA9UBPwYLkNdEPNc6cSnqepwQ9v0tMxhUOEvoEiQ3XC8yxNwCgUdhHCKkojxDW0wh6s8PlQEh21ZVI9D3uHOJO9ElmhLE/W748ZCBG627ljgWha+L01ebDs8EO2PGHDxpzvKZuaf9ORUAbWMYAWbwGJxsEtGQJMJgw47fMAAEv0Pjy7XxpHsYibi5WXX0DifsmDX0Sez8Ae7IEwC66xwkAiMbBivqGq74LLi2DDleQDiaMKRdPC3RtinTcUEQrlTNFGuYJDgIObxcYOK4QbIhv/MbNcCvbwJOeGcg4CmRsn/FQW4jqC6vx7O7b8j9kQtuXn15beIMN4hFBA08GLeem1Yo6UshDhkKJwLBDvfcHwoWfklIUCvVAvCXmwMOb5K+fAKj1YXoGHm0JCfI/YFDyPR0EZWMcARNOht3SCWwVolKKzNQazVWpbLdF7sfewhUxBVmNEdQ1D6aJfUSi/5G7CoxBw0ofB8mnpZmYOIBhoJAY4lnzSaBCCO/6XvpEIzmT4scmedBSKIML7/4SS3N0cLDI124wI1xsimN3YKmXB674GcLsIXu61aTCcSZFP4lZ3EmBCHhrPSBHclgVJ3AG8akGvpx/nvi+JGlGwYhbcKrr5qoY8P4J/A2aDRmJSkd0qBj9MzjlgYBEQaYQxJ9TuRtSQQVi9TU6gYtA7h+E9bzTXdV0ZWMcIWrwVhMgn1bZkBNr0hQCAJZF+ABzP98iWArGojnzRQbYgjSr/ywGZv8SyQ67b3nLLfRmIEZNPR42sJHQceRFs9JO14H5TU4WiafEToScSIiyFV6Zkz1HB5Y2aswY/vHHpAannmIWo3ii5kXAm/yYBJ5BvsNQxZym14MjrtVWUUQdND69B4HiIEYGwiq78jvRgBT1+ws2Ngxs6FAEDS1YMViayC8eWxlrQUKplCTkredb8CbrnvVdtSQOfNxXP41FQBtYxAo0mQPQohGNC1yhaZs2H0AzEYGG+Nojn9ksDS6MEGiUYysh4PagmkxMBOOnDsqu5bsgKEjc/wNdoaaCBJZ9cRMMv/J7+y5S8oSgUteLfGOs9j4N6RWRK3pgE59LT0uBKQsG9FIE6vEGO7WtDTRZS24n60gTeLAXqTOL2vECcS2+Tq3cVSvQX3DeLCNUghAAv5mW4UtNDlYUyXOg2oNY0sGIuMPlqeVXE9ULygCeqxhChJydR7sHy8q8Eh2emTNlcwlFQBtYxAtEN0HgS3DWWWhJRWNNkG5/XRl/CCwcLKFjyyxaP6cjlHRQsJisJHQvcNsFyKdBY0m2hkIfgdum7RCnYCInu3CrC7N83LqNGhiUbX3YrmN2UyZAKRQhXB6h+D5aXv0LdCvepZ2B5Hg9PrqGR40pjpQ5vkGusNFpYOQRzZIFRNc9iPSFC5sgHY00Ht4vSgHMNrNLfPTwu1XXwQHEBAUqVhX7YjsoxzUBD5YCh5m/yqgiDoUOCEYyxMjwPFi03RUrX8FI4kkBwBpZPjymQPVVQBtYxhJZo8wXkYlEdbMGZAICzoq+AOkX88i/DAABDo2CcIZv3kiFt8EIW3CmCGFH5RONY4GbRP7mJEZUndpULj5MZAEsfDrmSR0NWhzCIyfJgNaHir0IRxM9eqbeqjPNSoReZoh6sgGxAQ7WwgkKe450Tc6T4ZqPV5YOf4YYIvb9LyXwA6vK6MWlQEl33PfiE6qE1COZgAfJ6LmyrpIYgIFM2gFDYzrsXhBPdR5pI8BdSZVuVXTgrvTf8Qmn+pKTl5mQGUNz/IqyDO0HMXOV+UwxlYB1D0EgCoBSCM+gaRWLWYjjJbhiE4dWRndj2YgZ7D8unlqihIZUxwUAA5sDJDYNAkxUbmiGlDuyCLwBHIzEZtw8+zQDgtgkndVhqplg1hhBFIEei4R4sNqFyZ4ViSjDREKFfTg/Iqqwp+H3gHICsEBMN1MLyE9zrOWbPezNJBpavMk+I1L5icg3ki6jvwZC7SuhULxmGZS1syj1PRI+CW4EHaMBfL8HdIgFK3QR4p5QjJ3iVACEqBKNr1V8TnpJ9aECv+0AgjxDyHsSLOWjxVgjbhJbpBbcKFWNOJZSBdQxBo3GQSMyv+mhJRFCcvQoAcEHLs3hb/Ak8/IdXIIRALKKjaDHkivIk5mYeJCLFRommg/vls1KLllDNVfcNhwlZLgVhFWRPxFpPdrdPWKMNIXnxcjCRcmeFYkrgnb683vM47MGait8Hr8+cDG01ML+TBUJddcxJsAaHLMMfAKmeQeXDsGAlD433+riHdMVKNcPV1UJJmDNgNAU9RYRSEE0DicgGy6DUFSiFq4klZBjTa6fmviaqSDTI0J1TlkflHtFY5x3n1Tt5uDlYIlBFqMVboLd0uukwrdIInooPDgGUgXUMQagGLdHmJ6PHIjr4nBUQRgJxUcAb4s/hPexe7DuUBqUElBIcGipiOJUHMwtSjiGAjOWXvjRUN8CyKf937liwh/tAIjE/hFgLvmEl0NgQoe8ZUyFCRZPjVRHWLTQaCghNTY8ud70TlDa0irBUgTm+YxauFlSwGXLD8ZpQU6lODsZCBks9hjC3iq63SXP7+sEvTPLXgrMKw0hv6YQWSwLe+z0jys1hK+lPoZTzJLir4BWAyCjISO3WRp97KUpSGs6dpxfqbWArtSONMrCOMbR4q2/5RyMa4i0JZM7+P+Cnvx1p2o4WaiL/zG8BAG3JCEAIDg3kkMmaoS8IIe4XLnDyE0O6aLljQQgBe+gQRDErE+MNA8IqhJ5EWSEb1lDxcL84hNLGPoF4Fy+oEKGiufE9BRMIERLvPjhFZRpKKt1UNihuyJie+jcdfyVgIHdrspKog5VxnkSFJ1EgtTTr8GA5stWMl0/reZIE4HuwUMXACkG0Up4VZ2VZUaR0Xa9mABIC4ThhFXf381kxB2ugp6oBLTgDK2RBgr0OAztLY7exvWqPNMrAOsagsSSoEYOwpWHTlojA1mLAvNORP/FvAQDLzaeROyzVipMxA1Q3kLG10NOTlGoo+iFCwNVPcUywzCCcdD+coV7QRLtMhtQjslTXNaiE4LAO7wfLDVfMUbhCgIRqUnSvQXgXr2bsWaVQhBBC5tXUGSKURob8mZBA2ftUwk1wJm4IsyHzc73YhNKASnqNu7o5oUTTG5oTVjE/z2ggtNKzNM7rlmyNYwLudZpGk6DRuPdqyWAbKRTnQam8fnsFSIGXiF6qJJR/ozLzixBpIJd7ogSHfXgfrP69YPkUyhFWEbBN0Io+uHJ8lks1tXEFKAPrmIMaUWjJdv8LkYjp0HUNtsMxY+lJ2In50IhA9unf+PtE2zuRYwYKFguME5MepjKvFtGjMHv3wDq0G0TTQI2I/5rgwn/S4cUceDEDVsxWTtKL8Wt6w55c5bjMDz1ONEQohIDVt7fCAyc4a2i+iEJRHS80Ur8Hq/QVIA35TjSSij5zZb3wJjCwG4Kr04MFAaIZ4JMlA+CHCKlfkFQysEhNocnQeziTEg2ucaPFW0ANmepBAn/zYK5XNbzrt1d4RIL5Wprhyz8IL6wb3hmcOaGHcQDQWqdBa+kC1SOwU4crDGhuFcE9UdTQeAAgpGxQNDHmekxllIF1DKIl2uE1a44aGuJRDaZrPBUWrgUAdOZ2gztymyfbkMuXLipEN6C3d1c8QWiJVhjt06G1dPhNpv19NB2skIYQHCyfATdl1WHFRcNvt0AbmkzqqxHX6WoP4RpS5a5tlh2GPdQ7sbEVirFwjQ9RrwcreOP2vg9TyMAqJXu7IcIGebCE7yHSxq/95fXr04zGt+8JzM8L/xI/jOm7GsdcA26bMA/u8h/yqreacT+LwJdekN68UW73rkEqOJPJ7sHrvqbL5HlXrb3SUKNum5wyDxbVQCgFjSXBixnwYlhWgZm5KvpXgCc0ym2zlITfpCgD6xiExt0woWWCEIK2ZASW6y4/8aTFyIsoYsTCKzt2+ftEDA2pnOX3KByLagmNWiwJlh6AM9wHJzMonz4cu8Ld7muykPG78UfFDRHKnIaJerC4W5EYXg/BGdAkIneKo0/VB4wxkO1IIA2Pes/j4GdOoM/dpOF5mjwPFuqUVag2LoS82YvR151bhVAqgXCFOYmmA2ySEt2DTZfd1mYlQ3hsOQ1ezIMXMuCu6LOn21XtekwESuOJKp6n4HsJle9hTObeBlrXSC0s2zWwKkONRNcBTQ+3uwm+rukQnMPJDgeWgYPnM9XzryCT6qluqBChYupB9Qi0eCu4m4cVjxnQKIXtcBi6hsH4AgDA8O6X/H1iER0F00auUL9HiegGSCQOe/AghJWHlmgFZ3ZlSM3TZGlwE1pZ/eJFQybqwZKu8vJcLsGchuaNKZoXlkuNmetnDfaAF6qEyUclILBY73kcCuVIQ63uisTJICAi6d/cG2EAeh4sSkfN6xLMgXV4P0SwO4VXfKPp0jhrwMOfEDyUZhAU/CRUA40m/Bwk2Ut29M9kbtqFZ2BJqQIRMoh8XAMuqL01Ipour9VmHoLZIc+S98AqHNP1iIXHoZE4jPbuUeetRRNgmUF/LYRlQlTNv5Lrwq1i04cHAWVgHbPQWML3DsUjGjpbo8gWZPVf24ITAQDd5l70pWUITKMElFD0D+dr9mJVQ4sl3QucLp+qBGQSZgAviVJeBBvYN5AHxPQm+jTstZkoN7C409i8MUVTIhwbdqoPYhTtN9mwltUZqkIg+bsOwyN4I/Q1H8eZQM2ZrBSepFCZfBSiAUOggTlYRBs170zqXZUptgsujVBNcxvdT/x7znJpWIcDbcREOL9Jb+ko5SCNYVALzmTiN9XAcml5bjAbwAgJ7ISUvPBeOHYEiGvosnxaHneZwUY0A9bAQfe18XuVSCQObhVhD/dC9kHMgjMbRDcq36sbMLpmV32t2TjiBpYQAo899hgeeeQRZLPjfbJT1AoxovDCC4QQTO+IIxHVkSs4aJkvDawF2mHcs/0Airb8UrfEDWTzNoYzE0vi1pLt0JIyP4toOnhBxt79GwXn0n1dZ3IrL+aqyz8ILh+K5YfVfwCQT5qoFiJ07FGfjBXHB8GK1ZHfJHWV6vNClQQW6wkTBkNPBKRkeIxnDMcCy2caq1HlDy4QrKZDvcrr5cO6HhupAzWKXAtnEI4TMn69nwmhbvPjiRtY3MzJvq6esTaqp666bA0r5sBtU4abraLMsbWLEFYBduqwFBithqez5Suij367p5G42w6tsjeglmyHsIoQZmFUA4sVssi//GRFkQAhBFqyDU6qD/bh/bD694GOEB703n8sMKkG1k033YT3v//9/u9CCHzoQx/Chz70IWzcuBFvf/vbsXfv3smcwnEL1SOgWql1QtTQ0N2ZgMM5mNEKOzEdlACx1G7c+mAvijYHpQSxqI7+4QLyxcZcVIlugJk5sHwaZs8OcKtYuvi7oYFxNYnmDGb/vuryD5y596TaqnHG+CDAf8oOwJxRn4wVxwmeSvZoRoEQrszCOM8VL3xGad3nWki528txGu8wnlE2Gee6lyvli1mO3wAccVx/7UY2gAXnALPD3mjBfe0wAky4XY4QAiyXlp/jjiUEhxjJdvByskLzZLD69sA8tAssn4LgTHbrcEw46cPghQxorKX6cFR6sERZT7+RIJGolPdxGz2Xo7V2QgjhVylWI/OXBzH0u58g//KTFa9RPQJCNFiH9wOaLnvnHuNMqoH161//GitXrvR/37JlCx577DF85jOfwW233QbGGG6++ebJnMJxCzEigFsN49GSiCAR01G0HOgzlwIAVkZ7sOewhUeelyrsiagOh3H09GeRK9pgdbfqkFA9Ajg2zP69YNkB18CSFSck8OQqnNqqdlg+DZ5PVXXfC6+8uAHCioLzUl/D4HZmj/5krDhm4GYBTvpw9Rfd8N+o54GnKTTuc8XP0sH4rSJviHDydD1tqbzcnfHMn9smnOxQTfMTgTk2JG/SHVcabu6tbSQDmLOKSkEhWMD4mfhDmrCL8j/OSl5AXjLiqu8U/kxeyIIXs2C5NJzUYT/xm8BtTebljFXDKyIKGLOjIXOtCCAYCKmSNE+IDGmOErpzMgMAUPUBGJCeML1tmq8gHzpWxwIrTv0GzuNhUg2s3t5eLFy40P/9gQcewNKlS7Fx40acd955uOiii/CHP/xhMqdw3EI0Q3ZMd0qGiEYJOlqiMG0GMXMZAGBldD8oOB57KesbU22JCIo2w96DGezcP4xDhydw0rt9xkQxDyGIzMdyHDc0UGpIag32jHwzcxFCyKc2qxju7u69zlzl+UYkz7s3x+DTu9SBcZWelQfrmIdbBThVBBIBuOG/0UPFnnDluD1ArtfKEwitxzAK7yN1sMZ9zorx9QvlxRzMQ7tgDRwY0zgRwvOoBcKYY4QIq33nq40rsw+8VjGukVi2ryfpEgplBT+f0uppCOOAm0W3wEf4D4Sj5TD5ifmBtXOyQ4Ag0Fu7IJjje6uIHoGTGQKtYqgEBpQeOi95f4wQIQCQSAzMzFf1YNWCV9DBzfyI7xmppc7hX96K3ruuH3XfZmNSDSxd12FZ8gT2cq9e97rX+a9PmzYNQ0M1PO0E2LlzJz74wQ9i1apVWLt2LW688Ub/M2pl8+bNWL58OTZu3Diu/ZoNGktWXFiScQMRXYPVMhcikoDOTZwa70eqwPDsfpmwSwhBWyKCiKGBc4GhjOnraI0XQoh8YmntAtE08GKulETpNSRlDKyQ8XO1RoIXsmC5YdBoAsKuZmA5frLmuBOLKwarcnPk3DXcpljJew0odfs6EGLESjKZwD5Gs1nPOBlvcjnKPA7jDu3JzxQhHaw6QpXcLduvYf6C2TD79oBlhqQ0y1gPOBVhq9ENSW7mYfbtrWFcd4zAw5uTGYA10FM+Yek5D0jI+B5wAITqfjeMemHFrJvPRfzrMDfzUtagGpou1841+rhVBMsOgcYSIJSGEuJpLAEaiVX0jw3iF0l4ntYa8ppoNAG9pauuvoIAwAoZAPA7etQKty3Yh/dDOJbvBTsWmFQD68QTT8S9996LVCqFu+++G8PDwzjvvPP813t6etDZ2VnzeKlUChs2bIBt27j55ptx2WWX4a677sINN9xQ8xj9/f34xje+gWnTpo3rWJoRLRKruGjFIjpakjoKDgdmyGT3ddMPAgAefTHjv48QgohBkYwbsByG7ARysgjVpOGjR8DMvAwRujowEEK6um0LzMyNegHlVgGCcb8tTwXMkdVDNejJjIUX2gmFEILGVZOFCFlmEM6wEkgdF8Jr/lvFwPB1pUZLchfwq1HH9bleIpA0EsYtr+Abda6x4Olp1dGGpVYDUTDHTcBuK4VPx5ojSn3mxBgeNuHq6Y1Z2SeE7xPzHiqEZYIVMiFvoxf6DCbwy+uSu7emgTt23WFLqfOUBjGiIITK/q2cgVvmiEnpUuDU8Y0+XshAOKZbsFT2XqpBi7eOPgn3OsgLaSktU4OBRQgZ1WgbDSF4yYM1SnVtNVjAqPK6kBwLjGBKN4ZNmzbhox/9KFavXg0AOPPMM/2fAeCRRx7BihUrah7vzjvvRC6Xwy233IKOjg4AAGMM11xzDTZu3IiZM2eOOcZ//Md/YN26dejp6Rnzvc2OFHGTF5pgVUZbMobhtAU2Yzn0/X/FQmc33pWw0ZXNYu++N2PB/BmhcSKGhuFMER0tUWi0/uoOohuyEkXT/eRWAQFu5sEdS6r12BaI30srjO+hotR18bPQk1bQ/T7hJHe3nU/o5uipJnuvNxGimh6ZYlSEJ37plf2HXnSNr1HOA+Emwo/7XPQNLFcssw7DSIS8Q2XjjmceVY5Rhq0AvTXwcMxlf1Gq6eB2YUyj0hdTdSFjSRQw17Mz1vfOrSQOiqty2/QFjz1lcOFW1wnulK4jTkCegGqAa9CNJIY56jSsotR5iibABYcwi9JwYjbICPpOxM2V444JDYCTTwN0AmKbhALChj3UCy2WrClEOBG4WfD/huM1kpx00MBSIcKaWLt2LX7+85/jiiuuwHXXXYfvfe97/mupVApnnXVWqMpwLLZu3Yo1a9b4xhUAXHDBBeCcY9u2bWPu/8QTT+DBBx/E5z73uXEdR7NCjIirShx+6muJ60jEdeRb5kNoBjQzjb+JPY+VkX3o+usdyPWFjc94REeh6KAwwcpCohnyibE8H8BtFyFFSUd2LcumplqorYP/mvtEKsuLJyDQ6I/nJssGqow8pedmDbc1si3RcYEnx1Hlby29O2MlufPavDmVOwJlD0Xj293zsJb2l2lddeRgeQZmAF7MVTTvlflmQn4/eS0erLK5EDLq+Sk1qyzfo+Rkh6vmbHrHGKxMFLYJ4VgQgQcMwewKxXZpaHkhQk3+fev8znCzUNJ5ohq4Y8p+fsyWocAR8EQ2BbPBi7mqQpy1Qgh1i4rYERHtDArqcmt8RlLwb3ksGViT6sECgKVLl2Lp0qUV29vb23HVVVeNa6xdu3bh7//+70Pb2tra0N3djV27do26L2MM1157LT760Y9ixowZo773WIHoEZm0mE9DS7b78XuNUkxri2NP3oaYeRJIz9PgyW4MZG10k2EU/3gHrNd/HJFEKzB0AFrLNAgBDKSLiER0RPT67HIvJ4BwDhjSI0AE5IVI0+XT5CheFmFbIJTKPmPCDF/EvZwpTQeIvDGKQAhnvE9vngZO2IPlauwAzZeDxfmEy86POzxtphFChKLcw1lt/3ry9fy315fkXspDqjaf8Y0jlbvD+8kwVtn31GuUTD0NqbE9TaHpjaFizq1CIAdS3oSFVYTeNn3EcQVczxdzwB0L3JaeIe8YiGa4142SgRX0YE1EbJSZuVI+l6ZD2JacsxhD8FM3wAs5cNP1gLl6gvVAdANavPWI9fPjxVKKiRi3B0sZWOMmm80ik8lg9uzZ/rbe3l7ceeedsCwL559/fkjGYSzS6TTa2iq1M9rb25FKjVDt4/KjH/0IhUIBl156ac2fNxZCCOTzjTsZCoVC6N9GwFu64TgM5sAh0JZOP6RmaByGJjC48G/QOmcleNscFIbzOPjHH2G2NoQnf/MATl4yC4mdD4F1LUR01XvQP5hFoVDE7GlJRCN1JkHaNuA4oDwBwgBmmSC5jLwPMQZn6DAi0cq/sRACVi7jqrVr4MUCeDYLGhNg2WEAAnahABqJ+rlSIpeDk+oD1XRo5RdijL7edjYLx7LA8jlw92/MclnYXtFGPgeK+tbAGTwI2tJZd65DPdj5nLxwN/B8rQYv5qRhX6WUezLO78nEzuXACgWIfK4iTMQKOdhmESyfhROvvqYsl4NdLMKJ5MDGse7cLMAyi6Bcyh7wfB7Uqd044mYBVrEIgMA0pSHETAuikIOm1e4RcfJ52IUiRD4PTS/N385nwa0CWC7rP7iwXA62acIpFuEUTYh8FhodObTGCnlYpgm9KD3WzLLg5LJg+TxYdhhEN0IVcmY6BVEsgOey0KDDzmbkHMrW1c7lwGwLTrEIZprgmTScQh6wGfjwAIyIrMIzsxkIhwGWBZ7NgkQ5rHwW4ByUuHMyi+DZDLQabpPBc1sIDmuwH+CAUyxKA68orxfctsGKo3npOXgxDZv2wS4WoBsJABOJHBDAPDKpAWaqVLDGrSIKhULNXlgr1e//bOcyKLprJJgNc/dTiMw+ETSgm2Va8piKxQJog69p5Sk1E2FSDayrr74a+/fvx1133QVAGlzvfe97cejQIVBK8f3vfx/f+c538JrXvGYyp4GBgQF8/etfx5e+9CVEIuOPp4+Ebdt4/vnnGzaex+7duxs7IHegD/ZBkAEgcKPIFRj60w5iEQq9IBPd0zPPwOzDD2OleB7Y8QJAAG1wD4Z2P41ibDp6+xgOHdIwvV2HVk/LBLsA2EWIWBtANdBCGoJqEEYM4A6I6IEzUKgsE+YM+uBeCEIBzQApZsAyHEKLQB/aJ8X8BIeItgCcgQgOJy1As/3SRd8S6JUlBIiVg4gkAUKqrrc2fAA0PwQ+lAcblhc4UkhBSx8CBMCy7meNFyGgpQ6CJ9rl5x8haLoX1C7CSddWTVQvWuogeLQFIjZyAm7Dz+9Jgmb7QQtpOFkR+t4AACmmoQ3tBx8qgPdlqu5Pillow/sgoimwwXHc5Owi9KF9EHoUxDHdz6/dMCJ2EdrgISCa9HNNSTENlnHk965GaH4I2nAPWJaBJ0o3QG1oPwiz4KQY4CZsk2Ia2vBBiHga1P0sHh/Z+0ILKWipQ+Bxqb9HrDyEcRhssAiaOggYMfCEm+MlOPSBvYCdB8sKiFgb6HAPqGPBSYWTt2m2HzQ3BBFLgRTTEIM5kPwwQHWIvkEwV3JGH9wrvVfMkteRSBz6wB5ZeemuNS2kwVI2eKKj5jXbvXs34JjQB/dBGFGA6vJ6Y2YgjDgIcyAiwyMPIDiImYOIHgKxChDRdM2ffbSJHNwD/5FRcOze8VLF92YkWob6/Hyl9GAf+l55BQBg9L2E+M5tGJq+BMUTzy3t4Hoq9+7dC3Gwv2K8idIoO2FSDawnn3wS733ve/3f/+d//gd9fX248847sXTpUlx66aX41re+VbOB1dbWhkym8mKWSqXQ3j7yl/lrX/sali9fjrPOOgvptDxhHceB4zhIp9NIJBLQRyqdHQXDMKqGP+ulUChg9+7dWLRoEeLx6one9WLuNwBmh1R/hRDoHSrg8HARbQkDlFJg1hwUHn8J8ex+AIAjKHTCMSv7CuzFp4NzjnTeRkdXHNM7xj9HwRzwfFp60wgByw4CnENrmy5fM3OIzFkMWpboLmwT5n4OGonKasTMAIzZS0D0CKwDjp9jQPQIhG2COzai85bD6o2A6jqMmYv9sbiZh314H5xEF/YeOlx1vc0DFDzbAprsQHTeSXItUn1w+uV5YsxaCq2lo67jt3t1aO0zoCXHv3+92H1x8GIOkXknVbTBaCTmAQqtpQt6oPkrt4vguRTsaNuknd+Tgd2fBMsOIjJ3GWgkPF+WPgyrh0PvnBk6t0LvyQ7COsBBWzoRnbus5s/lxRysHoBGk/L7MHeZDDMxVvG9qLp/IYPs7iIODecxZ84cRKNRONlBRLoXVvXkjoQ9eBBOr4Axewn0jlIBkbmfQFgFROYu9b93LH0Ydp8GrXUaWHoQeve80D7leN8lrXWaO+csYEQQmbMM1gECGkvCmD4fACAcC+Y+BmHmYMxeDL29G+Z+CuFYiM5bGvIu2v1JsEwrtGQHnMwA9NZpYJkW0HgLuFVEZN5iEKrDOiCLAIRZgDHrBNB4G6z9AtA0X6mcZQehdc6G0TWn6jF4OmdE00PX7ggrwI7ZobV20gMgkSiIpo+qhA7IijoSiQOEVJx3U5l8ageCvukFc2bWdI0Tjo3Bx0oSPUlDw+wTTgAA5FI7UAQQ5wV/GyA9V4deeRkLFixAoqP2c7oWduzY0bCxJtXAGhoaClX2Pfzww3jVq16FVatWAQDe+c534pZbbql5vMWLF1fkWmUyGfT392Px4uoXOQB45ZVX8Mc//hFnn312xWtnn302vv3tb+Pcc8+tsufoEEKQSDQ+eTAejzd8XNraDp4bhhYLf7nnR6MgNIt0zkJH3L1QrXwTxPb/B4vG8d3htfh424PQ+l4CZTkg0QlKDaTyHK0tBO0tdSRhJktGHhNtEMyB7s7LdgqI6RR6IgHuWHCG+2B0zYbQABLRQeMJEE2HY0YRjUZcQVUdWrLVd+tyjULYBLFYFMTQQChFPLCeTNgg3AJl0qtQvt5CCCBigMfjoNEI4vE4CCGwChHY0RgAgWgsCr2Ov5FwbBQNA0YsVtf+9VKMRsG5jXg8OnLvsgkihAAMHbqhIRI4NidrwRE2tJg8Vybj/J4MzGgUjmUgHouBxsLzta0YEInAMAzERjgWx8mDRAxoESN0/o0FIxwkEoEWj4MJG7F4XPa0s3KIdo4tL8OEDcuIAKSAaDSKWCwG24ogGo/BGMc8zFwEViSCaMTw/55CcCBiQAgLsYgBzd1umxHQSBR6LAbHjkE3dESD37lCBkSP+EnbthmDFY3633sG2Z4lHouA6BqoRv11ZUUBRDQImkAkYsCIRYGIDlCBWDQaMjqLEQM8FoMWi8E2ozBiMThWBFqyFYzbiOkaSDQGYuggRhQMDNFoBFosChIxQIwYqCGvg4wlQDUy4t/XGuoFSx+G0TkLInBua7kcaCzuHxsA2FYUhFJo8ZaRldddHCsmIwfJtrr1qI4GhbICJQMckdjYaRD2UDi9hzgmYu5+eVMaXjw75G8DSrmxsVjjryWN7IM4qQZWW1sbDh+WyWvFYhFPPvkkPvrRj/qva5rmx1pr4dxzz8Wtt94aysXasmULKKVYu3btiPtdddVVvufK47rrrkMsFsNnP/tZLF++fDyH1ZTQSBwsUArrIRPeY8jkbThMQNcI0DkPYu3/gRFJoP0vDp7rfQ6nRHogXvwtcMa7EI1qcDjHvr4sTJthensctE75Bi0eDrMRQvxKQl7Mg+VS0NumyYRTzmWVEtwEVi8ptixx1BfYY7afmB6UdBCOLL9m2SGAVUtglhVRhGilJGOiyTJxt4Kx3ipFMUJl1qTjfqbgvEJxoGEILnPpAuKN8rPdZOFmk7bwjqdqkrsr5jlKYrbgUsPKK7io/cId0MGSE5F6RsVcTeOMWC043iR3L/k7eK66Sf/lCeAyQdwTNqWhggohBKzBHugtnaDtssBI7lvlO+vYAGey4k5wmePlnjteIYwngCplMsqS0Dn3E9WJvxbEH587JjQj4lcyExDZ7UJ4aueBtaX6iEU3gjO/FyAv5sDaZvprxfKZCu0qQiiE44xpXAGy+ptbhaYyrgCAFcPRJVFjJWEpwV1WfgYlHng+7Y5VADfzR6QaspFMqoF1xhln4Ec/+hEWL16M3/3udzBNE294wxv813fv3l2TdpXH+vXrcccdd2DTpk3YuHEjent7ceONN2L9+vWhcTZs2ICenh488MADAICTTz65Yqy2tjYkEolJz/+aKhBdH/HCm4gZaE0YyORstLe4XqwO6RZ/25kMd9x3Jk4yekB7ngGfuwKYsRTJuAHTYjg0kAcB0N3ZmBOfaAZ4UZb7CseUlTeuMrSUt/HEE4l7kWeoyClyS7SF48ibhFsC7l2wuGNJyYhiAbSaQr2nwE09A0uum2C2LH3GyE1kx0RwgDsVAoaeqONkXVSlmvMkK9C761autyUE83WHmgqvgnAkodGxjCdPpkHAN9Jrwm2VE9RyEsyR3wPHqio8WW1uQYg35jjwjUcnLFUCt81MUOxXMMfPmySUho0vqwBRyIXy8oJ9CN2dAO8YOQNh1Negkv0/AaJR93UHvoYV84xA+TcIG3ok1LhYdpLIg0aTsjqSUoDSkr5W2ZwI1Vx5iErDiOXTEMUc9NYu2S+w4BkCJoirfxWExpIhUdPR0OKtY4uITkGCMg2AbBVUC56BpXfMgDPcG6oiDMqBOJlBRJrMwJpUHazLL78cuq7jk5/8JO666y5ceumlOPFEqR7OGMOWLVuqhu1Gor29Hbfffjs0TcOmTZvw5S9/GRdeeCGuuOKK0Ps452AjtLg4XiGaUVm27UIpQWdbDCACrMyj0xLTsHLlUjxiukbq078AHHkDjUY0JKI6eocKGM40plKF6IYsUWYOWCErvU3uUy0J3iDcC6OvjRUaRAr2ec1cBXdCT9TczLu5EFGQQqlxtJMdBstnfA8TqTCw5EWZTETJ3buQl3lzWC4F6/CB+sasBa8J7iQaOcL3kjlhzw6vblROdeQxVPc2+sfHR1lT79wZd7scaSCVpEVcA4s7tckGeGKbQQgZXRS1TFcOgH+OClH2t4RsMBzs1eeJAMvPoiHji5sFqcfkBK4RvOzByBUa5Y7pPgyUNKj8Yyaaa2C54q0CvpfN6t0NJzvsa+r5x8xsEKq7uxvgxZzrERMAodIYdBXbpThr4JaoaSXvaxksOyTFkqkGYkSkLAF3IOxiSf8qADWiFd76Yw3PwPKqP2tVc/dU3CPdMudOyllIrUGWKxlYrJYm4lOMSfVgLVy4EFu2bMHOnTvR0tKCefPm+a8VCgX88z//M0466aRxjblkyRJs3rx51PfccccdY45Ty3uOJYim+z36qiU5t8QMtCcjGEybaE1GYGil96w+sQVff+lsrGD7ML2YhnjhNxCn/R0AaWQ5nOPgQA6aRtCamFj1BdEjEIWMvCibeQjGpMeJ0kCne+8p2R7B7e42t3UrCyFKIobC87BoOkjUALHzYJlB8KgBq38vtJZOGO3T5Q3Ru8D64aBwi5+RkC0xilU7xpfUvcs8WI41qsjqhAmIpDZkOGaDF/PQgjo9nkHBAurYALhj+2HXpkKMLCorfAPcM8AqvVO+13S8nsPQewMeLOa4ferGqD4VvPJhagyldHu4D4QQGJ2zAsO4ulDBc9U9XqIb4fCZ118U7nfTNdgI1cDyKXm+WAGhT87LwvrUDxESuN5pxwaisuQfmhQY9h+WhJC/MxvCscHyadlKK+iFIkSO514fZAFMUb7Pa9Pjhv6FbbkPVaXrHqEaOKs0alkuBZYd9g0Jokch7CEQRxoH+khPsiOQ3/EkQAgSS84c135HC+5YAHNCXjohhN+HUG+fAav4Ss16Vk5KerCM6fOBl5+Q3zvHlOd9oBl3M/YonFztfMhKu5NOOilkXAFAS0sL3vjGN1ZsV0wORDPkhWaEnBFKCeZ0t6C7I45s3go1d9YowZtfNQM/ya2RG/b8ERjcK39mDlp2PgRj35/QcziLTN5C0XLA6sy3IZoOzhywQhpwLKlrZRbkhTL4dEk0tzeZXRlWcw2gkks+0M3esQH3oksoBbQonFQv7IEDYLkUhJn3vUz+uJ4aN3dzQgiRvb1GgBfzsAd7fI8At83S0/4IuTvCvWhNBv7TuSec2QBYIQc71Vf2QQEvWTBE5FhHJ+9sAghfxR3V5+2FnsTIRqu82cs+gOP13onyf30Da+wwkygX8QzOZwS4mQ95pORG5rel8sfgXh6fIfvruWOGRDo9o8z1IrNCFjQSl8aQNwdeHiJ0w/q25T5Ilb6z3CqCUPmACDc0KVwPH3dsOQ9myXBSoEsE8dTh3e8x0XUIxwY3C/76ECq9YlbfbimpEIBQTX533Ju84AzW4EGYB3dCcO4n7BMqjUPiWOCFyvyr0eBWAUO/uwtDW+8CL89dnIIIIdB/3zfQe/d/gOVLec3CKvj3Fq+CWNTgwRJCwB6UUiKR7nm+yr3Mvw3nTbPMYEOO4Ugy6UrujDHce++9+O1vf+trssyZMwevf/3r8ba3vQ2a1lyJfM0K0XRXndipKgIJyIT3WdOSMHSK3sE8GOdIxOR7l8+J43ezFuOxwaVYE9sB60/3wTjv/4DseBRk9x8RIwSp6SdijyNAQNCa1DG3uwVaHZIAhBDpwXJs0Egc3CrIJwESfLqk8mLNnIreXn6bDDdvS97z3VwNN9RCtSTAbAgjBmEXYacGoMVbwN3+Y0IIUKr5honwFJ8NvZTbMQIimNRNNbfPlkBk2tzAWGFjitsyNNJIkbvShNw8oBHCXfWNyUNeCvkxroK3mwTt43sSm8fA8jxHI4X3hGdsAyMbrayU/zMeD1a5weafL5zX5OWUa18lL3GEeQohpDcq2NfTO08plTl03nnpJYO7Hizh2IBuuOeBp4JOAcf1mFpFCLsIGk3I7wRjgE7d72PwgYm4eV1OyZvlhpplWxu3RZZtg9sWCDzjSHqfBOfQYi1guTS01o7SmIH8KTmua/h5H+smlNNYEtoITZXtwYOg0QSc9GFYh/dDi7VAK5PLIJoGYg1B2AmQeMeYfyMPlhmClzPHCxlQY+wq0aMJN/NwhqRmYva57Wg/S0YymBseJEYMWqLVfe/YBhbLDUtPF9VgdM6WvRvzaWnwl3nAnCY0sCbVg5XJZHDRRRfhqquuwrZt23ztqe3bt+PKK6/ExRdfjGw2O/ZAiglDNF0mdo/RI4xSgukdccztbgXjQC7Qf/Di107D061rkeJxRM1BsN/eBux6TI4vBNqGXkBLzEA8qmEobWIoXf1mIDhD5ulHYA1UzzmSXeVlqEDq/zjgdjHsqfKfZh0ZPij/DMibBPEqiLynUNebEhxLS3ZCS7RJzRnuyBCiG4LwDQM3SVzeVEe+WQHw8zZKT/elMINvgJSHCG1zZG/JRPESsvn4PSkjjykruUKGg3dsggdCskKGWURlWHRK4yenj5Bj5VW0jpJfJQST58u4iwvK3ss5BJdGDS+OHXYRvJRw7kFGMbDApWcs6JGC670LVdLC9WC5OVh+uI7zkEdKHrP8zjAz788dgfOiPKEc7joJ7khjhRD50OE2aiaa4a+lcCy5RFRzjTwZeqTRBLTWDhBPlJW4yfahBzNNGoNeGxuqQW/tGrHnn5ZsBytkYfXthT3QI68TVbTIiBEFcWz5wDcOGRQnV8or8kJsUxkWCNPlXnjML2jh7txpvMXX7qolB8s+LPUWjc6ZMi/WfVjmZsH3kHkOARUiLOOmm27Cs88+iy984Qt47LHH8POf/xw///nPsX37dvzzP/8znnnmGdx0002TOQVFAGpEa0qSJYSgsy2KOdOTcJhA3pT7JKIaLn3DfDzS8hYMsQQMKy0La13FZbL/r9AoYGgEiaiO/qEi0rlKt3dx/4tI//EXSD12T/XP1w0IMw9iuGFNN1k9dNPwwjMoaxwdxK0UIprmSwd4FUmhz6Oa1L7R3CRauwghaxb9HByZv+SOR0k48bfic90Qmec1c+zwjaU8hOZ5vCbLy+MnWzcuROglGocMNi9ECFLy0HkJ/aMlg9c7B8eGkz7csLyy8ODcP7+qyzSUwmcjGq0hI2wcxx74OAK3Mk5wmUPkVtmNurtjV1bWYuRzVnjnalB6wa+kLTMQBZcPLVTzH3A8r1AwROidH7yQBdUNN1/K8b3D5VWEQa8ziCa/s5YJVszK9ABvDOHmZlE3QZ0xsEIG1PVSUSPme4BpNAHdFTT2P0ePSKOgRi8xIRR6Swec7ABoNDGiIUb0iPTU+sdSG7LNl4Q3gYHlBKR+hFVA/qU/Aih5sLR4qx9RqMWD5RX2GNNkqpBnvHIzD+4muEe6F8rPyA4310MaJtnAeuCBB3DRRRfhkksugWGUrHrDMHDxxRfjoosuwq9//evJnIIiAInEpHfFsWt6uuholUYWZwKpnAnGpU7Wm85Zjs3iHXjKmo89dD4Or7gEguog2cMgf/pvkC03IP70z0By/djbm/HDjR7OsMzdsVPVWxwQPQJWzIPoUvmYe/lPAa+TvMCzCmPJfx2AYO4+VPOftLyG0VX38fJlHFs+3wbK5GUOlldlREc1VLzKRe9iINwnW/dFlOdg+Te4UfJ5JoJ/A/QNoEYMyv28tODneFIa3M0VEpyVdMNqMDIEc0KVQ6PBCllY/fsnJTdDBI3SqlWEnvE0stHqhc1GSpQf5dMDAT4hjVXXwAKzQ4m/VXHDbCEIGbHIQDiuhzVYuReUDSkzsEL7eh6sYO6T9/DjNjgmRkSG5+AWirjh13JDRAAQjLnhQB3cMeGkB0spDYQCXEjPIKVy/bnjJsFXeo0I1Sq8TUSPQFjFcLXgGBBNh9E+Y1QVfUI1ECHG3Vg5WBl3NDxYwr0f1IonqUBcL1X2uUell7peD9aA9GBFps+V+0dcQVsr73uwjO757t+ahWQbmoFJNbCGh4dxQkDevpwTTjhhzCbNisZBdQMQDE5uWD4ZBhJUR3oK72qLYcGsViRjBjJ5eWGPGhTvPmc+Nudfj68cfj2++Ks0dutSSZ8cegGEOyC9L6Llj99DIrMfhwZy6Bsq+DcZ70sqzHzVLyHRdBgdM/xmyDLnlYc9WISCM2fUti/S46SV9Gw4kwmuNeb9+U/VXr6RX3lERvUiCM/wcHOqEJAt8D1iAWPKywtz31DT3OpBRiAb5MEKGIWlja5h4GkLAX5oFahcM24VKjyq3MzDHu6rKZTJrQJYIQNroKfmkvCaEQGphBGqCL0E9qoGmO+lqT1EaPXvBctnwu8V8AsEqB6pKdFdMLvSgHClS6q/3w3hhjxY7hyIl8gfDBH6g8qKMt+DFTILwc2c1O1yW9kQoFQB6Ol8BacIuIn1uvyOOo70ZLuGDSFEepY5l14uzzs4Sl5pOUTXwW1zUtpF8XjbuIUwwx6sI58uM/TbH+Pgj66pOb/J82C1nPxaQNPBMoNwUn2w+vYAQMgQFWNUEQohYA+Ue7CCIUJpG2jJDmgtMkqS3/EnZJ/ZOi6j8GgyqQbWwoUL8fDDD4/4+sMPP4wFCxZM5hQUQTQDoDr0tumgekwmhwoBlhkAy45s6CbjBmZ0JWTvQFcna/60KD72xpk4eW4cBMDP+peCEw0iOQ181TshuhaCCIFIz5/Qkojg8HABwxl50y0p9wJOprq2SVh6ISwUCrjGzyj5DgIAmPekq0sjxyrKXK7RciSo7t5wSuMI14NF/MxYEjKQKj7b0+rxwkxclIxYL2cnGDLzjZXGhfDCE3I9DBi9VH9cQ3qhnooSfjfPxfMYeppFtNJQsQ7vh9W/t0wRnLu5PWPr2PFiFlos6RtlDcU3AmiFYejJdsgbPqobLt576MhGWHhMqWAtDVOvKAFScYS53lBa8rCOOA5nEFxUNksf5W8vDTJpvPjFCZ5XioZzsBCsUKSarPD1HiSCuU5wPbdBz7NXbOJ9B8o9WN7rVJPaVYJBOBZooNcgAUrnE9V8OYdaFNIBN+SXbJ8yiuDOUfRg2al+FHY/BeFYKO57wd8uhEDxwEtV5+PlYBldsxGdKZ0n5oGXYPa8DACIBvp2VlSllo+VG5a6ZIT68iDBEKHnydaSbdBbuwAAmT/9Gqk/3I/s9p827Fo2mUyqgXXRRRdh27Zt+PCHP4xHH30U+/fvx/79+/G73/0OH/nIR7B9+3ZccsklkzkFRQAaiUJv70ZkxgKpLGxL8T9ixADwCm9CkHhERzKmo2CW3rNkZgwfWTcD7zirE3vZdFw9/B4cWvV/gLkrIE5+o3xT3w5ECENEp+gdyqFgOqE4fi3hHaK7LSvKnsr1tum+Fk1VBHcv1rK9jTXcC1HMucc7wmdpuqvYHhzH1SHy5XVI+KZT/rFe1ZxnXPgeLTfRm6D01I/SDVSISVI7d70xKCu5n9CQVcJ+QnC5RlRzE6aF7+XyihWC+3OrCHvgIKzD+0tGjJsIPWaeEXPL7Q3ZA6+W5O/xHWBgzcr/Jn5VppsqXTVHq+Sl8Y300XCr5cqNDyHgGzsg8mHBTvVLz1HVcSq9SQAwmg4Wt00/vCe4a7wFc7C8ikq4nksvmV3TZVWjL2tS+n763tKgoadpruCofKAg5cr27oOLF/7jVjHUyNkbF66Wn+/RGi0Pswo0mqjZIJtsWCDJvd4cLOHYyL38REUHhYrPKmRD3//8S3/wf7b6dpd+PrQTA7/+Dvru+SrswYOhMbyHY61tGqJzpGh49tlH3VBwFJEZC/zwodQlG/m8t738q86Zvgey5MEqhQi1RDv0DtliCVQDNB12z0uI7vvTqMc7FZjUs+ySSy7B4OAg/uu//guPPvqov10IAcMwsGnTJlx88cWTOQVFABqJIzpzEQBZHeNkBkCEgNbS4SaLZqG3dFTfl8rGzulcBkDYA/S6k1rx3IECXjoI3Py/fXjXWZ04c9EsiHgHSGEYom8HErNPxlCmiMHBDBBqfzB2ZYiMy9OKnI3RwgLShnFAqeYn3bLMAGiiddTwANF06UUI9DPzbvr+RdyryBrJg8WYWzXHSjc8uF4v7vihDeGG1DwPwoh97yaIF64inlBjI6jmwXJ/9kKynuCol5cVSux3X6eJVjipfuht02R7kLICgZHglim9G9F2eNVnQcmICeN7qWilN803PnTPkqiyf1kYbIy/q8yFcXzvjPD7EQKQviUQQqAl2uBkBmAfPiBvZmXH63lJqxkc/nlQ9prwKnRZyTvmhbIp1cDLwtklA0vz2/cEs8bktGVP0aAmlKeazs0cuGOFRWoBkIDnjhACraWz4jvue2FppLSuTdazz0M4digsyOoMEWaeehiZvzwEe6AHHavfXvU91uF96L/3Fhhds9G17v3Qku3Iv/xE6XU3xCd/3gdAGnz9v7wV0y/YiMi0OeBWQXqcAOit04C5BHjil34eWXT20nDem5vfRYzq4tNWv9RS9MKDQMnAYoWsvzZaoh2tK9dBb5uO2PyTYQ/2YPCh7yMysNt9T/d4l+yIMelm/Cc/+UlccskleOyxx3DggLRY586dizVr1qCrq2uyP14xAjQa92+EerITIATF3DBGUnoHgGTMQMTQYFoM0UjpokYJwcWvnYbbHurDwWEbP9g2gJcPFbF+1kkgr/we5NDzELNPRjIeQbr/INoCY9bS/oDoBrQacywCe7l9Cqnfo4xqUdBRvFeA+1RezJZdtKUAIoIGlnsDdTKDIHrEb4Ph6ff4IUA/T8ltEh2shnQNEqlUr4/qFZsQnselmrFQ75B+b8OAB4uXKsyEbcJrzEsE3C4C4cR+wRxosSSYVfDXwgsRjuVpk7IW0qASrj5SIw0sPzGdVgsRBrxTBFVDhH44GLSUQzgabnsYwVlJCgTw/y0JY1LoyQ7Yw73gVgF623TobdNKx+2db6RMNJMQ1yknELSFhBB+ZwMIAeGprQdCpMFwdml+AKG6TGS3TWkcBaEUwiqGe+p5ieu54aoeJCn9UBqnasWeq87uea71ZEfNFYFTDZYbDv1erweruP8l99/nAVQ3sGQIUIp69t37NUS6F4AXc6CxpBT1zA6B5dPQEm0lAWFNh7AKSD/xS0w////zIw801gIaicHomuXuL42u6Fzp0SJ6xM/dK+57DoRQxBatCD0gs0IWuRd/L/ebs9Tf7hlYznAvIPMNQONJEEJl3hcAvaUTrX/zfvTtfBZ0ircfaqiB5QmJVuOMM87AGWec4f9eLBZDwqOKIwuNJkAiMRDGQOMtUoMk1gJu5kfsmRWNaGhLRjCUMZEzbbTGIzB0ebFtT+j47Jtn4+FnU9jyVAqP78yhff5svAUAel8Cdm5HpH027Hz4KS17uBfWYB4zuhqcE+FWTXlfar29u6byaaLp4I4NLSoNOi/HJqwYX0r8tYd7IThHbNZi+eTmyRK4lXTUU76mcMva3dCIKHnAhGX63oByT4fZ+wr0tu6J9TFzb5a+dhEAs3cP9NYuXxRwfMOJMu+cu93rL6dppebEngervAGw2/+NUC2cx+QlW4/haWNmHl6GAyEahDBdEctxH85IB+mumVaZF+eFDz1LpZox6O3veiZRboCUv50zaVyW5RORKp4vohuyyXAxD7P3FWl0tU13x3HD0FrZQ1JAJDSEK/5JNB3QAo263YpTP4fMO8agrpQbTpe5nGUfRymYWYAWPBb3gY7nM1Ur8rRkx6hr5I3LrVK6QK3J7VMRx01wl/IbFlghg/EKDXO76CeKs/QAnPQAzJ6XYB56BZ3n/IO/Pp7eFInEIawCzAPSKEssezWK+16AM3QQVt8exBetcI0boO3Mv0X6j7+EeeBlONlh38DS26QYKiEU0TknorDrLwCA2Nxl7nYCGo2DF3MY+u2P5GsLTkHn697jG1DpP/0awirCmDYH8RNO94/HK2jwHry1RFtVb6wxczGc4QanBUwCDTWw1q1bV5cK9fPPP9/IaShqgFBNuuiZ4z8paok2OIMHgVFu5rOmJdHRGsVw2sRAuojO1tJTpq4R/O3KDsxoN3DH7w7jf/e14G+mtyLJMiAvPAQBguQ8+WXikSSolQPPDWEwXURbSwSxSONOx/K2QOM5L7V4a/jpmXNwZvueJ+kNEL4RwQtpmH17EJu9xK9yIprmVky54RUv6d1N4hWugSaEAHdMmVwPO+QNkVWPUgl7tL/JmHjyDIS6xgsDL2bAo7G6DCzvRi1QJh7qGlieYja3i6UmwIQCPJCczeywjybgwSqXf6j4eCHAC9lS6MEVj2xY+FN+Cvw1q5qDJW+EUqdqhCR3BHOwxvJguZWqbpUdCYUIURmCo5r82+UF7KFeaMmO0jkvqnmhScAwDEyT2QB3pLxAIP9NSm6Q0kp4DwOBJs2l71TYKwZILwcx4mENKtezyR0LeryO8w5ww7KFxnc7OAp4+VfG9HmwDu2SIXW76Ocw1YLVuyf0kJPf8SQyT/0G4AyxBacisfh0CCFg9cuw37Q3Xgpu5eEM9YLbJlpPfz2EVfANrNjCU30Zndj8U1Dc9wKsQ7tQcPslAoDmGvOATGov7PoLtNYu38gHZDqK59kCgOLe59D785vQ8Zq3gZs5P/+r/TXvCJ2rNBrOqY3NP7nmtZiKNNTAuu66646JE/94weiYGXqi1WItsL3coLI2E/57KEEyZoASgnTOqggXAsCqhUkQAJu3Hsa3h9fikoU9mG4dAMkNAAf+CgAg3YuBA0+DFlOwbAfDGQuzpjXudNQSbWO/aaR9A8aMzJHynvLd4/T7ppkAc6C1TAPPp/xET3mD0/2bFXHzaLybqGzx4YZyeMmDEDQ04P4sHGvMapxa8POgvJuoY4MXckBHHYN5yt1l+UfyWAMJ0IWsDD1RL3+O+/d3qZMVSOT2Q1Buwv9oMhiOJW9EoV5wPNyeZ6IIT2q2Slskz1AZRbKjQkxzjNQ6T0+qstCE+Ll61aCxFjiZAbDcMPS26fC0yCrw/vZlY3mhWlCpPQXXKA4Zee4xe3mFIePNzRskVQzAinCtW/xAqFb3fYLGkqPqUTUDxf0vIr/zz/61VW/vhj3QA2EXpWjqOAws89Au+YOrE5X568P+d8nqfQWJxae71XpZgFBEps+TXq0Fp/pjRLoXIvfC72H17ZH9WN0cVL1tGhInngXr0C7kdjzhVw16HiwASCxeBWe4z/deeWitXXDSh5FYdjaSJ63B4G9/CJYewOBvfuC/J37C6YjOCss4Bf+2sQWnov01b6t5LaYiDTWw3v3udzdyOMUkU57jQKMxV2tH9vtihQyMjhlV81riUR0dbVH0DeZhORwO52hPRECpvHCevjCJN5xq4aFngRv3zMTlr1qCmS//3A95iGknAD3PgHCGBEwMZ3R0tDbWi9UYAlo/XmKtJ9PgyL6FUl8MvkEqBPOrEeXN2S2B97xYgRwsT09KGguu7paLV6kXfBKsB9974hoD3ryZmaspb8mr1iv1HCyFj0LGBSs1/KVGFKyYA43EpIvfz+Vx52QVS3luwTwmx/GNwJEn5HlpArId3vYGEVqzwEOHfJGXjKeR+lIK7grTepWGY8k0MPmfKyoaTpQqeY3KIZSCGhHYw31SK4hXb/RcLdleCC4Tq71j0zRw0/ENrHCePS8Z1kEdOU0rFWmMAaFUJkHH6vfGSm9ocya1e6T+cL8fhgNkThGNt4DZRflQ0j6j5rEs18BKLns1ci88FjrPPOPLdr1XRtesqiHVyMyFcqzD+/1wo97eDUI1xBetROqxe8DSA8inZcW33loysIimo/3sN1eM2bH2QtiDPYjNPwmEUMx852eR/stDyD7zCLR4K1pOPQfJk9ZU7KclO5A48SyAauhY/Y4pU+1ZL5Mq06BoLogRc2P0JoRVgBZLjnqj62yNIuH2HkzGdOSK4fdesKoDJ86KwXIEbnqyBY4eyLNqmQ7EZBVRbOfDSP7uaxjc/fKkHNeEIEQaDoHkXr/izzYBcP/GK5jthriEzE/xehK6wRbBbT8vzGvB4ksSUM3dVhZy40z2ZKuhxdGICK8no9vLzbbkjdyxpKFTBitk/fwQwRxY/fv8kmk5L6+KTquQXvDDR3oE8JoBU1oKtbnHJ/XI3Ca8XkECpKEBYFS1ci9fKSgBIPPtGxgi9NeMVHrqgjINVXSy/Al58gFeI2PHhjVwoHq4kLmdArgAD3ri3H1Hq3ylkYTbVNmSRlqV9xAvRBioBrT698E6vM83eLz2N7JCtHwcUfr7BfWuND1cADIGsu9f9aqy4wEnfThkXAGA1tLhFwOwfO2J7ty2/NBfy2nn+qFFrzrTGToEbuZhef3+ps+vOo7WOk3mv3GG7NOPAIAvi0CNiDR4AAACWrId0dlLxpyb3tKB+IJTSgURuoH2s/4Osy/5F8z8hyvkfKsYe4QQdL7uPehc+/dNb1wBysBSBCCEQEu2ufktMUA3Rr2xxyI6Fs5uw8JZbZjekQDj3BciBWQ48f/8TTdOnBVDwSH4XW5xaedkF5DokJ/b8yyoXYD58h+RK0wxhV43tOW3RgFKhgpz4ItjaZpUExduf0Qq2+lwx5IGhIDbHFneoLxyc09F27+BlnkYBOfSEBpD42ZUfE0neZMVjgXiKuGXa+cIIWAPHYR1eB+EY4PlM2CFVMhL481LlvYHt5c8WF6LI0/NvKQdVspdC4ZcfaV7Jo00wUY5DzzdpeCN3q0uaxjBMGCZ3ldIgsE1wLmZL1VfAQgpnrteLm4VwfLpqvPkzPb12sBLUgi+h2w0A8bVGBOO5VdtVuB3JZAvsnwG9tAh6In2ipCb1OMqSUz4mlZlLXEA18BiI7efUoQp7n0OAEADOWhaS5dfDVdeScjyaeR3/rmqUW71vgIIDi3ZAb1tGuILTwMAtJ7xt9BdL5jZ+4ovhxDprm5gEUIQX3KmHNNTZO+Y6b/e/uq3ovttn8Ss9/4TZr7nqgmlX1AjdlydK81vIioaCo0mQIwItLZpMv+nrJS4nIhbRdgaN9DREsFQ1kJnSyn0GDUo/r/Xd+O7v+3Htt6leF3kOZB4m3zaSnQAARksffAVHB7OIx5t80ONHtbh/Rh86PsQzAaNt6LrvItgdM1u1GGPiJ/QjvLqHleOwTUSCNWlNhNn0ngiGiBsaRi5N06/oXN5j0P3plc1BwuyYo87FihGEVUdFe+OK6sfuV2E69OoyO/ihYxsqsocODlZus3NYthL491odb1kGLnHEUpqBgEcB0TX/ebcfijVD4vCDR+6hryrEzaWWnkFtNTQuyH4IUIKCCecu+S+5iXvC85gDx4Ey6VAjbhMPg+W1XlhRq/ijjmAEZXGLWeg0YTskanpAETFQ43we2BWxzNeS/lUVd5bJo7LzZz00FV4EQiYWQDVDT8Hyw8R+h6sYOK6DuE4INGp4ZUSnGPwoduhtU1HxxTM3ym4BlbrytcDAOzBg4h0Lyh5sMq0sIYeuRPmwR3gZgEtp7w29FruBSlzEJt/EgCgffXbkTzpNYh0L4DVvxdOqg/mwZ1+2C8yggcLABInvgrZpx72f/eFPSGN6JGMM8XoHD+mpKImaDQBraUDRmuXvPA7tYVdKCWY1pFARKfIFcM3x4hO8cFzu2G0T8N/pt+Cr6fehBd6ChAtbml5y3QILQJq55A9tA/9w4VQc2gAKOz6i99awRk6hPzOI6Ti696Yyr0CApA3Frftji+6yGx4+Ulw5QyI67HirleGEOrqJzFwxy4ZJeVaUZx5OpNjN/gdhWATZi9ECKqB6EYo9CeEkErNQoBG4rCH+8BzaVdiIWDUuF46kECI0K2UDN18jYg05ogGT5yVCCEbFrOgcUpK/fB8OYmR+2PKHo/hTcRNoG4UwpP6LPP8yEP1X3WNJwYnMwDuWHBSfX4orZT4Tfx8O68wApCl6PbQITmmY8tWVp7BTYL7jt5z05uHDCWPnA9V6oMpwPLpqgKQRI+AF7Lu3zUwB+HlEJYZe673rGECrxPEGe5Fcd/zyD336KiFEtVguRQGHvh/MA/umPg8ssOw+vb60guAVCe3encDkNVxLaeeg87X/QMIpb6BFfRgOekBfy65F38PIQSyz/4Omb8+DDvV73vDkqesBSDzHiPdCwDATx7PPf8YhG1KaY+OkXO7jPZuRGYsLP0e8GAp6kd5sBQhqBFFdOYJILoBahUryq9HIxHVMasrif39GZg2Q9QoXXRjEYoPv34Gbv5fgYNZB7c91IcZiVlYE3sN5i9ahaX9vwF6X0Iyswe9gzNh2Q5mdCX9MSyvKWjXHNiDPXBS/Q097pFxDaWyrV51oR/m0nTAKsr8NcAPexGvL5ygvmxDMOFYuBINCOzj4ybIE42Cj9E4dVSEq9kUqCIkmu7mz8g8KaIbsj1Fdhg03gqi6a7KPgExoiEDz5clcI0Lv2IuZBjIcADPZ0E0zQ0rybCbNNYCoSZXPsJPoqa6mwvEAL2KIrlneAahVHqIRlAxr2/N3PywcgHYgLFFCJF5bESD3iK7I2itXf6x+u/xcul8I1x6D1kx50tM+F0EEBwfFetaDRIIUVc1xtxuBsIqQGhSLoFEKkV3iWFIKQU7EgpT+t7XsvEJITJ5uhFr3gB88U4hwLLDoYq3INlnfwcnM4j2V7/NP57cS39Acd/zsIcOYeaF/7duo5EVc+i75yt+fmN8yRnoOu8iFPe/AAgOvXNWxby8ECErlgysoNK6M3QI6T/cj+yzv/PnDwhE5y6vagxFZrrpGG5+pzzO0Y8nceJZMkRISEhyQVE/U+NboZhSeGED2QeMjK3hE6C9JYLujgSKpoNU1grlZHUkdfzjW2fjvJNbQQjQl6f4n8Hl+NGTFtg0mTipD+xCWyKKwbSJ/X0Z5Is2gl3X40vOAABfqyWIEAKFvc/V3Bm+Jrz+aOU3OAHpWfA8WJ6IoptzBS9PSwTU5APVZ8T1anBXZNT9sHBOE2cyNKkZ4MW8/yQ8boSQniNC4YmEEk3zBQ69MCE3c1Il24jIp+pEG/Rku9/iJDAxV52dlFS+/ZylwM1XN2BMmx2+sAvh5vgE11i28PGbKGu6NARH8ED4ifOhIbSSUdYIvJBgFQ8WAqpURDPAmQ0tIY1SEAon1Q9PYBXeGJzL3p9eqBhueJY50njm3D9uL4He3dktHhjjUk11mejuOFXfSwgB1Q3Y6QHwYl6ep1WanhMt4uZyBcbxqk95dQmIiRpXVt/eiT1ABPAaBAMY8TogOEPqD79A7rltoR58zpBMPmfZIeR31O8hL+z8c6hKtrDzz3DSA/6YsfmnVOzj5WRxN8ldcI78jicBlARYPeMKgF9Z3HLa66rOQW/pQPKUcxBftBIz3/VZJE9aPea844tPh9G9AIkTz2pqAdephDKwFCNCdANkjET3in0IwYzOOBbObkNLwkA6H06ijhkU7zyrC9f8/Tx85oJZaItrGMwxPJGV3dQxvB8aN9HRGkW+6GBvbwaDBw/JC5amI75oBQB58QyF04RA6vF7MfjgZgy66sHVEEJg+LF7kH5yS60HJG/a5T3f4CZke4nvrngoXBkGvxGtcMOFnkwBLyVHc8eS3iMaCJWJcDsZL09GOFZFmDB4sx4N4YXuvDwc5oBQ3ZdZ4FYBAFzdqkALJCMqL7RECyWdC8Fkbj/x8qoCCdCjuDw9vSth5gNGZcBQ8zxbmibz20YzsEg1A6txYqPSS0dK+VNBAysoYaAbMNpLUiZarAUsnwpLawQ8WCDSsPLlMhzL9zzJHoRw8/1K+0KwMY0Youuucn51AwuQGlK8kJGtarwKyfJx/NB26aGCuAYiuFPZEmeCFPe9gP77b8Hwtp81ZLxg+xmWrW5gscyg75E0e0qVy/bwIf/nzFMPY6x2TdUQQiD34uMAgPbXvA3RucsBSGkG88BLACFILn91xX56SycAwEn1gdsmzIM7wHLDIJE4Ol/3ntL72mega937AU2HMX2+33C5Gh2r346ude+D3l5brz5qxDDjbZ9A5zn/UPPxKkZHGViKESG6IUNf7k1ccAYnOwRuFkbfjxC0JiKY0ZWAocneheW0xjUsnB7F366UJcX3PS/Ak9NBhAB5+hegQqDD7gcpDKN/704AgN4xy20AGwEEDzWKTv/hfuSe2wYAsAcOQDAHdqofQ4/+dyjPiGWHkHt+OzJ/fbgmAU95c6mSA+PlZoWSuhEKUfnaTJ4OlKcf5ZXu26b0FHghQtBQkrtw1eOJboA7VsVTvj3cD7us5LsqntfMk4cI5j9phsy54UzqVlXp/+YZYr5B61Wqucck3Ko+IViFZyk8EEAcCyyfCospeuO4YShCdYCLkT1YXsVdEE/NvZG9Fn2jFIDgYMWcNJJGEvOE+53xWiKVtgKCSUFZPeKGZS0ph8AcCLMgZUCoJtfVC+m6+wrGR19XyL+j4DbKq/zC75EeMm7mXe/0CLgVsKEQIWfSI0Qb69nI7/ozgFLj34ni1ODBctKH/Z/NHpnjJJgDJyW3Ez0Clh5AYfdT4//8gf1whntBNAOJJWcgufw1AIDi3mcBSO+V3lrZg1fvnAWtbTqEY6PwylPIPiO9VYklZyAye4mUWKAaOs65EPFFKzDrvf+E7jd/tKqRrJg6NJWBtXPnTnzwgx/EqlWrsHbtWtx4442wrLETWy+//HL87d/+LVatWoWzzz4bl1xyCR599NEjMOPmhlANNBKTqt9mHk5mEDSWBKtR+DLhipHmzZErwlYvbcH0Vh1Zk2ObvgaCUJCDz4E8+BXQ7f8PyT/ejkRG6riYiW4ULQa9XeYHOMMyD6vwylMl9zmRFXtOqh+ZPz+A/Et/8LVdAPj9tACABS60o6xCSek6tJVUyYshACvpBAn3ZkkILamNo+QVkHIHgTyushwsmTxM3SR5ClZWws0L6ZpCKyFFcXgeEk8QNAJWdDvX22b1Gy+hpfwolDxiJekFN/QZCm1VGQYAYTbgWKUKQm98v02L58kZ3cCq9GC5BmydYqPcKlZqkBFPO0x655zBg2DZoTFDtTSa9JWz5eTcPC4u21Jxx/KrCYlmgNuWu6bUV/0oGTdww8xj5GBRDX6bodE0s2JJ8FwKJFKlkbI3lmcEuiFvQPaRZLnUxHpiliGYg+I+2SaN5YYbIrMR8mBlBsFywxh46Puw+koGXNDAsvr3gVsFmdMpOEgkhpZTzwEAFHY/Pe7PN92wXvyElaCROGILTg5JMrScurbqfoQQJE88GwCQ+fMDMA+8CBCKllNfB0IIpv/dhzHzws8jOnMRAECLJVUYrwloGgMrlUphw4YNsG0bN998My677DLcdddduOGGG8bc17ZtXHrppfjmN7+JG2+8ER0dHfjIRz6CJ554Ysx9j3doNAFu5iFsE9FZJyAybS6optUcNuxsjSJiaMgW7Ko3Jo0SvOts+UT33690Yt/Ct0IQAmJLLxmxC6D75FNuIdaNnsNZaG3S5e2k+sEKGQxvl+GF1tPX+ZUw9uBB/6LqifEBAAt4vXimBgOLSBHMco+J1tIOraUj/FZNk54JWvJg+V4dzxjxY0vUr7zzc5TKwlEyFCZfo9EYWDZVSpB2LHCz4IpLjhG2CfZkLD88Iwphm/IGx1lVcT9CtVBOlOCuFACl8vjc8OCICdbBT2c2oOlhz59X3cg9/SVaKVnhIj1pYsSE3XoEWYXgsuIrMxTcCG+1ZMWoDWbmwYt5eZyjHWUkJr2jnifTE6ZljjRgmQzLCggQIyJDeyj1NgwZqoTK1LZa8pwCBv1I0Egcett00FE8WEQ3wMwCDv/yVvT97Ctu3p5Tyo9rEOahXSGh26BHul6CBpaTHUL2uW0o7nkGqSd+WdqeCnzvBYd5aJdfzWl0zEJsoWwjY+5/cVznEy2kYO7+KwDZRBmQ353kMmk46Z2zEZk1skhn4sRXAYT6xxBfvMpPhqeRGPSy641i6tM0VYR33nkncrkcbrnlFnR0dAAAGGO45pprsHHjRsycOXJZ6de+9rXQ7+eeey7e8IY34H/+539w1llnjbCXApB5ODTeisj0uX6vMxJNgpv5mgTnYhEds6cl0TuYx1DWRDJiIBoN3xxPmRvHOctb8eiLGXzrmS78zay3Y2lbESd0aaDP/NLP+4h1z8Nw3kY8IvMVzKFeWNt/Dm7mYXTNQeuqN4L/4X5Yva+g2POyn4NhDxyA1xIm+PTK0oeBtvbRD8BNwC5vz1H1Bk9lFRjV3PCXJxzpt4opNTiGl3cUHJOUKtaEm9zsGSzEiIFnh8CLeWjJdle5281v40yGckcgmE8jyoUi3eRwPpoaty+A6RpqjtfA2TUc3DDhmNk5hIDYxcpea56hxhzANTTkMlTp8efNo4rEgED1fcZC2Ba4mYOd4tBaOlxvEAsZgdwqAI4FZuZk9d0oHiVCiAwDBZX/3XnJys2iNMCEG9pjZeeFYL59RaOJqmHbqp/rtS6iFMDI6zCW54PoBng+49/ouZUHsSm0ZP0Ck9Uo7nkm9LuTPgyjc1bd4wkhQknuLDMIy/3+WL27wc08aDThXwNk14oCzJ4dILpcY71zJoxpc0HjreCFDMxDryA2d+Q8p+Bnx155HOAM0bnLEXE9TQDQsvJvIIRA4oTTRw3paYk2xOYtd716BK2r1tWxCoqpRNN4sLZu3Yo1a9b4xhUAXHDBBeCcY9u2beMaS9M0tLa2wranmGr4FES2Rljsl+0SQqG3dVUogI9Ge0sUC2e3YWZnEg7nGMwUQ9WFAPC2Mzswp9NA3uL45d52fP2ZmXgosxgiKb1bglDQtploiUeQ0eSFvrDvBXmRJhSdr3sPiKb7F+jiK6X8CcFs2G6FUDhEOPIT8/D2n6H351+BEBxaor0md3zJgxXMXZHGja/+7h02oQDKjBIvmdgTIOWlcKM0tIQfJuRW0e+ROOZTdiBEqMVbQBOt4dc1bfS8HK/E3w8RepWRJS9chTBV1fXRQQSv/BzX2BSsVHnnNRuvwOtDWLVSjtbVt9GTquCFdKlVSUAagcA1whwbcGxpbI0pm6CXvHkBRXSvvZBwLLeS0y1gCJwXfoI95DrU6jUimiu2OsG8HEIoaCzQ1oo5oNE4qFEp61AvQnAU9si8JC+E5owSsudWsaItU7nnlhdzfr6o/D3rt4mB4CjufzH0OUm3BYy5/0U4QwcBAEanlJzwxDu9EGY55sGd6Pnhv+Lwr7+L4r4XUHjmEeipA24PvbeHDClqxNB+1gUwps0ZY1WA5CnnACBILDsbxjh6EiqmJk1jYO3atQuLFy8ObWtra0N3dzd27do15v5CCDiOg6GhIXz3u9/Fnj178N73vneypnvMQDTDF8HzoLEWUE0fV85E1NAwa1oCJ8xpR1drFOm8CR64QEZ0ik//3Sx84HXTcc5y+Xn3/zmN3e3SvY722YCmI2JQ0FZp7FHLvZnOORWiXRpWRpe8iJW3WrHdJNpgGIKNECIUnCH30h/hDB2CM9gDLd5SUzKpJ2tREh81QonCQUOHeKHHoKEQUHj3EseD+TQkEpdFBrYJXsiCGtGSevdoBG7YNBKvCA9RIwpWSI/oKfGT4/12NqVKNb9/4hhhM0DeSHm80mPoaWR5VZPyzbSquKo09KrnGdFYEiw7VNXI4o4Fe+hQ1XBqSXuKwEn3+1IWJb0yL4+Nus25x1tdRv1elqW+lV4lpxau2KME9eaRkUgcJBJtiCYVN3OBn/MV14CJYvXvAy9kQCIxJJa+CkBZ6C6Akx7AoZ/egP5f3goAKO5/ET2br0T+RalkznLDKB542fe40XhLSeMr8N0o7n1OhnrdPpvJk1aD6Aac9GGpUQXA6JSRkNj8k+U++56rOGcEczC07b8hzDzMAy9i4IHvofC0VEGPn3xOzVV71YjNPRGzLvoCOl777rrHUEwdmiZEmE6n0dZW6aJub29HKpWqskeY//7v/8YXvvAFAEAikcBNN92EM844Y0JzEkIgn2+MfgsAFAqF0L9TFSEELOhAZjiUwFkrHUkduXwR/YNZtMR06Hop3HbKbAOnzDYgOMe2l3P42rMz8P+deD6WnrgAwpQ3XJII36T7p52Ood39mNYeQ2u0Fa7PQb433gpRyKDQuxt04en/P3t/HiXJeZ53or/viz33rK2rq1d0N3aAAAkSJLiAu8VNosRFhmzLHEuWqTkY6VAaz1zPJtmX8lweenznekhLnLFsk6ZkUQtNyuIq7iBAght2ECCARu/VtVfumbF+948vMiqzq6q7qhegG8jnHBx0ZUZERkZmRjzxvs/7POtF7irB94ercVFtPrvI9VYXUZVz33lm8MrEQQiEIExwSsS9HipJSHpdUIq41yMJAlTYQwhJ1NM6FD2y76PaLVSSEPS6SCURUVo5UoK4sUIojmSOzyrokrSaGGrzi6rf7UAYIOXGU5NKCbDyJFEM0cYX96in90sKi6DbBqWQokfsB6hOG5KEwPcxe5tPZvaP85nHGyD2faJuh8jvYfZ6JGFE0FglKkwOt+q6LYJeD2l6G5LeuN0iXJzFGt91xuN1otU5bOkMC+yBsL5CHIRIt4C/ukTkjRF2O7pyI3pEgY/RbqLiRHtemV2SIMg+t3NBRaE2XLVsol6P2PcRSuvyZK9HEidgmES9HkkQpq1hEynO4/RsekS93lmP9VbgN1aH/z2+tfe6VbQPPwSAtfMaKOgqdVBboLfBMW18//Mov0O4eJzO6iKdp7WQvPWzH2Lsfyn1b3yaaOkE7jV6Yk94JYRKiAOtq5JeiaTboHfySdoLJwGFsFxCu4D3kjfTeeArWQU29qp6H8b01F7cXKE9+yzmwPep8/h3iBvLCLeAPXMNwexTiMIYndwk+Wvu2PA9bAvCgi0Mb72Y4Qf6e93rdZEX8RoMfRnFxZnOvGII1oXizW9+M9dddx2rq6t85Stf4UMf+hAf//jHef3rX3/e2wzDkCee2LiEfCE4evToRd/mxYbs1DCa8yTuetIrgo6+63dyG6yp4UeKTjtieUlHd+TcYYLwsh2w2hD8dF7w757awS2tHq87cCrrvu218lhhm3ZhhnoEwek5jp1IyHsGVzkFTF8TkO7EIdwTD9I5fYSlp35KMQ71JJ8QOg/PbzM7O4u5cgz36A/pHnwdIuzQ3/OlU0cJuDjaE9Gt6yqI24A41MfJdFBWSvqSCBH5RC2FUDHGygmUkx/WRsUR4tSsbj9aHiJoEzdjlFsaamsNwlg5jkhi1AW0eGS3QdwISdwS5soxlBBgOoieflwolX4fGufc1uzs7AbHpoHyGsheQ28jDhFxRLTq6wiZ/nJ+C2P1FMrb5KYq8hFz80SVJRio1MlODdlaJF5uoeyB76VSGKsnEHGEsj39fuoBRmtZt18tF9lroAxbD19EAcpa1v93VjfYgQ2QxIheAywPZbmIXlN/D0xnnXZOhL10EMC6oM+rj42O9VZgnz5B/9WXZo9ftN8AAEpRePYRJFBzxlFNnzyaYJ340TdwZh+je+DVJIUJzNUT5E79LFv11E9/gnP6WQwgXJ7l2E8forCkh1i6z/wYAfTSy1r/W9OZOIg99wQy7LH44Lewgcgu6POsvYN8YQKjtURiuRw7vWZg7FV2Ya0cZ/Wb/4nODW8jsXPYC0/jnPgJAmjvfhn1yYOw45ZsndNzW7BNGeHCkVbMjx8/jjp98VM9bPviZGteMQSrVCrRbDbXPV6v1ymXzyFUBsbGxhgb03dKd955J/V6nX/1r/7VBREsy7I4dOjQea9/JrrdLkePHmX//v14nnfuFZ5HJL02wexTSLcwpBFRKiFprQICWaie9U5AKUWnF3FisYVtGNjWsHD8V3cqvv1km68+2uThWYGvXH7lVRUcSyJqV6NOP4Zx/ZvZVdYVpiRJaHZCVHEa/CaYNtO3vYnaiQcxujVmihZN0EJmwyKuLyC7dab27Kfz4F+g/DbV9klkvkL/HrTimuSvumpon8/37iaqLyJMCyNfQUUBcXMZWahm2hYVRyS9FvauayAOCWYTjOL6qI+k10KFPkZxnLi5gjmxB6M8Sbh4TE+IuWuj9EopgpO67SjPQnjPhbi5rF+nMIZ/KkEaFsJy9OOT+0AlREt2GhOzMXzfZ3Z2lpmZGRxnuIoUNZcxi+PEzWWM4jhKKZLWKtbOfRj5td933FwhmBeYGxyX/vuNm8vYO3ZhDMR9hEsniJYF9sz+oWOqogD/ZIwwTaTlZu8zbuZAaZF53FgBQyLdgnZjT53x5RaGPPQ+JSTNVWS+jDBM7csW9pDFiXVTl0nQQ/VaCCd3QZ9Xd3WR1Ue+w9hL34xbqm57/U7jMP06eiXvDP0GNkIwdxiiEHv3defcdlSbp+43QZrsvuXVuuX22BeRQYf8iZ+gei1Kx75P6Q2/SuORz5GAJtlxSDWq4/c0iRcoxlafpl/rEWnVuTixE4Skt6plAVPX3ILvGPjP/Bh7XpM1b2KGqfQ9RWN30fzWf8LddxOTA+8z2fkrNL75SajNU3j4c0Pvwdp5iN2veHN2Ljjbd3uEi49er8vckafZu3cvucrFjfV55pkLz6Ls44ohWAcOHFintWo2mywuLq7TZm0FN954I/fcc88F7ZMQglzu/E+Cm8HzvEuy3YsJ5bkYrSoqDDDctTvtuNeGYlVXY0wDucG01yA8DyJlMLfcpmBb68jL2251mK46/Of7lnnytM9/vLfGb755CnnLu1A3/Rz2GXoix3Xwc1NYPI09sZv82A6a+bJuER3XU0tWeVKbCdYXMHp1ksM/RKW6nWjhCNb47rUN9lo4jkP38IN0nv4x/sJRSi/7OxRvfsO2j1nYtZG2g+G6KOWQSKVz//p6piQhTgJc10FFEhwHy92gijHwWBS6mJbEsk2ESLBNA3Pgu6OSGOE4CLTVw/kiCj1My8DyXIRtI2wXadpEgYPtWCRRiOE4mBvt7xlwHAf3jOXCwMF0bOLQy7YRhm1sA+yB9xMGTYS9yXHp72ucxxQJzsB6XRKkaWBLhh6PuwmYEiNf1FOmUQ6DmMR2dbyM4xIFDkoprHyBJDRJum2EaQ99788Jb+01EwOSnjn0Oa09J4jjHobrXtDn1Xr6fpxTjxDZEveNf2/b63fDtTaXDHvrPq9BJKHP8nf+FOKI3LWvpPKqdw/ddCV+h3DlNPb0VQghaZx+CtB6I69Y1ukK6USf6rX0Oo0l6l/8OCoOMYpjFG54LfUf/NfMBqGP4Nh6ryq7PI4wLH2TJCT5mYPkpvawcOpnWWvdGdux9p6m95K/639Zf+Pkujjv+E2Wv/YfMw2nURyj+JI3kjt024bDBxt9t0e4+OgP3Ljuxb9WXkzz1iuGYN1555184hOfGNJifeUrX0FKyWtes7F529nwk5/8hD179lzs3XzRQAiJURjT4aBdQRJ0MfMVEr+LPbGLuNtCBd0Nx+nPRKXoUGv16PQi8t76ab1b9+Wp5Ez+n28ucHTR54+/tcDbb60wU7E581QmhYB9LyVqz1G66Y0AOLuuofPUj+g++xAAZnE8E8GaK8fpnlgT1ybdVpZgD1pAGy6fYvWez2SPdQ8/eF4EyyhW12JxhMA4Q0s2KHJHxWeNnclWMQwdMB30UH53TYiuFCroar2RGs4IPB8IaeihhjOn+IQk7raJWytZYO15bZ/hIQAAaVoknQaM7cwe04MB55jgM23ibjOz5lBxqKf2LEe71iuV5u0leoJwwItMmDZJ2EsHDPTpUVh2Vh0Rhk0SrWBs0TphI0jL3XQiTwiZGp5e2Ek+TmNf/OOPZfYE28HgoEDcbZ112Wh1LhOTd372A5Jem/E3/0OUSmg/+QMaD3wV5Xeovv5XyB18Kb10etDddxOQ2lqUJgjTVp89fYBg7llUHCJzJSZ+7jfWhlbS1xG2O+ShZZQmMuNgI1/JRPn25B49vGE5jL3+V1j6yr8D1Low482+U4abZ/Jdd+tzmdT5nSP39BG2iitmivCuu+4in89z9913c++99/LZz36Wj370o9x1111DHlgf+MAHeOtb35r9/e1vf5sPfehDfP7zn+cHP/gBf/u3f8tv//Zvc++993L33Xc/H2/lBQPDyyNNPSlnVXYQdWpIw9AnuFwpdYE+NxzLSC0cFF0/IogSGu3hoOj9kw4ffNMUjiV4Zt7nY1+d559/9iRPnV4/EOAWK9RueA+rzk6W612Ma18/5MRulMazSR+zoS8O9s6D2DtTE8CByaO4Uydc0ToWIxXjhrWF8zK0lKZ91kR7kQULJxuOoW+yUZLIJwm66Sh7akTqdwiWTumx/U20WdvbeR34nPTa2repf/cuJFFjCekVLmyMX+hImCEDUssh8btDliCDRq6b7qppQxRmPmEqDCAOkU4udSgPCZdn6Z18kqi1MvyahgVROHTMDK+YBe7qEOwy0r5EVQpp6JzACzD0VEqtpRTEURYavB0MEqykd3aCFa5oiwOjOA5C0Dv2GFFjmdZj36X+/c+h0rQBf/Zp4k4z/T2JbFIPyAw1EZKxN/wKxVvfgjWxh4mf+w3M0jhmZQox8P3KX3dH9m9h2pRve1v2t5Gv4Ow8yNgb/wHVO+/KHndmDlF5zXtw91w/9Nrngq5kaj+yEbkaYTu4YghWuVzmU5/6FIZhcPfdd/Ov//W/5n3vex//7J/9s6HlkiQhHsgj27NnD0EQ8K//9b/m13/91/nwhz9Mp9Ph05/+NO985zuf67fxgoJ089hTe3F3XYM9tRc71ehIN6+jHGA4fuQsqBQddk7kCaKEnh/jOua6oOh9kw7/7Vt2cMMuj7Jn4EeKT92zxFJz2JJBCEExb9NsB5xcaHG8acD+NUNZszSOPamrl0oYuNe8krE3/gOcPsGC7GSedFuEy5pguXtv0I+nUTyXAtqMO9lSpQZSo9A41hlsKkGl0zUqCrVXVti7OARLSE1MmisIY60qaeRKmMWxC/dIygxdB2wpTFt7RA1UKjbMITxzU6ZFEock6bFIopAkiXXsU6zH9ONUJxg1VtZG+iELTU7t0zfcvuHmL6qj+dC+S4k1tvOCYlCSfvU4RfvJ+7dG1ge3MUCqkoEKVhIGdI88MkR6+wTL238zzk6tSe088xNaj+s4Mme3Djz2549m1WFrfOdQ7E5/6tM7cAtGrkzpZX+HqV/4rcw2QQiZ/WYBvKtuyfR+zs6DOHuu05+jNDKy5l31kjXiliJ/7SsZf+s/unQEeYQRBnDFtAgBDh48yCc/+cmzLvPpT3963Tp/+Id/eAn36sULbTq6Vmq3x3elYccCYbsI00lbM1s7mY0VHUxDYhkCKQXH5mLa3XCobbhvwuE33jRFGCs+/tU5ji8H/OHX5rlpT45b9+U4MKVfyzIkVl4TgSBKWNnxCqrHH0JEAUZ5B1Z5gvI7/ztOzi8xcc0NGK6LM32Q/hiFPb1fB8HGEf4prRmxqjuwxqYJ5o8SrsxiDbSuLhZ0q0xtqVIDaesu1C1CYdlrVcMk0pqW0CcJe/QOP0Du4K3r25Jb3S8ptRForz3UbtJk58Lv04QUEA9n7ul2mSL2u5nQXUXrXfU33B6CJOgA1cxPS0f+xMSdOkkUYpUnMBi2GcnMU5XaUov2UkAlCctf/yRGrkT1te/b9vpRXU+yJXYOmURE9UWC+SM401vXqg7mjca9Vjbc0XrkmzQf/qauLr3tN5C2mxEsa2waszKFP/s0zUe/rW0u3DzV1/0yc3/2B8SNJbpHtIbKOSMypnD9q5FuHm//TZvukz25F3/2aYRpYVV34O27idZj9+AduAVp2ky8/YOooHfRPbtGGOF8ccVUsEa4MrAWIuwg3ZzObtvyuoJy3ibnWri2yY5qnjBOCML1VTDLEPyjN0xS8gxW2zHffbLJv/3beR4/uf71bFNSGavSve0f0Lj5/SxHHnGiMMtTKGttWtOe3JOZhFrVmYyM9J2fzcqOzMi0f1E5F/zTh5n78/+dXkrSzomUXMXdZrYvZ0Ua66KiAGnntN5I6eibJPRJgh7dww/R+NEXaT70ja3tw0YQOo8wiYJLEzIrZBoRM3xKkpadBiwn+r1toYIFqQ6r09TTiKnfWLpFkm4bwz2LJqkfuv08tYOixhL+ySfpPPVD7Rq/TYSr2mogzo9j7+4bZj655fVVEg9VwIijrN3aPf5T/RpLJ1j+2n8gCQPCvgv62Azevpu09UTaQs9dczuGV8RMK1G9dH175zDBEqZF/uqXn7US6uy6Rv9/5hqENCjd9jam3v0hvAPaz9Ae3zVUhR5hhOcbI4I1wiWDVZ1GmDZRa3XbLQqAUt5mqpqj3QsIovUkq5Iz+R9/fid//zXj3LDLI1HwqXuWOLKwsdGfOzGDPXM1Cysd5pbarDR82r2EJM0EFIaJk+aOOTuG7QEArMqOrGq1VYLVfvJ+4naNzjMPbGl5BSS9zpaFyUKmougkQZgmxHEaxeJrQhT2MofrsLZw9o2d43USv3tR41LOeIEN26LS9lBBh8TvEndbJEF3SxVRYVlrFbxuOyOFwnJ0tt6ZeYiD66atyeeLYA3m6UXn8ZlFdb1O4pWzcOHBwY0z0Xn2IWY/9b/QPaon8jL9lRDZcUu6TaJWTQva0wp1MH+U+g/+qyZf0sAsTyJtF2/vDdn6+eteBYCzY8DmQQic6bPbPmwEZ/oqJn/ht6m+7v16M4aJNT4z0kWNcNliRLBGuGQwciWcnQe0X9JAyv1WIaVgsuIxVc3T6gT44XqX8bxj8PIDBX7tDZNcP+MSxoo/+voCDx7dOJPONiXFvM1Ko8vppTaL9YDFWpc4HfutvOZ9jP/cP8bZfV0mbAaQuRLS8YYIVtyu03nmgSGdmYojVu/5c1o/1fmYwaKejDqXZmswpDiJA4Q0tlSp0SsrMAyENPX0WxyTBL4OFo7CTE/Tjwg5HwjDRLo5pJs/722cdftZ1Wj4PQtTW0AkvRZxa1XHzWyxgpWEPr3Zp7VjfqqZMrwCVmXHWS/Kwna0eL+5uukwQ/2HX2DlO392XuHS58LgbyWs6Xbfdm5Q+qQs8SqYaVswXDpF4q+v7iqlaD70DVQcUv/Rl9LEAf3bkU4uS2qIe2381PDTntxL5ZXvBqDz1A8BffPRH+DQAnSBd+ClmAXtwTUYfmyN71of+L1F2BO7L8gfbIQRnkuMCNYIlxSGV8SZ2q+NPTsNXV3ZxkVJSsFk1WN6PE/Xj+j4G1/wDCn4wJ2TXJeSrP/03SX+9pHahstahqRSdCkXHBzbYLHW4/hck7nlDj3h4O66RtsoDFSwrIpucZjVaUCQ9FosfuHjrN7zGdpP3p8t1zv1MzrP/IT6j75I1Fwhbq0AZBl3/unDtB67Z+iC6c8d4fSf/D71H39FE41eG8PduuWBWRzT7UwpsyBhFYX6IhZH2Zh93K5l/jHnA8Mrbp30bReZyH098ZGWTdRcJm7Xh0OIz7Y5ITGLY2t6qm3YKkjTRgU9Fj77UVbv/ct1zydRQOuxe+gefjAj0BcTcWeggrU6jz9/lNlP/c8sfvEP8eeOnHP9PimLPT3Na5anAP3dW7fs0kkdDYU2k+0efZQ4JeTSLWSmtUm3lYUlO7uu0bqnAaNVc0CP6Ow8yPTf/Z+G9GP2QAVr1MYb4cWCEcEa4ZLDyBWxJ/cCQrcaGsvbsjkwpGCq6rFrsoBSitVmjyhef0fvWJLfeOMUb7xBn/i//HCdLz9UO+vdv2lAMWfhBzELK21OL7bwA00ABwmWmRIsadrZZFK/ldN+4vvZawSnUzPcOKL5yLey9VXQI+m1WL3nM9R/+AWCOb2ciiNq930WFQX0TvwUpCSJIoRp6WDazvr0gjPRr3YJIVEordtJIoTtZNYK+sUS7SL+HMNfOHbOCqYwTN3m3MDGQto5lN9Dhf62WpRCGhhuHiNf3nYAcpAaSwYLx9c9N1gJ3Ii09KHi6Lw0VIMtwrA2T+fpH0MSE8wfZelLf0Qn9XNrPPC3LH/z0yT+2mskficz00xyFUDbEwB6aCPdr9r3Pkfrie/RTitQIjXsbT36rWxqULr5TDAed+rZ+u7uaxGGSeH6Nf/BMwc+jHxlaNLSLFTWpv5mrt72MRlhhCsRI4I1wnMCs1jF3X0t7p7rMVJDUoC4o7Ud54IQgrGSy/6dJaoll1bXp9UN15EnKQW/cFuVX3hZBYC/fbTOR//mNN98vL4hKQMwpCTvWVSKDh0/ZmG1TZwkZ1Swptb+nQrdkQbCsIhq8wTzurLgz62lDXSe+tHQ6/izz2QXz3D5FACtx7+baWbi5goytT0AWPn2nzL3l/+fLeu9QE/Paa+nSIvklSLxBybCWlvMz7tICJZOsvSFP2TlW//5rMtpPc2uDe0PdJswGLJTuNSImrryGLdW11VcB4+hP/v0pttYvfevOP1nHybcgqVH99jjrH73LzSpHiCjUW0+I3F9K4PmA39LsHyK5kNfp3f0UZa/8anshqWvs5O5UpbhuEaw9L52nn2I9pPfp/79z9P52Q8AqL7ulxGmRbg8m036GW4hawn3jj2OCntIN481oZMO8te9MtNo2ePnDkQfe8Pfo/Lq94wI1ggvGowI1gjPGaTjId08ZmmMJOxpvUfkI1Cp99C54domuyYK7N1RwjQEjc7G673xxjLveUUVQ8JcPeRvHqjxia/P0+pt3p4UQlDK2aw0fBZWuwhvoIJVnc7+7R24BWHaVO74RbyDeoKp/cT3SYJuZkoKaD3UAAaF7uHKaeJem+ZDX19bPPV86gvX/VNPQxwNtSDPDaXbhEpXg1SyNgEGzz3B0hYXimDpxBBRCZZntfZn4HM/my7KKk9uOH4fd1us3vtXZ60knQ/6rV1UMlRR0s+tHcNg4diG310VhXSPPjJk8xGunCZqLK9fViXUvv85Ok//WLfoBl4vbteJm8sgJONv+W8QtkvUWGLlG2t2NMHcs6ze+1dA6qoOGKXJ7Hln+iAIQdRYIqwvZrqpPoxCFXf/TeQO3QasTfoNVrD6Inl3z/Vrk8JOjuob/j7Fl74VewsWEPbkXvLXvWokSn+RQ08ER+clV0iCLmF9ERVsfTr9+cSIYI3wnEO6BaRpEbdrGG4BI19ZF8eRhJu7wEspKBccdo7nEYgNxe8Ar7uuxIffv4f3v3IM1xIcXvD5P788t6H7ex+GISjmbBZWOqyGa7qdwQqWt/9mdv7q/5v8ta8kf712lO4ee4zO4YdAKS2OH6jE9C8+/uyaVUO4chp/9mlUFGJWdqyJifuVk+Zq5sreefbBLRNQrWVKEGmxLgmH14uea4LV1wwlcRoCrlG//69pPPDVoTbq+aD2/c/ReeqHNH7ylQvazpnoV7Bg7TPJnhusuCYx/sLRdesHSycyq4Jw+RRxp87C33yMpS9/Yp35brh0SkcCAeHq3ADBWiMi1vgujHyZ/LV6Kq9PAMuv/AVA0D38AFFrlV5apTIn1kw5pePh7NJmn6vf+QzB/FEQIjXXPUT59nchhMQ7+LKh/ZJufl38UeGmO4f+9vbeQOmlb912C3aEFxeUSoi7TcL6EnFzVUtFmssbDl5shrhdQ0UhVmVq6KbxcsboVzHCcw7p5BBOHhUFmJXJNLZGZW2OJAqIt/DjK+RsJiou7W5Isx1SbwWZ5UIfni159TVFfvtt04zlDVZaEX/09QX+jy/M8offWOInJyA5o81omZJCzmaxA+KGt1B8xbvWTS71Lyj2+C5NoJKY+v1/DYCz6+rMSFGYFt7+m/VKA68T1uazlo0zc3XWFuxf2PtCZdD6re4GobYbQRi6arW28vr2VrB0kuaj39mQxMadOrXvfS5zr98OotYq7ad/nBEElSQ6q7K/7cZi9ni4fBKA1k/vzdrFid9l/nP/X2o/+K9ber3uscfppdYCwfKpizbRp5QaqlJFzWWCpZOs3vtXJH6HuJ0+l1Zi/FldPfPnjjD/2f+D7tFHhypq4fIs/uln9cBBu05UWyBYPMHcn//vtJ/6Eb3jj2fLBovHMg+qfisO1oThhRtek8U+uftuonDja7F37AOgd+yx7DtlndGGK7/inSBklvfn7r4O76qXMPH2f5J9P+2pfVkcFPRF7mtTo+6+m7AGKrkjjACkWtH65s/3f0/SxJ7ah7vnOtw912Pv2I+Koy1JRPTrRFjju7B37McoTVxwvupzgct/D0d4wUGHu47pzMJ8BZkrYuTLxKk4V/kdZKEyFMexGcbLLpWiQzFv4rkGre7GlZ6dFZt/+q4ZXnttEQGcWg05vhxy31HJp+9bpRsMVxVsU5L3bBbHX0p75rbMxmEjVF/7Pi0STisTzvTBLOvMmtybTSAOIYnpPtt3tT6gc9xYq0z0J7v6J5H2GXquTSHSUGZDX4QHM+VAV2NWv/NnNH70RRb/5mOEqwNETiWsfPvPaD/5fVbv++ymL5GEASvf/BPaT/946PHavX9F7bt/wdxf/O+sfOtPCJdOoMI1T7I41SLFzaWsIqeCHq3HvwuAP3+EaHVOR7ucYwgi8bvU7//8wBuLCNP22IUi8TtDd8hRc4XGT75C56kf0nri+xn56leF/FNPkkQBq9/9C6L6AvUffiEThEOfTK/9Hcwfpf0z7Y9Wv/+vdeUze04TUmG52FN7s8f7BMvIlync9HpkrkTpZT8HgLv3RgCaD38LFfSQTg5zbNfQe7KqO8jf8Ors79w1r1j3voUQ5A69NPt7sEUIULzlTWc9biO8sKFUQtRYXndeToJeGs21vjOglNLaUiePu/MA9tg0Rq6kY9aq0zjTBxBSDnUwlFLEvfa6FqISpGHbEqMyjbJzlz3Jurz3boQXLMxCFXtqrw5AFhKzNAlJrF2k4xDD9nR0CpCEPlFzZcM2mWlI9k2X2LOjxI5qDgX4YUwYJ0Nh0aCrWe+9fYx/9u4Zfv0Nk7zzliKGUDwx6/Phz53iSw/V8Adc421TZu3C2XS6ME6SdVUyszRB+Y5fXFtv+gD5a2+n9PK3U3nVL2bB0qArWvaUrjj0I1zs6aswi9ovaK2CpcXK+kIoCE4f3nCi7Uz0o3OE1C3K/kRZXyAeLB7PPLmi2jyLX/y32aRi+6ffy6Ybw6UTm75e7/hjdI8+QuPHX8qGDFQS46dCf5Sie+QRVr87bHHQf904Fe1nk2s/vZck6A0FFJ+tgqaUYvXevyRu1zGK49hT+/U+XyTLhEx/1d/vxlJ2LMKlExnByl97O0iDcHmWxb/+N1orRVol7B8LITWZPvJQtj1/4ZjW16G/A3FrZe1CkZJ0I19eI+ZCDvlIlV/+Nnbe9b9mOX19Y8++35mz65oN7TRKt74VoziOWZ3eNOy4rykEHeZuTezBmthD/vpXYw9U1EZ48SFuN/R085mVb5UgvRJxt7Vu6CjptRGWg7Nj/4b+ZUa+jD25FxUFGXFTkY8KfaLWShbZpJJYe+Cl0gtpu8SlaaRzfn5qzxVGBGuE5wXCsIbujo18CekViZsrCNPByJW0r1MSk3SbSK9A3G2s02oNopCzmSh7dHohvh9Tb/vryBDAVMnipj05Xndtgfe+RDFZNOgGCV97tM7//c2FIZJlmZJy3mG16XNkts4zJ2s8O1vn1GKL1YafWTrkDt1G6fZ3UX7VuzELekS9+JI3YlV3IHOljExY47uzaTDQ4nnDzWetmb7epy9WdnddS+6Q1sbU7v98pt9RShEsHF/fFjMMVBgg0gpWvyqobTIGSN3UfszqTl1B+um9hPVFGj/+cvpZVABNfDZCn2wk3daaS/zKaYgjhO1Red0v6/eQTkf232+/RRilgwC5q1+Oka+ggh7B0okh3dNGuqY+2j+9j96xx0AajL3h72GnruDB0kUiWM1hnZqfmpWCfu99qwt7ch/V1/0yIDLyaE2uVZ2kV8j2bfDmoHfscX3cBu6+7emrMFJTTkgvPDsPgDRw91yPPIuPl1meTL2uNNy0snYmpOOx473/lKlf/NCGdhgAVnkKd99NSK+ANTaDtGymfuG3qAzcQIzw4kMS9BAoTZLOkB0opVMkpO0NyTpUEpMEXayxnWc1KDaKYxi50lrVWCmEaWNP7EEFHS2KT2KEYQ7HdF0qT76LiMt/D0d4UUBIQ4sXlUJ6BYxCFWG5OstQSOyxGd2zD/2zam0mKi77d5bZN1OikLNo987eapouwe+8bZIP3DmBZ0uOLPj8u28uDEXzGIagUnAwTYkhJHGcsNr0OTHf4NnZOkdm6yysdvGuf63WyJz53oTALOtQbHtyz5BnUD+AN9NgtVZ0KT4lJ2Z1itLL34GwXMKlk5n1Q/un97H4hY9npCh7LcNEmGZG6PoVLGt899AFPXfoZZRe9nf0tp74Pqvf+QwqDnFmrmbszf8QgO6RR+ideGIdqe17RMFa1aj/mD25h9yh27IqHUD+2lcC6AqVUkSrmmBZE2tkM6otDE3YDWq3BhH32tR//CUAyre/C3tyD/bknnQfTm64znbRJ3r9z0kFa23OpNdKnfNNpJcnd/ClVF77PhASd++NjL/lA5lGypk+gD1ApmWabdkna87Og+TSY5M7dNuQvsnIlbHKU0z/8v9E9Q2/cs59dvvxNKxl9m0EIY1zCtLH3vgPmL7rfxs5pl/hUElCWF8ibCxtGFcWd+rDhGiTQRoVhcS9FubYToTjrZ/+UwphuZjlySFPtrjTwMhXMt/AzSCE0GSpv39KgZCY+TLCdLRcII5AmhvauFzOGBGsES4bGPkyRqGKWRhDGCaGlyfuNrTYNlfELI4jvcI6XdEgTENSytvkHJOJskecxOtahQBEa2VuKQS37svzm2+eyqYN//N9y0PidyEEjmXg2AY516Kct6kUHSxT0gtiTi+3qTU3zkAEcHdfD0JoofAGBKtvwhi3asT9dqg0MIvjGLkipZe9FYDGT75KEgW0n/geoLVZw1YHErM0kZ2I+u0/I1/WVcH+/uy9Hnfv9ZiVKVTYI1w6gbBcKq99P/bEbt2SUgnLX/uPzH3mD7KWnYrCofZdZsiZEi17cq8O7X6Vnm4TloN38FZN7qIAEbSJV3R1zp7YjZlOZ0a1BaLmAMGaP7qhQWzv2GMQR5jVneSvf3W6nT3pNubOOn16Lvizz9A7+bOsRWjvPLTpska+khGV/DWvYOff+z3G3vyrGF4xy99z992ENeAP5e6+JjOsBT0MUbnjl5j6xd8hd+i2ISuQvgebkSshU7J8NuQO3KpvRKYPYOTW21lsB9q0dmSlcCFQSbJhy+w53Yc4RFo29sRuPY86GOmlEk2cUoKlopCosZS15LLlkpi4XcMqT2FVp5Gpt97wQgohDaRpDX1vVBJjVaY2rZYOQghj+FgJnRvaDw7PKlhb2NblhBHBGuGygTAsHbJcqAA6mkVaDmZ5PM2gM7DKkyRhsKUTVzFnU8w71Ns+q821dh5RAO3lbIy+j70TDv/4jVMYEh4+3uErD9fP+jp90lXwLDzbYKXhE8UJYZTQaA/vY/Glb2Xn3//nODv2Y1andalbGpmFg5ErZ3qd/iSYWZ5cy3e7/tUYhSpJr0X9e58jSvVKKujSPfYYcbtG79RTnIm+Lsfwihipzsua2IOR0+7mhZvfkC1bfuXPY6bHvvKqX8Tde6OOSlEJndR8Mlg+NXSi7hOrcKCCBZr0TLzjN5l4+z9Bpne3AObKcR1EbZiY5cnM/iJcPT00uZd0mxt6dvUHA3IHb81O5ka+rI01lcoMXIeOgd9h7i8/wvI3P73uuT56J3/G0lf/Hct/+++zSBirOj1kU9CvQAFZxl72nJPLCFf59p9n6pf+e7yrbsEaEJvbO64aquy5M1orZY3tRAgxXME6I2j8XLDGZ9jxnv+e8Td/YFvrjXDxIHuNLI5Ka0aDi2InEHdbmw78KKU2HwhJYpCm/q5KAwYqTyr0EZaLSLeRhD2MQkUPeAyct+JWDbM0gT25W5+LpLHBOVFpzZ+QQ+RLwNYJkZToqHu9P0IInX9quag4RMXxWdvklytGBGuEywrS9rIfpXByGIUKhrdWeZH5MtLxzmnhoKIQoh4zEwX2z5TZMZajG4TaMyuJwLTXaQkADu5w+eVX6ZL21x6t86++cJqHjm1eMevDdUx6QUS95TO71OLUQovmwESjkDILuJWmzfjf+cdM/Nw/xkgv4ELKjFh2TzwBMDR9KKRB4cbXAdB55if6sdSpu/nIt1n4/P+P5a/+Mf780aH96lewpFfAqurKmXfVS7LncwdfinfwpRRufB25q1+ePW6NzzD+lg9Qvv2dAPgp6ehXrMySbnmGyyeJe+0NNUjO9FVZdalfqbIXU1fysRmENLKKTrBwPL0gGJk9wZltwrjTyOwPvKtuGXqu/zq173+O+o+/PFTJ6h57jLi5Qu/oowRLJ1FK0TvxBKv3fZbFL32C+o++xMq3/zS7OPSJnVmsYhbX2hv9yhQwpJc6E0JKrOqOtDU8iXD0tJMzfSAjWNIrYI4NWx4MVjYHg8a3CrM8edmLfl+oUEmMQiAsj7A2ryuPuZK+maAfm7S+wn2uaVmVxKiwS9Ld+BwUt2uazG0gm1BJgjB02gRCogbOd0ngIx0PYdopEQy075ntZTYhKtbZoGZlKjvXCCk5s7apQBMkITLrNk3CxNan/KSxrkUIWjeoogiS+DlNcrhYuLIamiO8qGC4ecTU/qE7F2namJUpwsUTxEmE9EpZJSMJ/WzZuNeCJMGwE8r5PKWcPkHMr3QIwx6WZRDFIRu5L9x+sEDbT/jqwzVO10I+dc8STx7s8osvH8O1Nz5hSCGwDIOlepeeH2NIyeJqB882scz16zjTV617zCyMETdXsgkz8wzPodw1t9N46OuolFyW7/hFavf+FdHqWpSOf+opnHTiTCmVabAMr0jpZX8HZ/oA7r6bsuWFNBh7/eYan74VQbgyS9xpZJWq3KHbaD76bVTo66w8wCiOY2wiZrXKU/QAo60rb31tUibOTqtiZnEce8d+wqWT9E7+jNzAVFv3yCOAwprcm2nW+nD3XEfv+ONEq3O0VudQQY/Kq38JgN7xJ7Ll2k9+H+nkaT367eyx/uSkNT5DuDK3NslXGNP2GQvHMMuTuLuvofnAV9PnNidYgxBSMvFzv07i9zCLY0g3R+/kk3h7b1inhTLLk2mlIT4vgjXC9qGUQgXdC9abaWsUE2tyD3YSYBarRO0GQauGQZovKYSeuEtfS6mEsDaPWahu+vqJ30G6hXWtO0gJkEowChXidiObRF5bOUZYBU1+pByqYBFHGIUKKklQQReFNkgWpk2weAJhe8Tdlq4OD5rNCgN1BsMSiPS7LFirX6khwnUuCCEGql8DBMtyUsIFclDgfoVgRLBGuKyxUVnYquxAmg7B4nGSbgsjVyTxO0SpVqAfHGyUxombK8RJjLQ9JiselilpLLXxMQn9Dt0god0Lse1h/cAbbyjxqkMFvvV4na8/3uAHh9v84HAb1xLsqtpcNeVw53Ulit5aCdxzTdrdkHLeQUioNX3mltvkXBPTNHAtvWwUJ7iOiSGHzz5GcQxOk96teeQODFdppGVTuP4Omg99AyNfIXf1bXSPPIx/6imE5aBCfygLUWcS6iqa9IpIyx6qXm0FhlfAmtidEZ7+BKG9Yx/26T34p5+h9eh39GOTezbdjrv3epqPfgeFwixPZeJuadkYhWpWNTJKY7h7rqf9+L10Dz9Ac3yG4k13oqIwCybOHbh13fbz174Se2of/uzT1H/wN7R/dj/5a1+JWZ4cctDvPPNAdqHJXftK7PFd9GafRkUB1df9Ms0Hv077ye+DkKlVwhRddHvPqu7MCFC/lboV2IOu6pbL+Jt+dcPlhDSovOrdRI2lrOI3wqVFFo4tjQtrQUUBynS0v1NOt8ONKEQIkVaXFFZlhzYQllKHlicJwrDOWsVKgh5WdRoVBqgoHJqiS3otpFfCqk4T9J4ZusGE1NrAtNMweGPNey6OEIaBdPIYuYigsaSrV04OaXvErZqWIAiBWRwfuhHYqIKVEaJB3V6fLG2xgqW7FmsVrKyLYdogBIpkKB3jSsGVt8cjvOghhMAsVklCn2DhGAZFkqCH4eQyMaRCafsDr0hUXyTuNhGWw1gpT1HlwSvRqYEf9jANSa0VUMrZGMbaScKzJe94aZVD0y6f+f4yq+2YXqg4vOBzeMHngSNtPvjmHUyV9UnPkIJSfk2QXMzb1NsBq6n43TINUBArxfSYx0Rl+K7V3rGfzlM/xN55kOrr/u6GF/HCza8nCXq4e3QFpPKa99I7+ij21H4Wv/BxgsXj+oQtjcyiQVgO0jq3UHozuLuvI1w6SfPBr6X2AkJPAE5qgtXXeQ1Osp0Je3IvY+//nzl67DhXHTiA7a6V+83K1EBbbhx35mpKL/s5Gg98lcYPv6BJcrtOtDqHsD28DQgWaM2UVZ0mmD9G9+gj1O7/awo3vx4VhchcGenksmpf7prbqb7mvcBw669465vpnXxSB09Lg3zqnJ67+uUIw8TZcRX+6WeGrDYuJgb3ZYRLDxX0MPJlrZW6AIKl4ghlDrewhO0iTIu400DYOayxGZQQRCtzWlukEqS5OcFKwkBX7MuTJL02SehjpARLJQlJHOGWJzELFeLKFOHyLMp2kW5BE7t0+6DlBH09WBL0wPaQtqttWwwDYXupiafA2XmAYPEEKo4w8qXhnUq1VkolGfFSAEJo3dTg+08f2xKEyPiVrljp9YRppzfMcdamvJIwIlgjXLEwvALCkGlwaKynTtL2jkBbFpilCczyBMHSSaKVOXDzIMA0TUwJeUcyM5mn1ompN31ynoVjDQszr9np8b/90i56oWK1HXFiOeDrj9VZakb8m6/M8Ya02jVYzQKwDEk5JVxKKcJYIYAwilmq9yjkbFx77SeYv/rluDNXa9+sTU5M0nKpvOrd2d9moUrhpju1vYVbIOm16J38GfUffTHzqJIbhCRvB+7ua2k+9PVse8Vb3oS0XPLXvpJg4RhWZQe5a15xTiNKYZjDd7kprMqOTOPV1zwVbnkTSRTQeuRb2cQk0mD8zf8w061thtLt76R34gmC+SOspoTK23s91vguavd9FqM4TvmVP7/hukauxI73/7/WAo0th+LNr8+eH3vTr+qpqlFkzBUP7Smn0nZYmwudT1PmMEGTlqO3XVvAnp5CmJYmNX0mkSRgWJlth0oSkl5ba6JQkCSYlUldWcqV9PkrldglvXaa46qHIezxXRi2R7BymqTb0EMsimyaWJhmZq+gQh+zOKYn/2wXaXkY+XJ2zpG2hzN9FSqK1pEaXQ1L242G/o1kLcIzK1hCsPUeoRzgVyr7/QnTAsPMRO9XGq68PR5hhBTS8ZB2jrhd06VxKddOIpCVp4WQGE6OSCkt/EwnErNoG9tgd8HDtU0Wa12CIKGQM4dIjhACzxZ4ts1M1eaGXR5//K0Fji8HfOmhGt98vM5v/dw0M9WNK0VCCGxTb88yJatNn+Vaj50TeeRAq3C702ND25++it7RR1m99y8znRZwwWTAmtiDzJVJOnVKr3gHxXTy0CyOMfmO37ygbQND7bC+Z44QgvLL346762rqP/oy4eppxu68K4uMOev2ClUqr/tlVr/755mHlbvnepzd1yJMG2f6qrO2g87mEyUdbyQkf4FABXqSzsxXiJvL+txwhnmlSpKsOrPpdlL9lTLXTxwbuRJJp4GZTqAKYZDVeVQCAy23xO/o6vD4DCKtOEsnjxACw80T0jcZTkgiH3di1xqBkoaudEVh5k2nBJknmzCs7HynUNn3X1guMl/CcIdvWoRhbVwxksZaBYs+SSVtEQIILXDPRO5bJViDf6jMRFT7+mkh/ohgPQc4fPgwf/AHf8CDDz5IPp/n3e9+Nx/60Iew7c1bIAsLC3zyk5/kvvvu4/jx4xSLRV7xilfwu7/7u+zadWlK/SNceghpYBSqRM0VrNI4KopQcW/o+ezfpqN7+bH+oQrbYfB0aEjJVNXDc0wWVto0OgHl/OYX4aJn8Fs/N82DR9t866cNTtdC/uTeJf7Jm6b43tMt9ozZ3Lx3c+FsIWex3OghBEyN5TDkNsrpm8CZPkDv6KMZuaq+/le0m/gFRpwIKZl8x2+S+J2z6qzOF4PeUMYZpoTOzkNM/cJvpbqRrZ+ucgduwSxUWP7Gf0JIA2fnIYSQQ6L5ES5vxN0WwrK35APWH+3fDpKgi1kax8iVtKFl6CMGyLNKklSLJLN0ho1eN4mCtNKynmBJJ6eF4m56LpBGVsHSU34mKiUlKg4xS+Mb/l6l7SENS2f+hT2kW8imjoeWsxwQKiVAa1UfYZjrqvuQWs3s2H9O89k+dKVKrlm1KAVywCg0FaurTOS+tc9EiAFtl1IZMQSdiZl01YhgXWrU63U+8IEPsH//fj72sY8xPz/PRz7yEXq9Hr/3e7+36XqPP/44X/va13jve9/LLbfcwurqKn/0R3/E+9//fr7whS8wNja26bojXN4wvCKGV8DMlYnadZSfZCeXwSgFYdkI0yLxewjTRqYeMIMQQmuoDENwfK5J14/wnM1/IqYheMXBAtfNeHz0C7OcroV8+HOnSNJzzj991052Vja+OFiGpOBZLNa6tLpaDJtzTabH8+vE71uFs2NtMtHdf/NFJRO6snR2R+bzhVXZkbYBJGZh49/i+Zxc7al9TL//n+n1r8AJpBcyEr+rNUpDxpQpAUgjslTYIwl74OTPWjVUSUxUX0R6xU2nWIeWV0q34VSiW2mmju2KWitDr5N0mzqM3nYI6wsYbhGZWgWoJCZqrmo+EYXI/Di01lvHGPkS0nYGbA50BUupRNvESFvHWiWx9nraZJpQ2A4yV9QpA0mCMzOzYYVJJzhIiGNt0SDXKlxZdQkxfPO5ncDkMycS03ae3kaSVqL6FSy2XsFiYOJQqaFKomG7Q957VxKuKIL1mc98hna7zcc//nEqlQoAcRzzL/7Fv+CDH/wgO3bs2HC92267jS9/+cuY5trbfdnLXsYb3vAGPv/5z/Nrv/Zrz8Xuj3AJIN0cRmEM6RURvXZ64lKpG/UAwTJthOWQNFeQbj49EQ2OBq8h71pMjeU4taADnhGQ9ywsY+MTUdEzuOuOcf74W4skCixDEMaKv7h/hd/6uR3ITU4ylimpFBz8MCZJEpbrXVzbYLzs0fUjLFNibvKaG8Ecm8YojZN025Rf8c4tr/d8Q9ouE2/7J/ozu8h3qSNidfkhCQOi9iqmHNe6yRRxu4ZSKq1Gh7p9VxonWp5dn0M3gLjTRObLKL+rNZZngVKKqLGkDYyLY8jU9d7IFbN4KiALnber+7U+yXIIlk5mFZq428QsjmGWJog7DZSwYHk9wRJCIuw10qZJjyYoKkmQ0kAJA5VEmmNsUq0TQuLsuAqzOEHstzDzG9uECNPSN5KhD8KANJM0qwipBOT565n6UUuZML/vWZXqrUTfbDR9fOsidznUURg8dxvFMeR5Sieeb1xRBOuee+7hjjvuyMgVwNvf/nZ+//d/n/vuu4/3vOc9G65XKpXWPTY9Pc3Y2BgLCwsbrDHClQIhDZwd2rxRmLa+s0oS/aMfuksTSK+g73RtV981Sjl0Z5REgS6rmxbVgqNFpwrCMGF1eQk7CTGrU5hSrDm+pCeCG3fn+MCdE/ih4tAOh3/1hdMcXfT5+FfnKecMbt6T45Z9OeqdmEQpJor6YiGlyKpkQggWVrv0gphGK8BzTXZOaA1GtxdSyFkYZwk4FUIy9fO/hUrioSDtKwF9764RXvhQUYA0nfVVCRVn1R0VhQjbxR7fRdJpaKdxc61F1v9+qygEFWO4BaJNzDj72qa+iaa0PdyZQ0MBxMJ2dfsu1WHFnQZGoarJlTSwxnbqjNCVOYRhYlWnscd3IUwLszhG3OkAc+d+85kbuj5PCcfTFg9hoM2Iz9IOFYaZmt+exeQ2FYUrv4twBkybUxsEFce6qnUBNzLCMNcsH1QC/W5BkuqulCLzwdqyyH3wj7Upwv6+X2kROX1cUQTr2Wef5b3vfe/QY6VSicnJSZ599tlN1toYR44cYXl5mYMHzy2aHeHKgDB0jINSsb57OuNHadiejl9IT6aINaG7UklmBmgWqkhpZDYKYauOS47VWge/G9JWCtFt4NkSuzKRbf/WfWsn7He8tMLnfrTKkUU9Gv3QsQ7/+XsQp1X0v3vHOK88NCws9RyTejtgpd7Fsy0abZ9EKcIoJgwTZiYLjJXO7mY8Cugd4XKHioJ04nfAljKJQRjZxVtFAUZpPL0xKhKtnAZvzUA4sbSFQdypY5YnMYvjRPVFPU2c/u5VHBG1VrUlQhQgpEnc62CNzwyRK1izA1BxiJCO9jorjq8RlDRw3vRKCNs9b8+sLFImSbTY3LBQpkPUaeq4pS3ozc6+fQNpuYStGqZXXDsHZq+rLVwuqFJsmGspGGptCECllSzF9kXugxosveoLI2TmiiJYjUZjw2pUuVymXq9veTtKKf7gD/6Aqakp3vnO82+lKKXodM4e2bIddLvdof+PsD3EfkAQ+EihYxdUr4eQa3E1SZQQKIkKImTPJ4hCUArf97WXkzQQpkuwPIcsjOmTRhSQ+F0KkzM48jSRaRElks5qg5V6F9fqYprr765u3+9Q9cZo9mKWmzE/PNKh1Uv6HQY+8/1l/CDklQeHT/SuCTrBKsazBPVGB9OQKAWzC3VMkWBbV+bJx/f9of+PcOlwKY61SisT29LsbICo20W6OndTKr2tJOyh4kRXhv0GSRhgJxB3OsSJIOj1MO0eUaetMzlrKwjbRUUJyi4SRQl+nCDaTW3iCSSdBsLJYY7vJq4t0Fue09N5hptWnAbfW0IQJRC0EHZMEgSoKEaeeX4XFoQxhMOPb/XcrVRCEIYQBCSBj/IDkgSiTgtpuhCE+r8LQKgEkd8jiWNUuv+JH+jXDXXrld75fy/CMCLudjEMN43/UaiuD0mE3/ORyVrMjup2t/R9SXo9Aj8g6vWIAh/V6xGe5dp6Ka+V5zMwsRmuKIJ1sfCxj32M+++/nz/+4z8mlzv/O/4wDHniiSfOveA2cfTo0Yu+zRcDRK+FUT8Fho0Skrh1xh1UHGI05kkaIcrKYa4sIlTC7KlTiF6DpDRNYoeYtXlgAWW5iLAHQhC1JWbtFEqaYFjQbdDpKk7X2uRyzoY3agWg4MBOB64bg2YPii5874jgoVnB537SoNmsccPG0sEhKAWtbkxtxaDomZgGm2q7LnfMzs4+37vwosHFPNbCbyGShMRbf5O7ZagE4bf1byuOUKk+SQQdlOmgLBejtYwSgrgjUfYCIuxirJxCLawgoh5J3ke2lhEqIS5MkPR0uoCxOoeIfJStz+mi1yTJV0nqEUQ+Zm2RxPRIusc2rKzIxhyy10SZDiKJiLqW/q1vA1s5dxsrJxBxBElI3EwQSYxRO03cjEkaFy7mFt06Rm2OpBWTrKREKg4xV04h4oDYLZE0Nw+xPxdkewXZWkS5tfT8KImaAlSMuXICJU1EorsIUWuLFaygi7F6EuXUEH6TuBGjvMVzrneprpVncyXYDq4oglUqlWg2m+ser9frlMtbE8H9xV/8Bf/23/5b/uW//JfccccdF7Q/lmVx6NChC9rGILrdLkePHmX//v143shrZ7tIOg2CWaHL7LaHM3P10PNKKeLGNEa+ijAtmkcVc8ePsHOigu1MY89cjTBtwqVx4vqivlPuNBBuHmtqP8EpM9NyxM0VZgyX2YU67cShuJE+Kugi4h7KG9ZM7JlRFB5ucu9Tbb7xtGRirMKte8/9eUdRTKsXoQyB7VlMVXM4ltTC3VgRRgmOLc+q03o+4fs+s7OzzMzM4DgXEEsywjlxsY+1ikOSTgtIdD7jVtaJAu1DZphZ6zoJeqgkQpqO1kPlNFmLm6sYY9NI2yM8/TRYXuZbpuKI4KSNinyty5q5lnD+CCoKsHceyoTy4WqVePmUjpwC4uYy5uTeLO8y7lyFkOa69mAfUW2caOm43p5hYe+6dsuVjO2cu8N5R4ewxxHWzCFIEsLTFtaO/RilibOuuxXEnTrhrIU5uSd77/oYSpJuE3Ny7wUlEUT1RaJFB6M4riv/po2z69r0NYQW1scRGDbO7mu3tM2k1yY4BTJXIm7VsHcewNhkohgu7bXymWeeuWjbuqII1oEDB9ZprZrNJouLixw4cOCc63/ta1/jn//zf85v//Zv8773ve+C90cIcUEVsM3ged4l2e4LHbFIEK4HQmDkC7gbHcP82sk1zBVAJZgiIT+1G7tU0Y+XqvjdGpbrEoUdzFIVu1BEeB4kCdJxiAOHXKGCkUQsRy6NVoBlaquF7KQcd0BaYJvrNAXvud0mTAQ/eKbFZ+6v8eTpgLfdUmFHefM7ZsfRux9GCa1uwFIjoFJwaLZDekFEFCeUCzY7xgvYGwRMXy5wHAfXPbuWbISLg4t1rKNGB2NsUou/bTsbo+9P5Rm58lAcU9xtATGiVCFu1zEdGyEkcRIgnQrCsIhaMWa6b1Fg4ZSqSMej1ygi7Bxucc1d3ChVCFdOY1cmcYolYvMAKo4wB0K3o7hKr7WIlW3TwSmUMPvngXOcU6O4RK/paLuQyjhO/tyWD2diK+duv1AiCrtgmbj5gpYpFMvYg/t6AUgMQa9Qws4Xs+0plSA8jzju4RaKWBfwOlGUx687mK6bfp553FwaU+a6esowMRCWi7fF10mkQrou0nWJIgfXy2/pWFyKa+XFag/CFUaw7rzzTj7xiU8MabG+8pWvIKXkNa95zVnX/cEPfsDv/u7v8v73v5+77777udjdEZ5jCCkRUpKcEYq6KUwbEYcIw8LIrbU9BtdVKtE+NkIgpKmNTJWeNJK2i2NJdo8VaeQCFlfb1JeWUHYBJQRlIox0SgjLHfKGEULwy68cI+9Ivv3TBg8d6/DQsQ6TJZObdue4eY/H/klnwx+7ZUrKBYdmJ6TdbWEZBpYlcWyT1aZPGCt2TRbWRf6MMMIgBgXhGz4fR0Stmh4SM0yMYpWk14YkzjzmVNDVwyVBFwYIlooCzMoU9tgM3ZNPkvQ6GF5Be0ZVitqWIDPcTIdSLEdXjywH6RWGvvvSLSBMO4tJ2mhKVtoO0jCzLE7Ynh2BzuLTFgSX0q2/bxgqLTvzp5KOe0F5oYMQpoWwnTOmqCVCmnoi70Iz/YShXeJBi9z7VhCZsajK/LG2vk2ZWWDovy9sFy8XXL63uRvgrrvuIp/Pc/fdd3Pvvffy2c9+lo9+9KPcddddQx5YH/jAB3jrW9+a/X348GHuvvtu9u/fz7vf/W4eeuih7L/jx48/H29lhEuBNMaBOMoM9s4G7W6sM/wGp+90Ar02O0SpNZNA01qzgZCGTqA3TaSKqZYc9ow7TJdMdo87lAsOHT8C04Y4Fa22lsBvre2uFPz8y6r87jt2cv0uD0PCYiPiWz9t8H99dZ4///4yUaxYqIestIYDYaUQlPM21aJLIafzE01DUC44tDoBC6sdkuT8dRYjrIdKklTofeVBKUVYX9SWBUDUXCVqLOnv+OBySZzFn0TtGlZ5Amf6Kuyp/dp7SRpD6yR+ByNXWRdYrJJY26GYFmZpgiTo6sxQlejHpZmZVaoo0Oa/tqMjX/KVdYah0vY06bI3Jz7CciCNVdHhwNsjE8KydUSMFNpG4lKhb9OQWjYI28UsT531vW0H2s5hbB1JFKaZveYFbV8OTvypAZKuCVYWlbMdw+S+pYPSea0XOkhxueCKqmCVy2U+9alP8eEPf5i7776bfD7P+973Pn7nd35naLkkSYjjtZPAww8/TLPZpNls8iu/8itDy/7SL/0SH/nIR56T/R/h0qI/Aq2U0j5X51reMFCGhVGoDucOmhZC6vT5wTs+YVraoye1gZBuHkxbp9wbJraMGJuogBBYrkV31cCPJVYUIqMADFvf/Z+BXWM2/+RNU/SChCePr/LYSZ8HTob84HCbh4518COFZQh+8y1THJjaoN2TxPS9aKQQFHMOqw2fnGsxVty4CjbC9hE1lxGGhblBRMmFQEWhrmpeyigQlSCkQRL2SHpthO0h3ZwODR6o3sbNZUDfZEjTwRrbmd18KKXSvE/9HdaTYhJp2UQME89+xRfAzFeIrDkdaVWexPCKmgSlZFVFkXZ1T39n1viudd9Z6eZ0G9LevN3ZDy9OOo3UB8/cXgXLsPSUoUqyLMBLAW3WKVIrGW3GOdjqvBiwylPrHtPk8QItGiCzfOibOmd5h0KkPmb9adNtEDkxQM76f78AcEURLICDBw/yyU9+8qzLfPrTnx76+z3vec+mJqQjvIAgtXmoPrlv4cctDZTtITcKOjUtEr8z5CCd3XUnaUirYeqIjfoiuHlUFGEUysSdJgXXpVzyWIoszI5P3I3wCiXMsE3kxximxDSGTyKuLbl1p+DWvVVefrLFf/pRj26g7/LDWPHvv7XIB98yxe4xe3iCsFsDJKTuzqYhcG2D00tt2s0WRVtRqI4TxgnLtQ6eY2YeX1GcbMst/sWKrJ2WROdeeDvbVQlRexUhjCzo+pIgTTcwq9PErRrW+C5UHOCffhaZjqXrvEcLozhO3K5pv6jByq4QSNMm8fVofOJ30ky8MURtITtG/Ytk/3cjHQ+zNAFSYlWn9XEUMmszqSTGGPB/2uiGQFoOztTec75N6RaImitII9atq+0QLCGQjkecxBfsR3X2nTTWImeeQwNNXZm/cIKljT/TuBylkIPbE2vaPLYzbJNVsFLj0hdIj/CKI1gjjLAZRN9ctG8ieg5IJ0+Sqw7FdejtrE0KioGQV2GY2sg0SdIql4HhFQlX5wGdUi+kmcZsREyOFaiUdxHN9+g0W6wmBkEQYjgJfjcm6a5SzOcw3NzwiTZX5bpd8D+WLeZ8h91jNn/8rQWOLQX8n1+awzIEt12V5923VXGNBEQa5JpqWYh6eLaLaUia9RUaUQ+zLVFKEEQxhhFiWSYqUSzVukxWPcqFF+dUXxL0NIkeuEgkYaANLEsT2cVehT7CclBBL3P73nh7XVSSbCkTD/T0lHQLWUD3uudDn6TbunDylRo/msVxrPJUFqfSdzcXTk5XlSwHe2ovSTC1oQ5JWDaqqye5VRRgje9KW4F26r5upO254WN6Zkj4YJsJlcBFijSSfa1jHCGd4rart9LJpWT00hEfXcEystiZ5wrCMMCwtlTdPyv6BFlps9ShzFc5UIXaBsESff1Walw6qmCNMMJliL6GYrML4PCyJsopbPicdHPaadl0huImdJZpjDD0nb10PKRpkgQ9pDQysqaSCMNyyI9X6bbz5F2Lam6ccDHEHasQdLusrORY7SSUklVkvj+SLMAtgJ2joo5RKSowBf/4tUU+/f0mhxcDwlhx/zMtfna6y80zFmMFi5xjUrRq7B+3cKWusliWh+VKElEkFAoMg0LOotUJmVtuEYYJSsHppTaGFBRyl/Cu/QIRNZdB6c9FXiStSuJ3tSZJyqxFo5Qi7tTTalWcVUCS0MfIlUnSoGCxSasq7rV1m8R2N7xIDzmNq4Qk6GFVp4n87obETUWB/m8TUpf43bSaamXt540GPJRS2YUrqyxZDkZxjHDlNNLJkYQ+ZmFM3zhsQhCF6WgX8rTS0NdZ9ckntpvm6p1D/zRILJRCXjSCZSMNU39e1uS21zcLY6jcpc296w/jXLDYfNuva6Q6rAutYK250aMYJkPCANI82O1Uofou8EmSSrlGBGuEES47CNME5PbK0xttx7D01M3gXbxM2xpJkr4OWjtiucRdHXVheEUtkA8DnWMmZDo9FZAvlek15jANibQEk+MluuVx2rNPUXTT1pORGpk6DpR3wspxCHsUHI//9s4CceDzbDvHn9+/ynIr4p6nY6C3tosCbtrt8qsvNzAtT5MS08AxgNRxPu+ZtLsRrm3i2AaNdsDJxRYTZRfPteh0Q7pBhIBURL+eeEVxQs+PnhNSlvhd3boqVIkbSySKC57ySkKfxG9jlCaIGktrj3ebWlsXR5rU9DlSHGMUyqASEr8NKcFSSqFCf00bpBQyVyLpNjHylWy7Ko6IO/V0cE4hbA8V9JBuAas8SdxaRcUhCJukU9fh5VInEgjTRCURQg4faxVHuo1tWlpXJQ1NksobEQudz3lmxcQsVIhqczqeJo6R3sY3HH0I09RVizitUqWtNOnmiTqNdL9iMM+RdzcQ7qtQ62xMzheZ0D3onlecjTAtBJeY+Bhmmhrx3F5+hWEhnfyFkxdpphVLPxWkD9xISKm/4wParK3voNDnViEv2vfh+caIYI3wgoImRutzCLe9HdPWd8MDJ+msgpUka8J3ITHyZaLGMrI4rvPEDJvYb2SVFqs8OSTeVEmMSmIs22H3jgmOLhyl2+3iOTahkqhYYptAfhwQ+oTs5LUT/dJRrnYV/8O7dvLg0TYLy01W4jx+BIvLTZbbMY+c6PG1fMLbX5ZPT+bmkLheCEEhl15EkoSiZ9INYk4ttjEMSZIkmIZBFMUEUYLnmkPmpXGScHq5TbsbsmdHkbx7aS9Ica+FPbEbe2I3vSgk6TWBsxOsJAqIWzWkmx+qxqgkIek2UEmCNTajNTspwVJJjIpC7PFdhCuns7w1ldoSSNtDeRFxu7a2vaBH1F7FKk2CENrOIFck6DaQfU1SkhC1VjFL45ilCeJOg7jTwCxP6Lw7J6crQGl0UxL0EKaTkvt0ijVOJ1IH32PoIxwdXKziCJIE//QzGw5SMFDBGoR08xheibjbTFvjZ/fMEtLUFbo4BNPKqmGG4xH1v+PJudtzfUE0pIqbi9SS01mjniacl3Jo4ALQrwA91xUsmSth5y48BF7nQ+aJVlv6hnNwQCgdMgK21EVYW7Fv05BqsF4YBawRwRrhhQWR3h1e6B2Q9pJxh0+C6Z2VFgOv/XSkm0fatq58pKL4wRbAmot1N209Jag4xvAcKkWXiakx5k+cJIliAsMj6kaUpcS2DCgMaG+kCbky1Odw8jledZUDewVMXQ2mA2GXB56p8+mv/oxv/Czg1n1ddpZTghVukNkVR9CpIaRBDnDzRRQGRiq+jxOTRjug1QkzjZZSiqVaj5V6DyFgcbWLu8O4ZO7xid9FWm6mQZKOR9xaPfs6UZASmEmi5jIyJSZxpwkopFfAHtuJka+g/A5SGtpCIAoQtodZrBLW5nW7gr7+ytUEK47SG/RUGJ7EGLanyY40wLQxy5PEnebahF4SI00be2I30vYwC9V1HlTSzRPVFlBxmH5fUrKiFBhWNrkXNVfRgeQV7TVVHMuIvIpCkOY6y4RsOxsQLCEkZmlc3yA4uU1bn9ny/fZmFCJza2HCwnSyFo+KY513dzZkRqWJfqcX8fsj3TyiXXvOCcyWIQ0wLsI03zYh+kLyiwDD9oiSvl5q4LNLfbB0VXLrr9Un3Ek67fpCqWC9MN7FCCOkEFJPDl14BcvSo+wD49p6esbQY9yDBMv2kG4RaXvZJNKZIl+9vpl64MRaCJxue2rHBNWChSBm964JZibz1Fo+UbRBLplTXNM/hD2wPE2uACyPl163g5v2V4gV/PF3V7n/WMTjcwnfe6bD8WV/2Mcp6oFbgskDkKsgew0MkUCnDp06hhSYhmSp3iWKI4KVBebmVlhYaVPwbEo5h3rLp94KLuhYnw1xr4VZnshIhK4obu5FpVRC0q5jVadxduzHKk8SNVeIu7pi5Oy6BnfXNZipNYcwbU1gUoIlXS9rD5P6QSWhj+HldXXEcpH9ihLo74LtoUIfFQf6u2A5ui2cLqP6wt1B48czvp/S8bLhCEwr+5yUSrWC2bZiVBLp1mQcDbf00u/cRgRrTYO1/pQvvaImJbabkdFNYZggBUmoHbyz92PZWdtIJck523NCSN3PvgS+R9J205ujy7N+IITMhmSuVAhLE2qBGq5UpW3tdKltblRm3mgjkfsII1yO6I8hX6gGSxo4O/YPnwSlXLtIDegOhOVglieRnr7gSCenR6LPFO72R7NTw8q+fsWwHSYqHuUopjRRRhYKxLFifqWN51jYltY12JYBdk6Tqm5N70cmjk/3RQje+6ZrOPaff8xKJ+HPfzBQ7Xlwjmre4FdePcHV0652mC9PgFcG09WGqK1lyFUhaEMckXNN6i2fI8eWMYjotBvkCgW9T4AjY1bn5ijIMSwvd0EXtSQMhgjtmdUrfbCss9ArSLpthFfEHptBGCbW2AwohVEYwyhU1rWthGllxCCJIqzUskOYlnYnB4jjrAopbAcsmyQKMExLkwnD1CQqDJGVfLZ+drFQG+ufBiHNNC3AsBAwQISVPqZxnFa9tCO3CnoIIfXUXP+9CIGwXVS7tl7/lDprb2aBYBTHtvTZCcPUr6+CIRKlt1ElWp3XHZ5zbUtIhDC0XktcXLsCaTlIy91amsPzBGnnLq0VxCVG//ymvdAGW4SpG7vavlBdSD2ZKITcnkD+MsaogjXCCwp6Uubi3B2euY2+BcSZU4pCCKzKVHb3LwwbYbnrWhS6AmZq8bRY276wbEzLxrF0W9EwJPt2lji4qwIour2Irh+xWOvQCxWhXSJBQHkGvMq6/a6UPP6nX9rLz99osaPqsGvc5ZpJA9sUrLZj/t0353noSJMHT0Y8vaT0xdxyoLobxvfp/5w8hF0MKSjnHVQS4ieS/M792MrPdD6e8Gkpl3agiFOR8yC26nyehD2i5hJJuFYNi3vtoeoVgDStrKW37rWSmCTysas71iblbBdn50HMYnXTE750PG0xIMhaW8KyM0fzQcIghNQu38laBQtpIC0ncynXC8qBOBG1Rq43gbAcrftz8yl5H2gRppoUFYX6u+XmiDsNfZE7o6UnbVeTlnUH54xKwxmwx2ewKuvNKdftZ/83YFjrCIKZivoF4tztuf7NShJdFM3k0KbdPPaOfZdtBQvAntiNkb+004qXEsKytSZQDFcfs3Oa/mN7G5VyZNMwwgiXM6RXwL5Ud659g0Bx9rgJ6XgYueKGU1TCNLPKSHbRNm0tGFZrBoeGFEyN5SgXHVSiSJRiYaXDSqNHIvMk1g4ERUqJyjRTg/DyBd50Q5E33XlAn7QWniGwS3zq26f56VzMp+5dSZd8ittvqPPeN12Nbed0hQwgNwbLR3X1xxB4hoJCBYpj0FnUBEMaSPQk2mpi4gTLLC63yXsWpZxNuxeyXO8ynYZPJ4ki3oRwqTDEcAuo0NcVIr+LtGzM4rD/02BLb/ACqpKYuFXDyJUxtumKLZ2crkg5OaStqzJDUS4w3N5LK1cApJ5XKgoRSZTZdAhpIPocqe+bdpYLjrA0KTcKVT1RmBWw1rQs2mfKwSqMEdeXNmzpSXOAGA4hOet3dssEp28yOSBwz57yCkivmOYTnv3Soo+FyHIIL6YGCzh3q/N5xpVuQyCExHBzxKG/XoOltqe/Wlu33yIcEawRRrgsIaSBcC5uunq27X78xznuuKXtYk/s3ngbloOKV/QFpU+wpKEv8meQBmAosHn/TJnpiTxJouj6kSZcTR/H0v5WfXf3OE4wTAesnL7LTMmQrXz+0WvKfPpHPR4/0WG66jC76vPDn87z6OFlpsdzRLFitdnDD2IECb96h8FN+yuapFnumonrwKRaPudRb/dI2m1aQuDaJtFYjpVGj2arS96zGS+5rDR7LNQipjshrutmQnHQfk99cgHaJdwcm15vx5AOEagozB5KQp+408DIV7Andm+7GpINJZj2GkEyzFTMnuiKzIB3kDDtIfIlDBMjX9KaqH6Lc6iClXCubEwhZBpL42k7B/okSWUVniTsYpXGs+zMwYibteNjbXxxUtuMLtl0PwXCdPRnd0acjJAGZnmcqLZ4bgsCoaOdVBRkk78jXFmQTo643Rgmx0Kg+oHP26xg6RahIh0rvaj7+nxhRLBGGGEb0Nqc87/jlqnjtXTzQ2TKcPNaV3OO6ptr63VyrkWl6LJS7zG33GK53tXj8wAo8o5NrrJTX3BBEyO/jZkf4x+9+3rU6klEcYKnF0I+/eUnaXYCjsyub/H92f11/oeJPBUBrUDwl99+Ajfp8EsvcXAt/WqGZWFZMWGsGBtzaXUiTi91oLNKTsSsrlq4lsHq4gpJu8bJxRaRklREE8vNY+SK2gXf0B5LujqkMLz1BEIIgbRcIn9tKjLptbGq09iTe86r1SRNG2lYOkw4PbFrSw6VWnIYQ+7XmRcUKZeRhq6+ReGafccZTuVbaVdlGYdCruX0kRI6aULQw0gF3Ea+PBRjk+2bYepR+TNDnLcbXXIWCNNCntEayt5Dvqo1NFtuEca6PX0FC75frBCmo0n2kNFoSq6yf28D/QEiIa74Cl8fI4I1wgjbgDAtLdA93wuClGm8hDE8pm972lxyG3duhhRMVj0qRZtmJ6TZ9nEdizCKOT7XxK14WmSZTi+iEi1oN0zExH4Art4Dv/frr2R+pcPcchvbMhgrubi2wae+8BgnFjv8yb2LvO6Qwxd/+gyLdW1qemKpx6+/0WHc0jYQxbwLbX1RLeYtgvoyZikPSOrNNou2TRz4eJ6NLRMWFlbpeZJ8p44IBEUpMXIl4tYqSa+p22WbuIlLNwf1xbUHVILhFc77M+lrmYxBwiK1EWbWwhogSEIYGXlSaDJm5MvIwYrSQCCuUkobb251f6QcaBGmrWTTzAT5QgjsqX0b3uUL09LLn+mFdT7Gj5tAOrlN2pD69c3SxDm3IVLRfxJHOgHhBVKxeDFBOh6GM3yj2Hc30wbv2xS5978DF6HSerlgRLBGGGEbENLUIbLnezGX5loO2WAFK18+b9GrZRqMlTQxAgijmFrTp9kOtH+VECTSRkkbYwN/ItOQ7JossGty2MX7V99+Hf/Hnz7A4cWQw4u6JVctOkRRzOlGxEe/MM9brnd545TE7HvXqGRt4rG6B3oNrFaLWqOL55g0fQcn8clZBq3YpdVuoGoL+NUC+w4UEbZLUFvE3bFv02qeMCz6DKdPgM7pu3QWCNNC5ipDod+6gpVWWOSw7Uf/c+tPPPUrQ4MXlGxiLw0HP1eLcAhyQOSe7ou0HJIoHNJ4bfheDO2grsLe8BMXMV9vY6f484A09GTk5epXNcJZIdPcyiEISWaBtd0qVFY9fmFUr2BEsEYYYVvQ/lbWeZewNbGS6/QrFxOWabBzIs/hk3VqTR/DEAQ9hfShKJ0t/+gnx4r8xlt3852HZlkNTKqVIu9709UknRp/8tWneXY55kuPdXmq9gS/8c5rsftTQErpio/lQhKRdySOJUl8h8gCVIxhWJQndkLLJKrPs9wBrx7Sa0vaSz0MI6YkmkxUc0M6NEiriAhdHYoCPX1nX1hYtTN5hmZOGiBFKiz3zrDrSMNu47NMwGWEU6Xtz62TG4HIWoR6GktoAhn0zvm9EdLQAu+kPfzEOaYIt4OL1b4RxloU0AgvEAgtU9B1rO3bNGiB+6iCNcIIL0oIaZwzTuSsSEXiF1Jx2QrGSi7shoWVDn4Ys3f3JO26y0IrZKJiZoL4c+HQVTs4VGjrXMRiWrkwc/x3d3o8cErxlw90eOZknf/45af4xRsEk6UYKRQnawl/8/0nKHkGv3KTxEp8fNMhsm2UnegsP6cAcYDZXsHOlzl6uo7sKTynSKAcavMtluo9ZiYKjJddpBTEcTqRlwrdtTlo8aJXQYTs+zSFSGu4sigMXYFUUcimHk5ZizBO7+i3QW4GzRo1w9IEMilsaTvC8VDJ0tBjSr+pre/Dc4B+VW9b1b0RLnMMCNy3XcES2fDDCwWjb/YII2wDRqGCvIA8r35rUF5iE0QhBONlj0rRTbMFBT0/wp9tsFzvMlZ0MYwtnMjsnHZ7Hxx7l9ps8rbdEZWxaf6fr8/z5PEaHzkOlgFjOYPFVkyScoRrKkVeMd2Fwk78eov5oMCesbK+Y3Xy4JXIF/I4totZtMB3IVdAKUWrE3L41Crtbh4hBbWmz0TZZcwr0ast4PsR0qwStANK+YtXFRTS1AQpCtf5PfWfI47WbAvWrZ9aeiQqbZds/aIxuL0+MTLzJVRuay1kaTkb5hFedsJhwwDEZW0IOsI2kU0Qnsf3TQjO9NW60jEiWCOMsA2IM8Tp24ZhaA+h50h3YkiBke6v59pcNVPm5IKeOnQtk5xnYZxN8yCkNiAdfM9GqkPrdTm4q8I/+cUpvvi9I5yabxLEivmmvrjvGMsxv9Lhi491sLD42jOnOb3io4A7bo54/5vGEKYLxSmw85iGBKR2kkefoIt5GycymFvpgFLYlsnx+RZdz6a70CYIAqLIx+yssme6yGRFxxUppfDDGMcyzo9YSJnGGiVD7vL6/essOeX7mhxs9H1ItVkq6WftbeM7I0Q2pUhqMioMa8udE+20vm6Tl2cFS76wKhYvdvQnAMV5VLBEXyJ/ud0IXABGBGuEEZ5DaI3MJhfl5wA51+LgrjKlvM1irctqs4sQAs82MyNQU0o9QZ8obMvAttZOE1GU0OpElDCQQoI0Obi7wm//8ktJFo+yvLzKcjMkV51k5/59fOQ//YiVRo9P/XC4ovL9R09jm5LbrtvBWLlA/iw2BrZpMFFe88MKwpjFtqLgVig5HcR4mXYkOTJbp97ycW2Tdi+k24vYNVVgqrp9XzSRVqb0QMIZmZJCx9UkUYj0zA3vuPVFxkCpKLX12Q6JGLzAqO3f0Utj3TVKV8IurwtXP/bnYvhzjXCZIAuUPg+i1CdlLyDLjhHBGmGE5xBCGhiF6noDzecQhiGZHs8zWfFodAJW6j7Njo9pSlxDEoQxCjBNSaMT4NomBc8ijBJWmz0c28BXBp5haAuIFNK0mczDZM6EsRKYkp9/7QE+9aWfIgW89iXT7KmGdJISn7vnCN958BTfefAUpiF47xuv5pU3Tm+p2mRbBpOVHLg7oLUEhkPekpiGpN4KWI57aTUMTi20KHgWOXf7FUPtGr/xxKiwbD0BdxaBtjBNEr+TXji20SIU/WH37cqE0/XT1tvGZazLCP0BgVEF64UDMUiuzqdFeHFjk55vjAjWCCM8x7DK5858ey5gGJJq0aVadAkjrdMSQpAkOp9QSsFircvJ+SaLtS5CKGYmtDfV4rKBJ4zhOCDTWruop4/fes0knnMzlbxFuWBx5OgRbto/hWVZfOfBk7R7Ia1OyJ9//Ske+NkCuyYLdHoRy/Uuk9Uc1++vcuNV4xvrxdwi2PnsAu3YBo49fHJeqnU4udBi73QR1zaJ44RmJ6Te6mFbBtPj+U1JnTDNVDO3AcHKcic3J27ajypKA5K3QSL604dZDuF2HbF1C5MBryo9NX95ERltSHqBLfcRLjMMVK7OV4P1AiLcI4I1wggjYJlrJzUp1+4+p6o5Cp5FECYoFKWcNjVdMC2SxEAOXhz7DuRnTNZdu28MgF5vzZvpjpt3csfNO0mU4ps/OsGXvn+Ep0/UePpELVvm8Kk69z92mqtmSnzgnTfgWiZCpB5bazt71vdVLbos1bp0eiFjJZd6y6fdi1ICKbEtg/HyxtVEYVgkSFo9hUgCirk1ew5p6kiaMwXwQ+tLU1s5mPa2NVh6GEutTVZtB9IAZEawzpeoXXKkLeYXUkvoxQ7R/+4izoPQn886lzdGBGuEEUY4K3KuRW7AVaKQs3Bdl16rjScMoighihIsBGbqUt9vHQ7mDW4EKQRvuX0vN1w1xuFTdZbqXTzbZLzscnKxxQ8fn+PIbIM/+A8/IIoVpiF44217eP3LdmMIgWHIrPK2EQxDMlnxaHdDTi218SyDatHFkIJGO+D4XBMpBZWCM7SNMIpZaUWsLHZodmsI02ai4lHMaULlhioVnp+tRdgPhd7uhWMt8ojzMGzs68eyauL5ErVLDSHBGLm4v6AwKHDfdgFLbLudfrnjiiNYhw8f5g/+4A948MEHyefzvPvd7+ZDH/oQtn32Ee0//dM/5Z577uHhhx9mdXWVf/Nv/g1ve9vbnqO9HmGEFw5MQ1Kplpit12k1AmzLwDIlq62QsUSgpKDWClEiQSko5511rbszMTNZYOYMJ/lXAK95yQz/8QuPM7fcASCKFV/74XG+9sPj2XL9qlbOMXn1zTO84bbdmQZLPy8o5GyGtw6lvM1qs8fTx2tMVT0c28QPI/wgphfEdJdbuEpSLuVIlGBhtcPCSgelFG7SYiKOmFJnuYoIqS8y29UZ9fUrSum5qvOpYEmJUAOB0ZdhvpsOTx9psF5QGNRgbZcoCZkOllxe39MLwRVFsOr1Oh/4wAfYv38/H/vYx5ifn+cjH/kIvV6P3/u93zvrun/9138NwOtf/3o+//nPPwd7O8IIL1xUJ8boKYdKyaHgWZiG5OSJiJVnYrBipvYWqZZcGp2AUwstxs21Nly9FRDGkuIWfKumqjn+6d+7jfnVDuWCw+GTNf76nmdZaay1G5UCP4jxg5gvfu8I9z5yCoGglLf5+2+77qxThNWiSxDGzK10UJBWxQSmIRmr5JG9OMsRHJxk7NR85pcC/MU2u/PVLIS750dEiaLgWam2SGgrgm2L3NVau3XbmW5Ch3z3CVa2ncuMyPSnCEctwhcOsurV+UwRivP6vl/OuKII1mc+8xna7TYf//jHqVQqAMRxzL/4F/+CD37wg+zYseOs60opOXny5IhgjTDCBaKYsynuGyZIu6ZLqAUPp1hiZqaMlLpy1PUjVhpdPAs6vZhJQxDGCb0gyojJ2WAYkpkJXX96yaFJbj44QRglCCGI4oQgjAnCmCOzDf7m3meptwIAai2fP/ovj/Db77+VaprTmCjFN350nO8+NMvPv+4Ar7h+B7Y1bAORISlpo9UNkMs5OMUcS42A3oka+3aWsAzJ4VM1ekHM7qkisuezvNQhaZp4VoOxkquzIc+FtAqg1kLdzr3OGZCGddm3CKWTwyxNnLXNOsIViguYIjy/2dnLE1fUN/uee+7hjjvuyMgVwNvf/nZ+//d/n/vuu4/3vOc9m64rR2XoEUa4pLBtm51TJYxiNRXKa/H83h1FVKJYWGmSAHt2FEgwOTHfxJQS4ywaqo0ghMiE7pYp8Rx9Gpus5rj54ATH5htYpuQvvv40C6sdPvwff4Bj6TBsy5Qcm2sC8FffeIoDM6VNRe661bZJdUUaGKbNWDnPai/kmRM1XMeg0Q7xHJNnT9URfgsvUmBLGisdFmtdJssermOmfEcghcA0RHa8Cp61Rob6FajzIUamPSByT7dzmZ0DhTQwi9XnezdGuIgQKUE6n9b2SIP1POPZZ5/lve9979BjpVKJyclJnn322edpr0YYYQQgcziXZ0zW5VyLa/aNUc5LVHeBatHBsl1a3YBGJyBJEpQSGFJQztuZJUOc6DaZlFs/WXuuyXXp1OJ/+56X8InPPcL8SodeEDO7pAOQTUMwVnJZWO3y519/ig+84wZyrpm9hlKKOFF0/YhHnlni2VN1Du4q8/IbdmCbKeEyLHALSMth3DFptANqTZ+xkochBZ5jIvwI6duQc8mXPfwgZmG1k0YIpZN9+hUz16vJao491fQCk6SxuedxwRGGmUnl+y3CF5K2ZYTLFP2hjPMhSUIg5OVXab0QXFEEq9FoUCqV1j1eLpep1+vP+f4opeh0Ohdte91ud+j/I1xajI73xUcQKeIgItzgd+EYCUXPyI73rnGHoGQSxYogjKm1AmYX67ip2FxKiRQQRgnVojMkXN8KXAt++3030eyE+GHMUq3LcsPn6j1lTEPyf/3lozx9osb/+n9/D8eSWRtxud4jjJKhbT3wswX+5t5n2TWZZ/dkntfdspO8V4YgAiJsA2xDEgY+YX+lMEJGESqMUalFRd7pXzwGLyL631GccPz0Ct06GMs1IpqMl11Ut4swQrYDPwhQgO/7JCLRvlrdHkJubzsjbA2jc4mGSmKCIIAE1DavjSr0CfyQqNfFkGfXZ17K432uyeft4IoiWJcbwjDkiSeeuOjbPXr06EXf5gibY3S8Lx6E30Itt8GY33SZzY53nCj8ZshSN6GYMyi4ulrUakacPBVhpa00y9BttTOhUs3RZidHT8DuMnRTgfydNxa4/2ct2r0EP0yyScVBjBVNdo/bPDvXo9WLOXyqweFTDe5/fI5XXlvgmhk3a++tOxZxQK65SOBGhKu9DZfZ6BjMHe9S6s2hFJw0TXINSSGnDU07fkIYJwgEOUeuOw79i4PotTCA2dlZCH0EELVeWNWByxEv+nOJUpjLx0lMm6QebW/dOMRozJMst1CbaB/PxKU63udyJdgqriiCVSqVaDab6x6v1+uUy1tLmr+YsCyLQ4cOXbTtdbtdjh49yv79+/G85y9K5cWC0fF+brGV491vzw1Wq+I4YWG1S6sbEUbaQiGKEzzHJOfo1l4QxtTbAQKoltyzB1inuGo/vOUO0gggn9Wmj1KKibJH3jMxDZkZsMaJYnaxzfxql/seOc3cSpd7HmvyyFGf196yk1dcN5npwpRS+EGMJRPCuYSTvQK2V2HvjuLWDlTkIxdACWj7CWF+B5WJAlIKekttZKSJZHnMY8+OAmHUPz4hphTsmSoQt1eYfeQUMzMzWCoCaeDsuX5rrz/CtjE6l2gopQhOgrRdrB0HtrduFBIu5jCr00j3TFOVYVzK4/3MM89ctG1dUQTrwIED67RWzWaTxcVFDhzY3od5MSCEIJfbfpDsueB53iXZ7ggbY3S8n1ucz/EuFvUJN0kUHT+i0fJZWO3Q8vVdskBy1e5x/DBmudZlvORsHK+TIooSFFok7wLFQo69O8++D1fv87h6H9xx8y7ueegU3/zJCWqtgC/cd4xv/eQU42WPbhBRa/iE8WCLsQHM8t43HuK1t+zKHo0TtTERjCQ4WqTueA7dQoH5Wqj9vPI58q6FH8bUOwHjgc5fXGpEeLZFJ4g4vRow5TmAwJCS1XpEKBReM2aq6m1pcnOE88PoXALS9ZBODmebx0HFEX4rh5XLY7hb2RB6DwAAL95JREFUW/dSHO+LqVW8on5pd955J5/4xCeGtFhf+cpXkFLymte85nneuxFGGOFSQ0pBwbMoeBbjFY9WJ0hzFCVjJZcgiknihFpbi+ct06CctwmihDCMyXkWSaJYaeqW3UTFQ27zhGoYkjfetofX3DLDj346z7d+coLleo92b311HaCUM2l0Ij77rWd4+Okl6i2fRjvAD2OmqjkO7S6za7Kg9VYKxgomU0JA6gLveRaOY6KUykijYxl0DcnsUot2V8cAmYYkryyWGz1a9TZRAPPLHdrtDpabZ3m+SbcXcWBXCdOQmTN+FCta3QAptHfYSAw/wgXhPL2shGFiliaQtnvuha8QXFEE66677uLTn/40d999Nx/84AeZn5/nox/9KHfdddeQB9YHPvABZmdn+drXvpY99uijj3Lq1ClWVlYAePjhhwEYGxvj9ttvf27fyAgjjHDBcCwD5wyLBdc2ObSnih9E+KGeHFxY7eLY2m1+qa5FsVPVHN0gotkJKOe34E21AWzT4DUvmeFVN+3kmROrhHGCa5tUCg6lvK21Uqun8CrjfPEni3zjxyd45mRtaBsLqx0WVoe1XwJ4/TUe77jewLLT7MOBfMg+SnmbRiugWnSzlqoUgsmyx9JSj5VWhMh1Gc9bGDkXr+yxXO8ipSCKYvwwRkqJUopuL0JIwXjZZbLiUfCss1YARxhhMwgpzjtf0ixULu7OPM+4oghWuVzmU5/6FB/+8Ie5++67yefzvO997+N3fud3hpZLkoQ4joce+9M//VM+97nPZX//h//wHwC4/fbb+fSnP33pd36EEUZ4TmCZEsvU0TiFnE295ZNzLSxTcmqhhR9E7Jku0mwHPH1ilXYvJAjizFMrVookVji2gRAis4vYjHAYUmSB1oOwLQOm94KQvPM1BQ7urrBS7zE15lEpONiWwfG5JkdO1zm91KbW8gGYW+7w7ae6/PgoHNwR8aqXr2TWE4OQQlApbkwOCzmHlmNS8kwMCUiJIQVjRZflWhfL1EHXcaItIsZKLlGS6EnLepecazFVzWlLjVSHliTasHQr+rYRXsQQaRbmCFcWwQI4ePAgn/zkJ8+6zEaE6SMf+Qgf+chHLtFejTDCCJcjHMsYisrZv7NEorSI3iw6VIoOfhBTLbt0/YhaO8CUAiGhWQvSWDWBQLvAe46F55hbJxmpH5AQguv3rydJNx9yuPnQxNBjjz2zyF98/UmavYSHT/R4+MSjvOYlM4yXXY7PNTmx0CRJFL9w50FuvXqSJFEs1jrMLXco5232Tpd0DI1hIEi0Wl7oioJpSiYqG4uCbakd7eNE0emFHD5ZI+eamUmzUlozVi06VEsuOdfa2jEY4cUFKUcB3imuOII1wggjjHC+kFIg01abYUgO7qoAutoUxwkdP8I0JEJAox0QBHGWmdhoB6w2eqw2u5jSoFSwt63f2gpuOjjBdd4Ex0/XeGDB5r6nWtz3yOy65T71xZ/y3V1lZhdb9IK1in3ONXndLTu52jT52VzAqXrCwb09DpY3EdWfAUMKijmbvGfR8yOUdkZFCkEYJRyfb7JY67JnRxHHMmh1Q+IkQQqdL1nwhomXUopmJ0QKyHvWhhqvKE5otgOkFFuLExrhsoWQxsgOJMWIYI0wwggvWvStFUATrmJuzf/mzGm7csFh50SeRjtgdrHFYq2DJQ2kITClju/pby+KEoQgayuGUZK12s4JocOmD4zBgQMT3Hj9fr71wEk8x2TPjiJ7dhT52bEVvvWTkzx7qp6+D8mOsTyLqx06vYiv/uAE9zkGLT/133riFMXvLvCqm3Zy+43TQ9mL3V7EM6d0taqUd1BKUcrZuI65YZWqmLNptAOeOVFDSEGc+nIpFLZpUC7a5F07bdVKai2f+eUOCBgrOlSKLjl3bdurzR6nFlq0OgGWabBvZ4lywcEPIjzXGrUkrzTIF1bczYVgRLBGGGGEEbaI/rRiwbNYafQIgpgg9eZqdgO82MSQkkZH66lsyyAMY4QQmKbckqA+iGLsfgVASK6/apzrrxofWubavVWu3z/G7FKbAzN6ClFKrRf78RNzfPZbz9DyEwwB1+8wObKqq0hf++FxvvbD40xUPHZN5jENyaOHlwjCYed625L8o3feyHUbtDVBC+z7bveDxNEPYlbrPkur3X5QD0pBOe8gBKw0fBZXu9iWwdRYDs8xOTbXQCUwVvJo90Kena1jm5IwUuyeyrMzDfpWSrHa9Gl1QmxL4lgGOc/CsdYLquM4GYn0nycYTh5hjtrHMCJYI4wwwgjbhm0ZTI/ns7+VUsyvdDg21yBJYPdUEdc2Ob3UolxwKHgWx0438IMYIaCXEjMhIO9aWbVM2zdEeH6MphWbT2NdvafK1XuGw5INKXjljTuZGXf57o+e4s79BrsLMfH4AR6dh+89MsvhkzWWal2WamsxIxNll0RBqxuAgiBM+A9/8zj/8B3Xc/1V4xtWkTaqyDm2gWOv7fOZsSNjKRnq+REn5psYhnaj74v1izmbXhCRJApTwvxKh2rRBQGzi20Wax1UQkbeHFsyM1EY+ixWGj1OL7fZN10aald2/QhDiqGq5QgXH2Zp/NwLvUgwIlgjjDDCCBcIIQQ7xnJpdqJi50QeKQVjJSeL0gnChFOLTSzTIO+aTFa91EW+RyPVH1mGZNdkgfkViOOtaaY2wmTF46VXl5isONBbxjAMbr16jFuvnqTrRzx7qs5yvUu7F3JgV4Vr9lQyIhTFCZ/84k95/Nll/v3fPI5tSWzToOtH5FyL8bLLzQcnuP2GHRTSlmoca+PWM/MiN/PUch0T2zYIo2RdBapPNpVSLNW7zC636fZCGu2AcsHJAreVUrS7IacWWuRci1LeptUJOD7XoNkJQSkO7q7g2iZhlPDsqRqeY3HVTCnbr04vpNkJmah45zzWYZSw2ugxVna3nYs5wosTI4I1wggjjHARIIRgaiw/9Nhgm2pmMk/ONXXEj2sOXORztLohjZZPteRSLboEcy71Uz5xMyBKOhQ9G8/d/ula5SqQ9IZEx55jcuOBzasMpiH5b95xA5/99tM89NSirralLcRmJ6DZCTh6usEXv3eEfdNFcq7F08dX8VyTf/SuG2l1Qr70vSPceGCct92xn/nlDk8cXaFSdJgouzi2QbXkYpvGhu29weNZyjmcXmxhmQbj5WFTWCEEhZzNSqPHifkGxZzDarOHH8bsGMuxVOtyfK7J3ukiq40etaZPpxczWfUoZus16fkRtiWpFvUkadePyDkmiVJ0ehF5T0+Ozi+3ObHQpNPLs2e6lBEypVSWg3khCKMEP4zXDQmMcOViRLBGGGGEEZ4DmMbGFgk518p8p/qYqBaJVx3yU0VEqcjsYoduEFHIWcSxotULdZ9MQMGxMvIVxQntXojfC/RF3/IgVwa5vYu2aUr+7luu5f1vvoaFlQ5JovAck1Y35MR8k/sfn+PEfJMjs41snaAV8LG/eEj7hgGzS22eOr7KiYWW9tAaQN6z+LV33Uil6PCtn5zgyGyDxVqH6bE8h3ZXOLSnwoGZMo5tMFHJnbW6VCk6rNS7NDshrmUwVnQRQjBeclmqdQlTU9VCzqbjRyyudmm2A04utDCkQCBYXO1SzNkcn2uyVO/oKpqCXhBRLjhMVXPMrXRwLZPZpTaGIdk5kUcpxYn5FnEUbOv4DkIpRb0VMLvUIghjrt5TJT8iWS8IjAjWCCOMMMJlBi9ns3OygDdewKoUybs28ysdGu0AQ8LOsRyea+EHMYurHZqrOupGSEHBM1GxpNGO6QYxgTWJLXXmImg/r83sJfpB1d0goujZmKYc0jdVSy57dhR59UtmWKp3efp4ja4fcWCmxNd/fILHn10G4CWHJnj82WWOzen4oIO7ysSJYrXZo+fHtLshf/RfHkak1g99HJ9vcny+yTd/cgLXNvjAO2/ITFb9IGah1uHIbIPZxRY7xnJcu6/KzESBicr6PDojJbSrzR4oKJUdLEOyuNohUVBwNTHth32fmG+yXO8yXvKIY4UQWsy/3Ojhh03iJKFS8rAtgxPzTdq9ECkEi7UuKg6Je2tWGUmiaHY06bJMualnWBDGnF5uM7/cQQBRkjC33OHArtJ5RRbFiUKKi5unN8L5Y0SwRhhhhBEuMwiEvkim18lK0aFcsOn0IqQUeM7aqXus7FJv9bBNE8c2KHgWtXqTUyd1myvvGHR7EY22vuALoUX6gxONfhDT6YVEcYJjG+Rdi9VWj4myt+nFeqLsMXHzWkXu195V4sdPzjNWcjm0u8LhkzW+8+BJXnbtDm65eiLbThDG/MlXnuDRw8uA4uCuMq+7dReTVY9Ti22eOVHj6ROrrDZ9/vi/Psbt10/zdCrMX4fvwhtv283Pv/YAQghOzDf5weNzgJ60vHZ/lfHS2j7aloHrmNrJPtVyWaaOC1qq9ci7ljahHehcjpdcOj1NOEEL+cdNj1qrh1L6OCyuhCzVtU4sRrcTl+s9EqVwbZP9MyWqRRc/jIljbdnRaAfMLrVptnVck2MbBFHMUr3DWNnR4v5tII4Tnp2tU/CsbPJyhOcXI4I1wggjjHC5QRopyVrTcAkhNmwd9cOvB+E6JjNjFtfuq1IqFWh1Q1bqPVzbQErByYWm9vEyDaIoxjQNqmWHSkFbUCjgZ8dWaHXDIW+ws+6yFNx+w3T298HdFQ7urqxbzrYM/pt33sj9j5+m4NncfHA8I18zEwVecf0OojjhT77yBA8/vcT3HzudrZtzTfZMFdk9VWB2qc0TR7Uf2KnFFq1OyOxSO1v2vkdmmah4vOcNh3jkmSWePLrCe954iJsPauf8lUaPz37raUp5m196/SGCMN7w+AohcG2D+x6ZJeea3HbdDgwphohbKW9zNEj42fEantsjSRIqBRcz9QE7OtugVQlYrvcII4VlCnp+jGXJocBx2zSQQnByvokhJcWcRS+ISRKVTUDKTdql8ysdFlY6NByTYt7ZVMvV7AT4QZwFp4+mKi8dRgRrhBFGGOEyg8jMGs+/1SOl9t6C9STMdUyWax38KME2JBPV3LoL8q7JIodP1lAqIO+aKHQLKokVKjVKcOyNY4PCKCGM4k1bY1IKXn3zzKb7bhqSX337DUyUj7Da9Ln50ARX76mQP2N7P3j8NH/+9ad46ngt2+6tV0+S9yweemqRpVqX/+fzj2bLf/pLT/Abv3gTnV7EX37zadrdENBVqMlqji/edwQhYLzscmCmzN7pIr0g5m9/cIyTCy0Almpdfu5V+wFdNTq12GK8ZFHOm1SLDrZtD00ZVgoOtabPiYUWedei4JlEUUKlaG44jVgpOKw2fZ45uUre1ZORsVIYQuDYBuWCk1l/9MnWaqPH7FKbUs6h5YdZCzVOFMWchWUa9PyI+dUOCytdojhGKV0Z3b+zdFFij6I4Qak1+44g1PmeL+Z25YhgjTDCCCNcbhCCVExzSTavCVf5rMuMl12UKrOw2qHW1hovKbXXVv+iuVzvUi26WlzfDSkXHExDsNrsYUiBIeU6X6woVsSJtmc428XXkIJ3vfbAWffxlTfupJR3+NmxFfZNlzi0p5JV3N72qn381Tef5sGnFtk1WSDnmjx9osYffvaRbP1KUZOfL33vCEqt+WvNr3T46ZGVodeyLUkQJnzl/mO0exFvfvkePv3lJzh8qs7O8RyvvMbhqtSFv48gijENuS6U+0wPsVrT579+9zA7J/K85RV7GSu5tDoBzXaA55qYqYmsH8acWmimZMqiWnIJo4T5lQ4AnmtiWVpnttLoopT2FqsUHZZqXTp+pF36bYdEKZYbPZ4+UWOy4pFzLYo5a8sGrUopekGc/f/0UgspBQd3VYjihCOzDabHc4yXN86+3AhbNYhNEsVKKxrS712OGBGsEUYYYYTLDml78Hm8+5dSMDWWY6zs0vO19sswZEawkiTh5EKL00ttHMugWnJYrvewTYNizqKQszm91GZMutQ7PkmiEIBpGggBnV7EWGm9zigIY03Otnihv37/2IZB2jnX4h++4wZ+/nU9ynmHME74w796mOPzTcoFm5deM8XbX72fP/3KkzzyzBIAd9y0k1uunmBupcMzJ2osrHawLYMdYzne9doDPPizBf7rd5/luw+d4t6HT9F3Zzi93OHz3+/wg6ce5eo9VQo5i+NzTX56dIXdkwV+7edvpFxw1g0Y+GHMkdk6f/a3P6PRDnjwqUVWGj3e/6ZrMo+xPgxDt1eLOZsoSmj7IbXZOiAoehZuqsszDclkNYdAE8ZmO+DEfJOcYzE5oKmTQjBRcml2Qo7NNRECijmLHWN5xstuNoDQ9SOiWEc/WYbMEgMWV7usNnooIIpjTGkQxDHH55qEUcxSrYNp6uSDrVSxmp2AY6cbFPN2RvgGsbDSRgjJZNVjpdFjtRnhh/EmW7s8MCJYI4wwwgiXGbTA/cJahBcLpiHXXewBDGmwd7pE3rPIOWZaqRLUmj1mJksUcrq9tdzsMlnJMVbSBp22JVPjzzorjR5SCKIkQaBbkI5l4Kd6qDNbgueDvljckQb/3ftvpdbymSivXfT/7luu0TmPU0Ve/ZKdCCG4dt8Yr3/p7nXbeuNte5isenz2W89Qa/qU8zZ//23X8b1HTvHw08ucXu5werkztM7x+Sb/5589gOeaLKx0uOngBDcfnOD7j53myKl6VjUbK7msNnvc/9gcc8sd3vaqfVyzt7ohOTFNSdlcq4rV2z6zy22SRHFgppy1DgWcNTxbCEEpDTOPE0WrE/DMyRo9v0C15HJ8vkG9GWQtYSklUujcyThOKOUcTbiljSEFUZywsKpzJ8fLHs12kHmJga489YKIektHSU1WtQVHo6291bp+RLMTUG/6XLO3mpHG1UaPY3MtEqUIo5jTyx3C+MK9xy41RgRrhBFGGOFyg5AIefnrVwwphvy79k0XqRb1BJyUgr3TJYIwYazsrtNq7Z8pcWqhhWMbeLbWeOkKjUW95TO7pKNxQCCFJnqeo5drtH1IazSubZL3LKTQlZX+67S7IUEUZ3YToFtzk2d4keVci7veeu2W3/NNBya4eneVRw8vcfXeCuW8w55Jj5fsEXQpsVQPaHcjygWbQ7sr/JdvP8P8Sod6OsX5yDNLWcUMoJCzuH7fGO954yGePLbKf/7Kkxw93eATn3uUUt7m4K4ytmWkVUIX1zaI4oS90yV2TxX4m+8+y7cfOJltb+dEnpddO8XhkzXq7QDblOyeKvKqm6Y5drrJA08tsNLoEceK194ywxtv24Nl6spkueDQCyJOLDRZqnfp+RHV0prLfZIokrRst5F+zDQk42WPlYa28Jga92i0fRQwt9yi040yQ1X4/7d359FRlXcfwL939i0zSUhYskAIMTEUMCyKCKRUK5DCK4VWloqAWhp6QAoUD2ARtXJaD4dTpNjFIi1IKchi5e1hqRwRsMCLCvblFZFKEhAIWcgySzLrvff9Y5Krk4Qk6s0kE7+fc3Jg7jx38syPm8yP53nu7wFqPf7whuDuACRJRpLDDFmWUVnrRY3bhz5GG+p9QXxWHh5hM+nCJTLqfaF2/3t1JiZYRERdkdC40D12mIw6ZdQBaH30JCHOhHibscUk0mLSN3zYi+EP5IYyEh5vEJIko08PKxw2I7z+ECob9lUUAGi0Goii1NAXLexWA2rcfmg1AuwWQ7NpR1kOr2tqaz1YU0aDFiNye0W+d4MGuRnJMJkipz1/Nn0oTp4vRQ+HCYl2E46evYYblR4MyUrC2LtSkfCFadK8O5LRv48dRz+4hv+5cFOZNrydngmW8IgRwiNg9b4gbt6qw4FbJRHtrpa5cfJ8abPzD52+gmPnrsNm0aOH3YQhWckYkpUEh9UIf0BEjyZlOjQaAZoWRlXd9QGUlDrRt5cddd4gfrfvf+H1hzDpvgzYLUaUVdXDHxRhNoR3MnDYjBAlOZx8SYDV8vmm3YIgwGLUoaLGi/g4E66Ve+D1BZW+6LQaGHUymr+brocJFhFRV9M4Pdi1B7C+ttaSmsYK941kWYbXH4IoybCZ9RAEAQkAkuLNqPX4lTIGXn+oITkwwWTQodbjR3lVHWrcfmiEcA2xxoX3VS4v9Dot3PVB2Mx6hEISgqIEWf58ZMwfEFHr8UHTsPbMYTW2uNH17bbLMZt0+O49fZXHj03+VqsxcdiMmDouC/81JhPFpU5cr/BAlCT4/CKqXD4EQ+GyDZc+q0FFTT00AjBz/J24O7cX6rxBvP3BZyivrkdWWjxSkqzw+kWcu1SOj4qq0MNhwpi8VGT0seNWrRf/+FcxnJ5AOFGt8eKTqzV449inuOuOZCTEmeDxBlHnDcLjDY/KCQJwR3o8jHotLl+vRTAkwWTU4cpNl1JKQq/TwBcIj1AdPXsdA9IdSLJbkNRksbtWIyjTt+66AP72z09Q6/bje/dl4I6+CahyenG9ofirLyDi5LvFGDW4D3omWOB0heD2du31VwATLCKirkcQAI025kawOpIgCC2WEzDotRHTlE3rdiXaTXDYjHB6/MpXjTuIkCQjMc6IlGQbKmu9cHn8MBq0iDeF1xVV1npR7fRBlCVlrZmrYerSbjHAZNRBlmXUevyoq/fC7ZVQWetFYrwWFuPne01Kknzb2lWt0ek0yO6bgOy+CS0+X15dh1Pnb2LQgB64Iz3cxmrW46GxA5q1zctORkiUwiNQDf3q19uOIVnJKKuugz8g4spNFz68VIHSW3U4+0nFbfvVeMdiUwlx4fISYkBEarINsiyj9FYdDvzrinJTg0GvVTYPd9iMsFsN8PpD+OBiOTwNJTP++Pf/w/A7e6JgVAYqary4ctOFfUc/RVCUcOZCGe4d1Bv/+ncpQpKE8WOC6PmlohpdTLCIiLoYoaFMQzcfwIoarUZAoj08RRcMiaj3hRAISnDYDMqdeUFRguELdZscNiM+K3fDbjUgNdkGTcMaJZ1Wg9Jbdaj3hyDKMmwmHXonOKDxVyK1lw0ur4wqpxfxNhNq6vyQJRlGgxZ2iwGyjNsmW6Ikw+cPQasVoNdpW91/EQB6JVoxdVxWm+9dkmQEQmJ4f8Um9DoN0nvGAQCy0uLxwIh0fFbuxrlLFZDlcDkPq0kPq0UPm0kPbyCES1drEAyJyEqLh81iQJ03iJRkK1KSbCgpdaLohhOjBvVBWVUdXt77vyi64WyzjwCQkmRFZqoDp86X4uwnFfB4g7AYdcoUqcWoQ70/hHfOhteb9UkM31zRlXXt3hERfRMJjWUaOIKlNr1OC4ctsnq5RiPAqIk85rAZkWMMFwNtTIq0GgGpPW0NJSg8kBEeCRLkICpMWvRJsqKPRo+rZS5Uu33hpC7OhPLqOlQ5vRAEAaIsIzEufEdl4+iWKMmocnlhNekRCIqo84WUKbf4OGOzvSNlWY5I1qpdPsiyHFESofGuQH9D2QtJktssKCoIAvr1tqNfb/tt2zRWwm9J/xQH+qeE66sNSIvHQ2Mzca3cjay0eCQ6TAgGJQRCInx+EbUeP9z1AZiNOiQ5zLjnW72h12kweEAStvz3R7h0tSbcJwD3j0jH+JH98Maxy7h4pRrjhqbALLi+0shgNDHBIiLqagTh8y/qNC1tIyMI4aQnzqKH1FC5vL4+qDxvMemRlRaPWncA8XHh9VqOOCO8DftIVlTXoaLG21BLNpz4iLKMpHgzMvrYlfpTwaCI0lseVDm94WlPGZBlQJQk1PtDyp6SshRedC8I4bvy4iwGuOsDCIky7FY9+vWxIxAMTwEa9VpIMuALhOALitAAMDXcwSmKUsM+jBqIkgRBiNzz8ssIhSRUu30Ymt0T44alfakbCLL7JuAnUwdj24GL6JlgxpRvD1BG2Rrv9qyv9+L/PnF/pb5FU8wlWEVFRVi7di0+/PBDWK1WTJkyBUuWLIHB0Pp+WbIsY/Pmzfjb3/6G6upq5ObmYtWqVcjLy4tOx4mI2quhTAMTrK5Lq9Xgdrv46XVaJCd8vqjb2FBmAQjvp2gy6iAIgM1sQCAowR8IISnBrEzjGfVaoKF46JWbTnj9IWUUS6PVIKOPHQa9Ftcr3BBlGX17x0GAEC7N4PHDEWdEcrwZ8TYjtA13Vnq8QVTU1MOo18Fs1CIp3gxRlOBsqNJvNoYX9PuDIWi1GgRDIjy+IOwWAzSCAH8gBG9QhEGnQVzDsZb4gyKcHj96JljgDYTv8rSawncJ6lq4OaAlA1Lj8fz8e7t8mZK2xFSC5XQ6MXfuXGRkZGDTpk0oLy/Hiy++CJ/PhzVr1rR67ubNm/Hb3/4Wy5cvR05ODnbs2IHHH38c+/fvR3p6epTeARFR2wSgoUxDbH/AUHM6bbguVXuYjTpk902EJElorAcGQVDWZ1lMOgSCkrIVz4C0+IaK7IaI6TOtVoP0XnFIiDPBYgqXSmh8XhTDo1WNU5UhUYJOI8AXEHGj0gN3Q/0uvU6D1CQbXHV+VDm9Da8c7otGIyAUEhtG9LRISbIirVccQqKE8qo61HoCcHkDyveKsxig0wjw+IKAHB6J8wVC4XVwWi3sNgMkSUYoJELbMJVa7w9Cp9HAZvn6xWejJaYSrF27dqGurg4vv/wy4uPjAQCiKOL5559HYWEhevXq1eJ5fr8fr7zyCh5//HHMmzcPADB8+HBMnDgRW7ZswXPPPRedN0BE1A6C3gCNwQxBc7sxEvqmCO/p2PJ1EC5l8fnjpnsefpHZqGtxyu+LtcG++L2sZg0GpMUjGBQhI5xg6bQaBENWuOr84Y2/pXDpjKAowWrSwWzUw2TQwmQIJ3A6rQb9+jiQJkrwBcSGKu4BVLt8CIUkxFn10Go0qPeHy2QkOsyorKlHZU09dDotDDoNvAERGgFKEdRbTi8EueuXaABiLME6ceIERo0apSRXAFBQUIBnn30WJ0+exLRp01o879y5c/B4PCgoKFCOGQwGPPjggzhy5EhHd5uI6EsRtHoYkppv1UIUTVqNAG2TpEyv03ypDZyBcBJnNWtgNevRw2FGz0QLRFGCzRLeYicQFJWbCeLjjHDXBWA0aGEyaBEMfb4ezBcIobyqDuW33DDqG0b0urCYukWluLgYmZmRu6vb7XYkJyejuLi41fMANDt3wIABKC0thc/nU7+zRERE1IzNHK7U3zjVadBrlSlLoz68PizOYoBep4XFpFdG3kwGHfr1cWBg/wSk9jB85UX40dK1e9eEy+WC3d789lGHwwGn8/a1NlwuFwwGA4zGyOFTu90OWZbhdDqbbW/QHrIso76+5aJrX4XX6434kzoW4x1djHf0MNbRxXhHl9/vg0Gngc/nU30hvCzLqr1mTCVYXU0wGMTFixdVf90rV66o/pp0e4x3dDHe0cNYRxfjHV0dFe+2qhK0V0wlWHa7HW5389oXTqcTDoej1fMCgQD8fn/EKJbL5QrvLdXKua3R6/XIymq7km57eb1eXLlyBRkZGTCbv9wcN315jHd0Md7Rw1hHF+MdXR0Z78uXL6v2WjGVYGVmZjZba+V2u1FZWdlsfVXT8wCgpKQEd955p3K8uLgYKSkpX2l6EGjYG8tiabvhl2Q2mzvkdalljHd0Md7Rw1hHF+MdXR0RbzWnHGNqkXt+fj5OnToFl8ulHDt8+DA0Gg1Gjx592/OGDRsGm82GQ4cOKceCwSDeeust5Ofnd2ifiYiI6JsnpkawZs6cie3bt2PhwoUoLCxEeXk51q1bh5kzZ0bUwJo7dy5KS0uVEgxGoxGFhYXYtGkTEhMTkZ2djZ07d6K2thZPPPFEZ70dIiIi6qZiKsFyOBzYtm0bXnjhBSxcuBBWqxU//OEPsXTp0oh2kiRBFCMLkc2fPx+yLOPPf/6zslXOli1bWMWdiIiIVBdTCRYQrl21devWVtts37692TFBEFBYWIjCwsIO6hkRERFRWEytwSIiIiKKBUywiIiIiFQmyLIsd3YnYtG5c+cgy7JqBcmAcAXZYDAIvV6venVaao7xji7GO3oY6+hivKOrI+MdCAQgCAKGDRv2tV8r5tZgdRUd8UMkCIKqCRu1jvGOLsY7ehjr6GK8o6sj4y0Igmqf7xzBIiIiIlIZ12ARERERqYwJFhEREZHKmGARERERqYwJFhEREZHKmGARERERqYwJFhEREZHKmGARERERqYwJFhEREZHKmGARERERqYwJFhEREZHKmGARERERqYwJVhdQVFSExx57DHl5eRg9ejTWrVuHQCDQ2d2KeW+88QZycnKafa1fvz6i3Z49ezBhwgQMHjwYDz30EN55551O6nFsuXr1KtasWYMpU6Zg4MCBmDx5covt2hNft9uNp59+Gvfccw+GDh2KxYsXo6KioqPfQkxpT7wfffTRFq/5oqKiiHaMd+sOHTqEn/70p8jPz0deXh6mTJmCvXv3ounWvby21dGeeMfita3rlO9KCqfTiblz5yIjIwObNm1CeXk5XnzxRfh8PqxZs6azu9ctvPrqq4iLi1Me9+rVS/n7gQMH8Mwzz2DBggW49957cfDgQSxatAg7duxAXl5eJ/Q2dnz66ac4fvw47rrrLkiS1OzDB2h/fJcsWYLLly/jueeeg9FoxEsvvYT58+dj37590On4awpoX7wBYNiwYVixYkXEsbS0tIjHjHfrtm7ditTUVKxcuRIJCQk4deoUnnnmGZSVlWHRokUAeG2rqT3xBmLw2papU/3xj3+U8/Ly5JqaGuXYrl275NzcXLmsrKzzOtYN7Nu3T87Ozparqqpu22b8+PHysmXLIo7NmDFD/vGPf9zR3Yt5oigqf1+xYoU8adKkZm3aE99z587J2dnZ8rvvvqscKyoqknNycuQDBw50QM9jU3viPXv2bPknP/lJq6/DeLetpd8Zq1evlocNG6b8O/DaVk974h2L1zanCDvZiRMnMGrUKMTHxyvHCgoKIEkSTp482Xkd+wa4du0arly5goKCgojj3/ve93D69GlO07ZBo2n910d743vixAnY7XaMHj1aaZOZmYnc3FycOHFC/Y7HqLbi3V6Md9sSExObHcvNzYXH40F9fT2vbZW1Fe/26mrxZoLVyYqLi5GZmRlxzG63Izk5GcXFxZ3Uq+5l8uTJyM3NxQMPPIBXXnkFoigCgBLf/v37R7QfMGAAgsEgrl27FvW+diftjW9xcTH69+8PQRAi2mVmZvJn4Ct47733kJeXh8GDB2P27Nl4//33I55nvL+as2fPolevXrDZbLy2o+CL8W4Ua9c2J4A7mcvlgt1ub3bc4XDA6XR2Qo+6j+TkZDz55JO46667IAgCjh49ipdeegnl5eVYs2aNEt+m8W98zPh/Pe2Nr8vlilgj18jhcOCjjz7q4F52L3fffTemTJmCjIwMVFRUYMuWLXjsscewfft2DB06FADj/VV88MEHOHjwoLL+h9d2x2oabyA2r20mWNRtjR07FmPHjlUejxkzBkajEdu2bcOCBQs6sWdEHWPx4sURj8eNG4fJkyfj97//PTZv3txJvYptZWVlWLp0KUaOHIk5c+Z0dne6vdvFOxavbU4RdjK73Q63293suNPphMPh6IQedW8FBQUQRREXL15U4ts0/i6XCwAY/6+pvfG12+3weDzNzufPwNdnsVjw7W9/GxcuXFCOMd7t53K5MH/+fMTHx2PTpk3KOjhe2x3jdvFuSSxc20ywOllLc8NutxuVlZXN1maRuhrj2zT+xcXF0Ov1SE9P74xudRvtjW9mZiZKSkqalR0oKSnhz0AHYLzbx+fzobCwEG63u1mpF17b6mst3u3V1eLNBKuT5efn49SpU8r/fADg8OHD0Gg0EXdCkDoOHjwIrVaLgQMHIj09HRkZGTh8+HCzNqNGjYLBYOikXnYP7Y1vfn4+nE4nTp8+rbQpKSnBxx9/jPz8/Kj2ubupr6/HsWPHMHjwYOUY4922UCiEJUuWoLi4GK+++mpE7TyA17ba2op3S2Lh2uYarE42c+ZMbN++HQsXLkRhYSHKy8uxbt06zJw5s10XGd3eE088gZEjRyInJwcA8Pbbb2P37t2YM2cOkpOTAQBPPvkkli9fjr59+2LkyJE4ePAgzp8/j7/+9a+d2fWY4PV6cfz4cQDAjRs34PF4lA+ce+65B4mJie2K79ChQzFmzBg8/fTTWLFiBYxGIzZs2ICcnByMHz++U95bV9RWvBs/nB588EGkpqaioqICf/nLX1BZWYmNGzcqr8N4t+3555/HO++8g5UrV8Lj8eDf//638tzAgQNhMBh4bauorXifP38+Jq9tQW46lkZRV1RUhBdeeAEffvghrFYrpkyZgqVLl3IE5Wtau3Yt3n33XZSVlUGSJGRkZODhhx/Go48+GnEb7549e7B582aUlpaif//+WLZsGb7zne90Ys9jw/Xr1/HAAw+0+Nxrr72GkSNHAmhffN1uN37961/jyJEjCIVCGDNmDFavXs3/ZHxBW/Hu3bs3fvnLX+LSpUuora2F2WzG0KFDsWjRIgwZMiSiPePduvvvvx83btxo8bm3335bqR7Oa1sdbcVbFMWYvLaZYBERERGpjGuwiIiIiFTGBIuIiIhIZUywiIiIiFTGBIuIiIhIZUywiIiIiFTGBIuIiIhIZUywiIiIiFTGBIuIiIhIZUywiIg62KZNm5CTk4Pq6urO7goRRQkTLCIiIiKVMcEiIiIiUhkTLCIiIiKVMcEiom6jvLwcq1atwn333YdBgwZh0qRJ2Lt3r/L8mTNnkJOTg4MHD+I3v/kNRo8ejby8PCxYsAA3b95s9nqHDh3CtGnTMGTIEIwcORLLly9HeXl5s3ZFRUX42c9+hnvvvRdDhgzBhAkTsGHDhmbt3G43Vq5ciREjRmD48OFYtWoVvF6vukEgoi5B19kdICJSw61btzB9+nQIgoBHHnkEiYmJOHHiBH7xi1/A4/Fg3rx5Sts//OEPEAQB8+fPR1VVFbZt24Z58+Zh//79MJlMAIA33ngDq1atwuDBg7Fs2TJUVVXhtddew7lz5/Dmm2/CbrcDAD755BM88sgj0Ol0mDFjBlJTU/HZZ5/h6NGjWLp0aUQflyxZgrS0NCxbtgwff/wx9uzZg8TERDz11FNRixMRRQcTLCLqFjZs2ABRFPGPf/wDCQkJAIBZs2Zh2bJlePnllzFz5kylrdPpxMGDB2Gz2QAAAwcOxJIlS7B7927MmTMHwWAQ69evR3Z2Nnbs2AGj0QgAGD58OAoLC7F161YsXrwYALB27VrIsoy///3vSElJUb7H8uXLm/UxNzcXv/rVr5THtbW12Lt3LxMsom6IU4REFPNkWcZbb72F+++/H7Iso7q6WvkaM2YM3G43Lly4oLT//ve/ryRXADBx4kQkJyfj+PHjAICPPvoIVVVVmDVrlpJcAcC4ceOQmZmJY8eOAQCqq6vx/vvv4wc/+EFEcgUAgiA06+cXkzwAGDFiBGpra+HxeL52DIioa+EIFhHFvOrqarhcLrz++ut4/fXXb9umcVqvX79+Ec8JgoB+/frhxo0bAIDS0lIAQP/+/Zu9TmZmJs6ePQsAuHbtGgAgOzu7Xf1smoQ19sfpdEYkfEQU+5hgEVHMkyQJAPDQQw9h6tSpLbbJycnB5cuXo9mtZjSalicNZFmOck+IqKMxwSKimJeYmAir1QpJknDffffdtl1jgnX16tWI47Is4+rVq8jJyQHw+UhTSUkJRo0aFdG2pKREeT49PR0A8J///EedN0JE3QbXYBFRzNNqtZgwYQL++c9/tpjsNN2i5s0334xY93T48GFUVlYiPz8fADBo0CD06NEDu3btQiAQUNodP34cRUVFGDduHIBwYnf33Xdj3759yrRiI45KEX2zcQSLiLqFn//85zhz5gymT5+Ohx9+GFlZWXA6nbhw4QJOnz6N9957T2nrcDjwox/9CNOmTVPKNPTr1w/Tp08HAOj1eixfvhyrVq3C7NmzMWnSJKVMQ2pqakTJh9WrV2PWrFmYOnUqZsyYgbS0NNy4cQPHjh3D/v37ox0GIuoimGARUbeQlJSEPXv24He/+x2OHDmCnTt3Ij4+HllZWc1KJixYsACXLl3Cn/70J9TV1WHUqFF49tlnYTablTbTpk2DyWTC5s2bsX79elgsFnz3u9/FU089pSxOB4A777wTu3fvxsaNG7Fz5074/X6kpKSgoKAgau+diLoeQeY4NhF9Q5w5cwZz5szBxo0bMXHixM7uDhF1Y1yDRURERKQyJlhEREREKmOCRURERKQyrsEiIiIiUhlHsIiIiIhUxgSLiIiISGVMsIiIiIhUxgSLiIiISGVMsIiIiIhUxgSLiIiISGVMsIiIiIhUxgSLiIiISGVMsIiIiIhUxgSLiIiISGVMsIiIiIhUxgSLiIiISGVMsIiIiIhUxgSLiIiISGVMsIiIiIhUxgSLiIiISGX/D7V0aPhW2xo/AAAAAElFTkSuQmCC;" vertex="1" parent="1">
                    <mxGeometry x="610" y="100" width="600" height="400" as="geometry"/>
                </mxCell>
            </root>
        </mxGraphModel>
    </diagram>
</mxfile>